<svg xmlns="http://www.w3.org/2000/svg" xmlns:xlink="http://www.w3.org/1999/xlink" width="2283.772" height="355.252" viewBox="0 0 2283.772 355.252"><defs><style>
      .cls-1 {
        fill: url(#linear-gradient);
      }
    </style><linearGradient id="linear-gradient" x1="0.083" y1="0.609" x2="0.926" y2="0.605" gradientUnits="objectBoundingBox"><stop offset="0" stop-color="#ffed00"></stop><stop offset="0.498" stop-color="#f7a600"></stop><stop offset="1" stop-color="#e84e0f"></stop></linearGradient></defs><path id="Pfad_174" data-name="Pfad 174" class="cls-1" d="M-141.916,470.9a17.052,17.052,0,0,0-7.964,2.441,14.721,14.721,0,0,1-5.671,1.562c-3.817.314-7.662.279-11.5.366-1.054.023-2.28.305-3.127-.122-1.913-.963-3.48-2-3.691,1.4-.027.411-.914.839-1.471,1.131-1.059.552-2.2.951-3.248,1.523-1.455.792-2.361.708-3.1-1.033-1.862-4.372-2.444-4.438-6.026-1.164-2.057,1.879-4.344,2.54-6.968,1.288q-4.331-2.069-8.639-4.183c-2.923-1.441-5.3-1.282-8.046,1.028a12.64,12.64,0,0,1-9.167,3.173,3.442,3.442,0,0,0-1.119.307c.245.389.4.938.748,1.141,1.512.871,1.267,1.6-.139,2.171s-2.646,1.956-4.471,1.074a1.694,1.694,0,0,0-1.538.089c-2.433,2.715-4.058.329-6.107-.686-3.079-1.523-5.119-4.459-8.436-5.684-1.023-.379-1.545-2.084-2.324-3.162-1.114-1.544-2.394-2.109-4.021-.653a5.556,5.556,0,0,1-1.332.883c-4.087,1.908-4.8,1.74-7.758-1.621-.908-1.032-1.195-2.564-3.194-2.622-2.275-.065-4.578-.616-6.419,1.1-3.075,2.867-6.458,1.943-9.786.877-.876-.28-1.515-1.376-2.206-2.147-1.153-1.285-2.434-2.278-4.184-1.243-1.854,1.1-2.35.109-2.661-1.465-.616-3.131-2.4-4.776-5.706-5.214a21.144,21.144,0,0,1-6.4-2.268,5.234,5.234,0,0,1-2.535-2.713c-.874-2.8-2.9-3.58-5.422-3.879-1.45-.171-2.911-.3-4.339-.589a1.537,1.537,0,0,1-1-1.042c-.032-.319.542-.869.956-1.022a5.154,5.154,0,0,1,2.354-.431c2.013.275,2.934-.945,3.726-2.418.772-1.436.887-2.4-1.312-1.916-.431.1-1-.426-1.5-.663.331-.542.577-1.468,1.005-1.562,2.065-.45,2.835-1.75,3.012-3.693.106-1.153-.208-1.731-1.44-1.889-1.037-.134-2.327-.233-3-.876-2.919-2.768-6.816-3.162-10.34-4.172-2.272-.653-1.656-2.233-1.976-3.322-.4-1.367,1-1.919,2.265-2.159.475-.089.936-.258,1.4-.393-.289-.577-.522-1.607-.876-1.651a15.286,15.286,0,0,0-4.562,0c-.815.149-1.441,1.156-2.231,1.648-2.5,1.555-4.463,1.285-6.176-1.215-1.037-1.513-1.961-1.9-3.636-1.21-1.616.669-3.307,1.127-4.912-.3-.307-.272-1.139-.015-1.711.089-2.059.374-3.225-.4-2.656-2.366.753-2.611-1.762-3.416-2.236-5.268-.579-2.258-2.119-3.136-4.433-3.3-2.142-.156-4.216-.681-4.276-3.667-.012-.549-1.554-1.065-2.387-1.6a7.911,7.911,0,0,0-1.137,2.153c-.465,2.666-1.908,3.537-4.037,2-1.315-.955-3.409-1.755-3.07-3.839.361-2.211,2.7-1.8,4.236-2.361a5.615,5.615,0,0,1,2.349-.01c2.082.2,2.76-.485,2.022-2.28a5.05,5.05,0,0,0-3.7-3.382c-1.508-.3-2.342-.753-1-2.305.867-1,.3-1.866-.7-2.184a8.969,8.969,0,0,0-3.493-.481,22.129,22.129,0,0,1-12.5-2.609c-1.06-.547-1.55-2.985-1.537-4.55.008-1.06.1-1.4-.955-1.424a6.418,6.418,0,0,1-.8-.008c-3.169-.482-3.857-1.711-2.315-4.651.569-1.084,1.149-1.668-.309-2.507a2.577,2.577,0,0,1-1.027-2.241c1.091-2.8.3-5.53.116-8.29-.077-1.122-.035-1.872,1.508-.973,1.852,1.079,2.673-.631,3.221-1.9.577-1.33-.4-1.948-1.658-2.048-1.606-.128-1.887-1.2-1.941-2.523-.07-1.757-1-2.176-2.694-1.973-3.8.456-7.325-.721-10.742-2.251-.726-.324-1.414-.992-2.139-1.02-3.268-.124-4.258-2.985-5.911-4.916-.946-1.107.5-1.079,1.211-1.174,2.085-.277,2.926-1.616,3.168-3.552.253-2.035-.22-3.709-2.092-4.807a27.783,27.783,0,0,1-2.711-1.679c-.458-.346-2.023.272-1.3-.973.43-.735.995-2.642,2.673-1.453,1.74,1.231,3.1,1.752,4.686-.448.552-.765,2.99-1.216,3.552-.7a6.72,6.72,0,0,1,1.876,4.176c.107,1.451-.166,3.174-2.111,3.944a2.741,2.741,0,0,0-1.381,2.2,19.492,19.492,0,0,0,1.411,4.456c.044.114.9.149,1.022-.027,1.292-1.849,2.834-2.267,4.855-1.169.27.148.9-.357,1.357-.56-.3-.319-.55-.851-.9-.919-1.132-.227-1.9-.7-1.151-1.84.216-.331,1.362-.273,1.983-.077,3.755,1.179,6.223-.5,6.008-4.347-.1-1.693-1.659-1.7-2.731-1.287-2,.773-3.683.116-5.384-.683-.386-.181-.6-.728-.9-1.107.552-.235,1.134-.716,1.646-.649.762.1,1.448.76,2.21.862a10.617,10.617,0,0,0,2.537-.242c-.282-.844-.346-1.9-.909-2.473-.584-.591-1.663-.674-2.5-1.035-.567-.242-1.1-.579-1.641-.872a7.892,7.892,0,0,1,1.319-1.208c1.934-1.1,2.567-4.825.636-5.783-2.886-1.433-1.968-2.535-.351-4.069a3.723,3.723,0,0,0,.721-1.408c.436-1.149.77-.9,1.617-.2,1.693,1.4,2.087,1.21,2.418-.789a18.465,18.465,0,0,0,.243-3.176c-.035-3.666-.052-3.656-3.275-2.05a6.3,6.3,0,0,1-1.384.337c.111-.475.07-1.1.361-1.4,1.094-1.139.919-1.966-.185-3.042-.52-.507-.933-1.911-.622-2.309.572-.733,2.179-1.663,2.54-1.4,2.246,1.646,4.1-.5,6.142-.359,1.439.1,1.547-.829,1.057-1.849a16.226,16.226,0,0,0-2.3-4.1c-.653-.706-2.052-.726-3.121-1.042-.485-.143-.981-.252-1.471-.377.275-.371.473-.914.841-1.079,1.082-.485,1.99-1.109,1.564-2.394-.5-1.51-1.819-1.139-3.045-1.131a6.306,6.306,0,0,1-3.337-.656c-1.914-1.253-1.815-2.312-.012-3.834,2-1.686,1.993-1.683.354-3.837-.56-.736-1.09-1.5-1.629-2.253-.935-1.305-.445-2.315.788-2.975.975-.52,1.792-.418,1.943,1,.117,1.111.1,2.475.74,3.221a3.853,3.853,0,0,0,3.082,1.3c1.668-.4.275-1.73.227-2.663a9.486,9.486,0,0,0-2.78-5.919c-.879-.8-1.433-1.33-.034-2.446,1.329-1.059.7-2.535-.96-2.674-.773-.064-1.58.352-2.366.327-1.861-.06-4.042.319-5.5-.513a61.93,61.93,0,0,1-8.617-6.392c-.44-.362.1-2.256-.211-2.369-2.634-.963-1.752-2.5-1.124-4.293.184-.532-.743-2.075-1.263-2.127-2.889-.287-2.691-2.112-3.315-4.31-.565-1.986-.171-2.3,1.226-2.485a17.068,17.068,0,0,1,4.706.01c2.944.443,3.258.25,4.354-2.533a11.983,11.983,0,0,1,2.322-3.562,2.25,2.25,0,0,1,2.1-.153,57.129,57.129,0,0,1,6.766,4.213c.646.483.742,1.793.931,2.757.092.473-.423,1.148-.233,1.5a8.109,8.109,0,0,0,1.538,1.626c.4-.609,1.087-1.189,1.148-1.83.206-2.22.1-4.468.294-6.687.18-2,1.055-2.99,3.191-1.715a2.53,2.53,0,0,0,3.288-.56,5.158,5.158,0,0,1,1.374-.812c.9-.446,1.81-.861,2.718-1.287-.938-.117-1.872-.31-2.814-.336-2.565-.07-3.495-1.2-2.584-3.523,1.07-2.728,1.515-5.325-.1-8.048-.258-.435.309-1.738.861-2.176.8-.636,2.023-.713,2.909-1.275a28.293,28.293,0,0,0,2.933-2.429,21.012,21.012,0,0,1,3.033-2.507c1.507-.847,2.022,1.387,2.809,1.4,2.889.032,3.855,3.735,6.833,3.283a.75.75,0,0,1,.388.1c1.314.619,1,3.693,3.23,2.584a5.7,5.7,0,0,1,4.563-.248c.337.1,1.03-.005,1.111-.2,1.089-2.647,3.164-1.681,5.062-1.476,1.7.185,2.506-.367,2.9-2.327.851-4.261,4.261-5.156,7.511-2.272a2.713,2.713,0,0,0,1.676.846c1.53-.156,2.694-.146,2.609,1.891-.007.181.81.523,1.253.539.223.008.658-.542.666-.851.042-1.325-.1-2.657-.062-3.983.069-2.394,1.268-3.048,3.357-1.881,1.042.582,2.4.953,3.042,1.835,2.6,3.562,6.32,2.971,9.862,2.837a22.924,22.924,0,0,0,5.9-1.06c2.351-.735,4.307-1.886,4.6-4.887.307-3.117,4.646-4.746,7.293-2.943.55.374,1.02.862,1.537,1.288.913.755.956.94-.371,1.381-2.181.726-2.153,1.426-.25,2.8,1.225.884,2.411,1.646,4.033.755a4,4,0,0,1,2.33-.433,3.55,3.55,0,0,0,4.045-1.8,5.239,5.239,0,0,1,2.634-1.649c.941-.351,2.028-.144,2.079,1.139.117,2.98,2.815,2.48,4.412,3.1a5.232,5.232,0,0,0,5.672-.872A6.488,6.488,0,0,1-262.169,220c1.173.372,2.114.431,2.822-.639.794-1.2-.025-1.934-.835-2.73a4.79,4.79,0,0,1-.7-1.532c.572.186,1.52.225,1.659.581,1.611,4.124,5.119,4.038,8.726,4.629,2.793.458,5.357,1.418,8.128.121a1.7,1.7,0,0,1,1.52.148c3.063,2.891,6.06-.357,9.085-.077.255.023.693-.661.854-1.087,1.849-4.911,2.517-5.2,7.338-4.723,1.882.188,3.183-.052,3.423,2.54.143,1.557,2.109,1.887,3.667,1.334,2.245-.8,4.179-1.109,6.3.742,1.564,1.367,3.136.629,4.255-1.285a39.8,39.8,0,0,1,2.847-4.812c1.262-1.585,2.189-1.179,2.82.869a7.478,7.478,0,0,0,1.131,1.747,7.451,7.451,0,0,0,2.124-1.545,3.634,3.634,0,0,0,.279-2.339c-.4-2.718,1.238-3.944,3.4-4.7a31.076,31.076,0,0,1,4.273-1c.914-.178,1.995.029,2.758-.384,4.261-2.3,8.046-.805,11.8,1.257.465.255,1.133.492,1.284.894a19.69,19.69,0,0,1,.656,3,14.912,14.912,0,0,1,3.614-1.127,35.691,35.691,0,0,1,7.135.248c1.141.171,2.129.983.728,2.572-1.337,1.517-.869,2.3,1.054,2.473,4.352.393,8.65,1.042,13.095.3,1.859-.312,2.855-.76,3.639-2.372a22.942,22.942,0,0,1,2.9-4.748c1.03-1.228,2.161-.77,2.337.889.1.945-.237,2.059,1.117,2.092a2.211,2.211,0,0,0,2.357-2.241c.074-.8-.013-1.611.044-2.411.186-2.654,1.862-4.3,4.427-3.944a57.578,57.578,0,0,1,8.137,1.788c2.007.587,2.208,2.075.916,4.3a6.093,6.093,0,0,0-.411,1.413,5.508,5.508,0,0,0,1.476.334,2.729,2.729,0,0,0,1.512-.487c1.75-1.429,3.355-1.978,5.182-.017.923.99,1.934.317,2.812-.455.911-.8,2.06-1.4.923-2.889-.71-.929-.476-1.7.681-2.2,2.8-1.2,5.535-2.589,8.385-3.662a7.816,7.816,0,0,1,6.471.238,14.97,14.97,0,0,0,8.11.755c1.48-.228,2.941-2.161,3.929-3.646,2.074-3.117,4.755-4.557,8.481-4.2,1.05.1,2.468.329,3.132-.215,3.379-2.758,7.246-1.186,10.858-1.382,2.017-.111,4.07.941,6.14,1.213a10.917,10.917,0,0,0,8.3-2.092,23.427,23.427,0,0,1,7.288-3.975c2-.56,4.453.035,6.6.564a7.314,7.314,0,0,0,3.785.424c1.486-.344,3.168.146,4.765.265,1.9.143,2.456,1.346,2.411,3.028-1.314.027-2.632-.018-3.929.129-.383.044-.98.634-.976.97a1.459,1.459,0,0,0,.926,1.05c1.924.414,3.389-.133,3.879-2.258a30.154,30.154,0,0,1,3.615.091c2.017.282,3.587,1.1,3.475,3.563a3.254,3.254,0,0,0,.406,1.911c.75,1.054.825,1.443-.668,1.7a23.381,23.381,0,0,0-4.555,1.495c-.383.153-.882.856-.794,1.139a1.72,1.72,0,0,0,1.158.946,5.354,5.354,0,0,0,2.354-.035,24.883,24.883,0,0,0,4.518-1.6c1.837-.919,2.394-2.688,2.642-4.649.471-3.726,1.941-4.61,5.288-3.063A20.754,20.754,0,0,1,.9,195.931c.51.4.817,1.126,1.367,1.386.765.362,2.206.834,2.423.549.914-1.2-.668-1.3-1.148-1.936a35.832,35.832,0,0,1-3.721-5.448c-.716-1.456.421-2.565,1.807-1.783,2.25,1.27,5.142.169,7.192,2.7,1.285,1.585,3.772.426,4.74-1.671a13.3,13.3,0,0,0,.429-1.906c.374-1.3.792-2.6,1.191-3.892a12.34,12.34,0,0,0,1.856,2.81,8.443,8.443,0,0,0,2.738,1.052c.007-.706.07-1.421.008-2.122-.161-1.81.879-3.052,2.978-3.433a10.674,10.674,0,0,1,8.323,2.1c2.881,2.116,5.162,3.256,8.452.446,2.465-2.106,6.29.114,6.556,3.337a4.506,4.506,0,0,0,.413,1.908c.676,1.114.186,1.292-.812,1.513a32.609,32.609,0,0,0-4.2,1.283c-.429.159-.725.676-1.082,1.028.455.431.995,1.3,1.347,1.226,2.446-.488,5.065-.784,7.191-1.941,1.221-.666,1.975-2.758,2.32-4.344.815-3.74,2-4.625,5.392-3.011A24.271,24.271,0,0,1,60.69,188.8a10.648,10.648,0,0,0,1.872,1.406,5.157,5.157,0,0,0,1.809.121,7.966,7.966,0,0,0-.809-1.532c-1.166-1.392-2.478-2.669-3.569-4.117a3.728,3.728,0,0,1-.614-2.27c.022-.455,1.007-1.3,1.074-1.252,2.1,1.426,4.813.378,7.028,2.171,1.7,1.376,4.426,1.9,6.731,2,2,.092,3.622.2,4.976,1.812,1.025,1.22,2.072,1,3.5.191a46.36,46.36,0,0,1,7.681-3.355c2.114-.738,4.391-1.532,5.756,1.53.31.7,1.814,1.137,2.8,1.2,2.312.159,7.4-3.805,7.6-6.105.156-1.805,1.013-2.154,2.471-2.475,2.465-.54,4.753-1.344,7.179.5,1.629,1.24,3.679.636,5.263-.557a7.158,7.158,0,0,1,5.278-1.47c3.565.383,7.124.836,10.689,1.243a21.542,21.542,0,0,1,2.772.245,6.946,6.946,0,0,1,3.144,1.238c1.651,1.643,2.876,1.414,4.865.352,2.671-1.428,5.748-2.109,8.667-3.057A3.341,3.341,0,0,1,161,177.982c1.807,2.293,3.322,2.268,5.944.646a30.017,30.017,0,0,0,3.98-2.662c.441-.381.31-1.421.441-2.159a13.532,13.532,0,0,0-2.2-.136c-.332.03-.612.487-.941.713-2.471,1.71-2.7,1.627-4.649-.765-.966-1.189-2.527-1.919-2.131-3.938.258-1.319.518-2.441,2.1-2.364,1.3.064,1.344,1.008,1.161,2.054-.268,1.532.815,1.9,1.948,1.876,3.438-.087,6.872-.384,10.31-.4a8.113,8.113,0,0,1,3.745.886,5.93,5.93,0,0,0,5.409.364c5.451-2.361,10.982-1.258,16.515-.547a9.888,9.888,0,0,0,2.74.349,3.762,3.762,0,0,1,3.884,1.47c1.2,1.46,2.4,1.411,4.2.58a85.254,85.254,0,0,1,9.459-3.223c1.436-.468,2.382-.091,3.392,1.225,1.96,2.552,3.411,2.663,6.192,1.065a21.154,21.154,0,0,0,3.731-2.324c.505-.455.391-1.6.555-2.426a7.419,7.419,0,0,0-2.193.086c-.587.2-.968,1.037-1.554,1.208a4.77,4.77,0,0,1-2.7.149c-1.641-.574-3.657-4.968-3.3-6.726.272-1.344,3.495-3.094,4.865-2.577a1,1,0,0,1,.282.924c-.25.609-.725,1.124-1,1.726-.809,1.757-.225,2.862,1.47,2.4,1.965-.539,3.666.361,5.391.349,3.741-.029,7.424-1,10.9,1.46.629.446,2.413-.2,3.342-.817,2.763-1.84,5.553-1.589,8.469-.654a14.431,14.431,0,0,0,3.48.921c.787.044,2.085-.364,2.327-.924.73-1.7,1.921-1.945,3.52-2a17.943,17.943,0,0,0,3.033-.859,10.97,10.97,0,0,1,3.082-.445c2.5.166,4.99.592,7.494.748a3.85,3.85,0,0,0,1.923-.789c-.8-2.636,1.054-2.877,2.809-3.293a2.195,2.195,0,0,0,1.357-.77c1.616-3.074,3.869-2.743,6.442-1.408a3.835,3.835,0,0,0,2.32.527c3.381-.747,6.885.9,10.232-.622a3.181,3.181,0,0,1,2.339-.01c3.084,1.387,5.793.5,8.3-1.27,1.121-.792,1.7-1.183,2.241.492.193.6,1.1,1.416,1.624,1.376,5.4-.409,10.8-.916,16.185-1.559.871-.1,1.79-1.569,2.429-1.406.815.21,1.235,1.646,2.067,2.179,1.564,1,3.32,1.616,4.193,3.55a2.621,2.621,0,0,0,2.372.815,44.459,44.459,0,0,0,5.934-2.421,1.533,1.533,0,0,0,.471-1.191c-.73-.612-1.849-1.233-.451-2.027a3.877,3.877,0,0,1,2.958-.094,6,6,0,0,1,2.387,2.1c1.107,1.525,2.072,1.9,4,1.039,1.911-.856,4.057-1.067,5.756-2.59a4.228,4.228,0,0,1,2.993-.866c4.52.547,8.724-1.122,13.088-1.57a7.913,7.913,0,0,1,4.568.691c2.82,1.676,5.134.631,7.545-.651.347-.185.923-.515.9-.735-.331-3.673,2.631-2.654,4.491-3.206,2.426-.72,4.825-1.492,7.211.2a1.806,1.806,0,0,0,1.545.1c2.605-1.278,5.246-.438,7.9-.393,1.914.034,3.574-.035,5.2,1.33a4.275,4.275,0,0,0,3.412.6c2.589-.74,4.394.3,6.127,1.928.29.272.638.482.948.733,2.978,2.394,4.087,2.171,5.887-.992a18.76,18.76,0,0,1,2.753-3.894c1.231-1.25,2.017-.783,2.533,1.114a8.1,8.1,0,0,0,1.038,1.81,20.491,20.491,0,0,0,2.178-1.488c.237-.206.168-.758.25-1.149.294-1.4.129-3.374.993-4.07a14.217,14.217,0,0,1,5.474-2.265c2.309-.57,4.714-.728,7.073-1.1,3.829-.6,6.944,1.3,9.5,3.535a8.318,8.318,0,0,0,6.14,2.1,16.933,16.933,0,0,1,5.1.718c1.151.362,2.218,1.3.544,2.622-.418.329-.825,1.428-.663,1.587a4.284,4.284,0,0,0,1.976,1.018,20.269,20.269,0,0,0,3.8.56c3.444.133,6.9.294,10.333.124.738-.035,1.512-1.344,2.09-2.188.9-1.32,1.555-2.824,2.527-4.084a3.087,3.087,0,0,1,2.052-.768c.185-.015.428,1.049.7,1.59.31.624.678,1.216,1.022,1.824.742-.475,1.82-.789,2.141-1.461a9.714,9.714,0,0,0,.367-3.147c.253-2.725,1.929-4.115,4.612-3.55a62.674,62.674,0,0,1,7.288,2.02c1.953.664,2.179,2.267.869,4.384a7.78,7.78,0,0,0-.537,1.391,4.922,4.922,0,0,0,1.8.393,9.027,9.027,0,0,0,2.2-.929c2.354-1.129,2.637-1.069,3.565,1.6.277.8.213,1.334,1.124.575,1.028-.856,2.131-1.629,3.11-2.535.319-.294.641-1.062.482-1.32-1.53-2.5.129-2.762,2-3.374,2.382-.778,4.59-2.075,6.927-3.015,2.139-.859,4.07-1.248,6.29.549,3.089,2.5,9.555,1.512,11.751-1.728,2.668-3.936,6.041-5.461,10.655-4.587a3.97,3.97,0,0,0,2.362-.2c4.943-2.495,9.712-1.139,14.651.163,3.612.953,7.337,1.052,10.88-1.1a42.949,42.949,0,0,1,8.655-4,8.364,8.364,0,0,1,7.285,1.31,1.86,1.86,0,0,1,.617,1.354,7.183,7.183,0,0,1-.418,1.812c.591-.495,1.218-.953,1.765-1.491,1.668-1.646,6.555-1.824,8.023-.138.226.26-.168,1.57-.572,1.758-.807.374-1.854.2-2.733.466-.515.158-.9.742-1.342,1.134.513.351,1.06,1.032,1.533.985,1.148-.112,2.245-.636,3.389-.862a17.174,17.174,0,0,1,4.966-.69,2.747,2.747,0,0,1,2.491,3.1,5.185,5.185,0,0,0,.747,2.881c.8,1.231-.163.906-.691,1.025-1.69.381-3.4.683-5.057,1.173-.5.149-.854.812-1.275,1.24.507.386,1.067,1.153,1.513,1.09a45.37,45.37,0,0,0,6.588-1.312c2.468-.726,3.476-2.572,3.609-5.157.1-1.956,2.256-3.728,3.849-3.08,2.154.877,4.661,1.309,6.046,3.662a8.2,8.2,0,0,0,2.555,2.357c.4.27,1.156.02,1.748.007a6.417,6.417,0,0,0-.685-1.512,58.12,58.12,0,0,1-3.938-4.78c-.461-.716-.092-1.968-.1-2.976.864.1,1.733.174,2.592.31a16.05,16.05,0,0,1,2.642.544,8.862,8.862,0,0,1,2.7,1.27c3.8,3.053,6.073,2.213,7.511-2.221a12.814,12.814,0,0,1,.522-1.508c.366-.777.8-1.523,1.2-2.283.426.74.846,1.48,1.277,2.216.331.565.547,1.324,1.042,1.643a17.547,17.547,0,0,0,2.869,1.242c-.077-.876-.1-1.758-.24-2.622-.325-2,.8-3.3,3.181-3.533a13.269,13.269,0,0,1,9.66,3.09c2.914,2.314,5.479,3.636,8.875.876,1.384-1.126,6.026.029,6.941,1.626.487.852-.139,2.282.223,3.275.872,2.387-.253,2.558-2.179,2.543a10.4,10.4,0,0,0-3.5.864c-.517.19-.887.775-1.324,1.181a12.856,12.856,0,0,0,1.456,1.243,1.729,1.729,0,0,0,1.159.24c2.6-.537,5.325-.809,7.729-1.829a4.828,4.828,0,0,0,2.866-4.057c.3-2.938,2.488-4.008,5.089-2.76,2.149,1.03,4.443,1.861,5.432,4.449.28.73,1.344,1.282,2.168,1.646a5.943,5.943,0,0,0,2.1.107c-.347-.54-.658-1.107-1.049-1.614a46.758,46.758,0,0,1-3.745-4.927c-.4-.7.059-1.986.384-2.916a5.712,5.712,0,0,1,2.149.225c1.117.262,2.209.627,3.31.958.628.19,1.453.21,1.84.627,2.944,3.176,6.83,3.766,10.828,4.2,2.807.305,3.768,2.689,4.924,4.76.238.428.054,1.07.2,1.577.089.314.428.557.654.832.252-.255.755-.559.716-.758-.638-3.332,1.753-3.785,4.033-4.144,3.032-.478,6.093-.777,9.147-1.116a3.3,3.3,0,0,1,3.825,2.048c1.252,2.471,3.528,3.018,6.2,2.173,1.4-.443,2.763-1.049,4.188-1.4,1.686-.419,3.037-1.161,3.485-2.929.433-1.7,1.585-1.79,3.067-1.817,3.105-.054,6-.077,8.474,2.47,1.349,1.386,3.475.814,5.375.361a10.678,10.678,0,0,1,5.03-.336c4.339,1.2,8.573,2.8,12.823,4.305a2.656,2.656,0,0,1,1.468,1.252c1.129,2.762,2.85,2.468,5.154,1.48a19.687,19.687,0,0,1,5.483-1.146c2.142-.248,4.221-.471,5.172,2.433.534,1.629,2.255,2.228,4.05,1.4a25.851,25.851,0,0,0,4.285-2.154c.532-.383.485-1.572.7-2.394-.737-.008-1.689-.314-2.166.032-1.307.953-2.545,1.748-3.839.25-1.621-1.879-2.111-5.692-.94-7.058a2.018,2.018,0,0,1,1.716-.55,1.67,1.67,0,0,1,.661,1.513c-.945,2.189.4,2.493,2.025,2.837,2.715.574,5.265,1.866,8.229,1.277.8-.159,1.95.728,2.731,1.382a4.459,4.459,0,0,0,4.483,1.082c4.83-1.711,9.18.448,13.672,1.48a30.569,30.569,0,0,1,3.788,1.119,3.656,3.656,0,0,1,1.934,1.2c1.208,2.243,2.5,2.454,4.875,1.379s5.167-1.237,7.786-1.75a2.8,2.8,0,0,1,3.268,1.6c1.918,3.181,2.362,3.2,5.741,1.476a19.177,19.177,0,0,0,3.471-1.961c.458-.374.391-1.393.564-2.117a6.817,6.817,0,0,0-2.169-.133c-.591.156-1.022,1.054-1.589,1.129-.859.112-2.493-.069-2.548-.362-.414-2.178-2.827-3.59-2.2-6.169.364-1.485.9-2.51,2.555-2.533.787-.012,1.574.032,2.361.05-.31.669-.614,1.346-.935,2.01-.987,2.047-.658,2.582,1.54,2.793a28.591,28.591,0,0,1,3.4.676c.253.055.485.336.721.329,3.507-.1,6.974-.319,9.88,2.394.47.438,2.159.015,3.008-.482,2.792-1.631,5.382-1.082,8.031.247a10.986,10.986,0,0,0,2.981,1.164c.641.107,1.829-.21,2-.644.7-1.74,2.151-1.453,3.5-1.948,4.067-1.491,7.813.171,11.684.537,1.381.131,2.738.421,2.921-1.661.047-.544.612-1.411,1.052-1.488,2.092-.367,3.535-1.589,5.087-2.911.619-.527,2.354-.253,3.305.215,2.127,1.045,4.359.968,6.565,1.362,3.919.7,7.853-.869,11.809.71,1.449.579,3.84-.638,5.567-1.5,1.24-.621,1.674-1.072,2.117.638a2.56,2.56,0,0,0,1.879,1.533c5.042-.054,10.081-.275,15.118-.517a9.657,9.657,0,0,0,2.134-.695,12.162,12.162,0,0,1,1.215-.247c.211,2.2,2.4,2.277,3.621,3.4a5.464,5.464,0,0,1,1.475,1.817c.7,1.8,2,2.037,3.579,1.564,1.537-.46,3.05-1.01,4.547-1.592,1.114-.435,2.679-.8.7-2.292-.174-.131.232-1.488.356-1.486a7,7,0,0,1,3.275.435,8.348,8.348,0,0,1,2.359,2.7c.817,1.228,1.639,1.387,3.033.841,2.2-.857,4.714-.693,6.694-2.413a4.127,4.127,0,0,1,3.065-.549c4.337.789,8.538-.336,12.777-.748a7.636,7.636,0,0,1,5.652,1.236,6.164,6.164,0,0,0,8.731-2.309,2.692,2.692,0,0,1,1.577-1.324c2.223-.418,4.484-.631,6.733-.913.263-.032.6-.129.789-.012,4.587,2.916,9.867.463,14.64,1.9.5.149,1.231.013,1.51.322,2.261,2.493,5.1,2.557,8.15,2.3.763-.064,1.634.7,2.389,1.179.431.273.69.805,1.1,1.132,4.847,3.909,4.832,3.889,8.934-.83a12.19,12.19,0,0,1,2.715-2.364c1.443-.889,2.142-.317,2.389,1.574a8.238,8.238,0,0,0,.778,1.934c.925-.394,2.091-.569,2.7-1.245a4.874,4.874,0,0,0,.646-2.674,3.431,3.431,0,0,1,2.99-3.283,20.308,20.308,0,0,1,3.542-.685c3.33-.158,6.669-.2,10-.253,3.793-.062,6.4,2.478,9.315,4.328.31.2.737.711.664.935-1.126,3.485.849,2.173,2.731,2.119a28.89,28.89,0,0,1,7.924,1.08c2.5.646,2.57,1.461.807,3.466-.923,1.05-.72,2.127.636,2.386,5.458,1.044,10.687,3.354,16.354,3.152a5.58,5.58,0,0,0,2.985-1.56c1.309-1.131,2.317-2.612,3.646-3.713a3.412,3.412,0,0,1,2.55-.639c1.34.284.7,1.362.584,2.282-.06.458.627,1.468.839,1.431a5.4,5.4,0,0,0,2.805-1.038c.574-.565.555-1.73.794-2.631.73-2.783,2.637-4.084,5.365-3.157a60.054,60.054,0,0,1,8.385,3.664c2.038,1.062,1.961,2.7.144,4.3a8.77,8.77,0,0,0-1.092,1.439,5.169,5.169,0,0,0,1.73.679,7.055,7.055,0,0,0,2.738-.5,2.624,2.624,0,0,1,3.536.789c1.193,1.51,2.611,1.493,4.308.768,1.178-.5,1.877-.911,1.28-2.309-.478-1.119,0-1.75,1.193-1.973,3-.56,5.973-1.282,8.989-1.72a7,7,0,0,1,6.5,1.814c1.845,1.716,5.025,2.371,7.7,2.666,1.367.151,3.193-1.26,4.362-2.418,2.9-2.876,6.076-3.679,9.9-2.28a4.98,4.98,0,0,0,2.738.408c5.171-1.374,9.449.673,13.895,2.933,3.062,1.557,6.485,2.293,10.07.753a30.252,30.252,0,0,1,8.382-2.436,9.877,9.877,0,0,1,5.63,1.555,11.04,11.04,0,0,0,5.09,1.807c1.651.117,3.26,1.127,4.825,1.872a1.467,1.467,0,0,1,.527,1.32,1.546,1.546,0,0,1-1.129.891c-1.057.069-2.131-.146-3.194-.124a1.113,1.113,0,0,0-.8.708c-.06.3.227.955.428.981a21.409,21.409,0,0,0,3.771.26c1.4-.06,2.84-.638,4.186-.448a3.273,3.273,0,0,1,3.013,3.235,4.183,4.183,0,0,1-3.414,4.432,8.945,8.945,0,0,0-1.577.3,20.374,20.374,0,0,0-2,1.035c.649.575,1.3,1.634,1.948,1.636a20.812,20.812,0,0,0,6.328-.7c1.973-.634,2.9-2.436,3.436-4.577.579-2.314,2.71-2.891,4.7-1.538,1.633,1.111,3.445,2.054,3.968,4.312a4.628,4.628,0,0,0,1.683,2.126c.386.322,1.116.23,1.693.324a15.523,15.523,0,0,0-.542-1.641c-.918-2.01-1.97-3.966-2.74-6.028a2.619,2.619,0,0,1,.737-2.052c.191-.218,1.283.065,1.738.414,1.8,1.386,4.267,1.391,5.733,3.8,1.384,2.27,4.233,1.406,5.671-1.381a37.529,37.529,0,0,0,1.307-3.763c.109-.287.575-.651.824-.612a1.225,1.225,0,0,1,.767.755c.317,1.012.428,2.1.824,3.069a1.646,1.646,0,0,0,1.314.708c.4-.008,1.137-.532,1.131-.812-.049-1.845.666-3.493,2.453-3.545a12.259,12.259,0,0,1,5.634,1.344,17.168,17.168,0,0,1,4.2,3.58c2.107,2.161,3.777,2.577,6.677,1.2,2.01-.956,3.681-.039,5.241.908,1.388.839,1.273,2.2,1.173,3.835-.146,2.387-.809,3.288-3.179,3.018a5.294,5.294,0,0,0-2.36.418,5.465,5.465,0,0,0-1.352,1.107c.451.458.893,1.3,1.352,1.309a26.346,26.346,0,0,0,6.707-.324,5.158,5.158,0,0,0,3.879-4.528c.436-2.463,2.766-3.186,4.867-1.753,1.632,1.114,3.4,2.072,3.978,4.308a5.312,5.312,0,0,0,2.008,2.355c.356.28,1.141.017,1.73,0-.193-.49-.347-1-.584-1.468-1.038-2.048-2.2-4.043-3.089-6.154-.223-.53.242-1.518.676-2.07.159-.2,1.161.218,1.762.411,3.666,1.178,5.862,4.718,9.519,5.922.755.248,1.456.674,2.221.871,3.394.871,4.862,2.634,5.008,6.008a7.442,7.442,0,0,0,.495,1.708c.314-.48.968-1.032.884-1.428-.466-2.2.889-2.971,2.567-3.329a50.684,50.684,0,0,1,6.349-.945c2.424-.2,4.857-.33,5.773,2.859.2.708,1.307,1.346,2.132,1.649,1.793.661,7.889-1.842,9-3.466.627-.913,1.376-2.434,2.109-2.456,2.183-.069,4.714-1.109,6.552.775,2.309,2.367,4.615,2.446,7.654,1.418,1.673-.565,3.922.1,5.776.651,3.429,1.027,6.706,2.572,10.15,3.516,1.653.453,3.017.787,3.8,2.456.745,1.584,1.906,1.976,3.63,1.2a22.442,22.442,0,0,1,4.629-1.315c3.163-.659,3.812-.354,5.62,2.513.776,1.228,1.714,1.671,3.01.869a36.681,36.681,0,0,0,3.954-2.651c.327-.268.263-1.235.087-1.79-.072-.23-.95-.388-1.391-.284-.988.233-2.61,1.144-2.782.909a9.47,9.47,0,0,1-1.731-3.864,8.929,8.929,0,0,1,.594-3.485c.054-.2.658-.336,1.017-.356.169-.008.54.359.513.493-1.043,5.043,3.493,3.964,5.664,4.547,2.471.661,5.167.111,7.34,2.25.6.591,2.272.117,3.451.094,2.646-.052,5.34-.48,7.922-.111a82.146,82.146,0,0,1,10.435,2.5,4.21,4.21,0,0,1,2.077,1.683c1.228,1.824,2.444,1.688,4.412.955a58.677,58.677,0,0,1,8.95-2.037c1.46-.294,2.411.257,3.282,1.617,1.787,2.8,2.929,3.02,6.035,1.758a34.507,34.507,0,0,0,4.721-2.154c.49-.292.517-1.354.755-2.064a5.694,5.694,0,0,0-2.171-.406c-.726.161-1.3.919-2.018,1.243a2.717,2.717,0,0,1-3.9-1.438c-.512-1.6-2.57-2.24-2.1-4.486.544-2.614,3.132-4.389,5.511-3.171.186.1.247.616.2.914-.03.223-.4.381-.485.616-.327.933-.6,1.886-.894,2.83.881.2,1.757.421,2.644.586,1.151.213,2.3.408,3.466.56,1.82.24,3.721.849,5.448.535,1.659-.3,2.913-.169,4.02.931a6.667,6.667,0,0,0,7.79,1.441c3.525-1.45,6.823-.79,10.132.586,1.114.463,2.208.98,3.344,1.384,1.787.639,3.518,1.364,4.9-.948.347-.581,1.844-.587,2.827-.651,1.973-.126,3.954-.159,5.931-.136a17.594,17.594,0,0,1,3.938.334c3.74.916,7.437,2,11.167,2.97,1.059.273,2.3.466,2.371-1.178.085-1.857,1.4-1.75,2.575-1.666a10.848,10.848,0,0,0,6.562-1.191,5.161,5.161,0,0,1,5.709.627c2.877,2.154,6.286,2.7,9.62,3.73,4,1.228,8.323,1.238,12.117,3.5,1.463.872,3.859.2,5.828.21.619,0,1.78-.136,1.783-.116.438,4.233,4.429,3.122,6.751,4.208,2.186,1.023,4.927.931,7.441,1.178,3.656.357,6.572,1.953,7.6,5.515.675,2.327,1.809,2.694,3.775,2.287.916-.19,1.832-.4,2.743-.609,1.059-.248,1.661-.685,1.223-1.978-.141-.414.418-1.522.661-1.522a3.869,3.869,0,0,1,2.065.679c.384.262.468.938.74,1.4.592,1,1.069,2.662,1.862,2.839a7.3,7.3,0,0,0,4.659-.5,7.614,7.614,0,0,1,5.748-.577c1.777.4,3.728.027,5.6,0,.663-.01,1.532-.289,1.953.027,1.741,1.3,3.008,2.146,2.152-1.169,1.812-.617,4.047-2.22,5.354-1.659,3.337,1.431,6.828.478,10.09,1.5a12.511,12.511,0,0,1,2.6.616c5.3,3.132,10.538,2.3,15.814,0,.359-.156,1.052-.23,1.223-.029,1.76,2.055,3.4,4.211,5.184,6.248a2.051,2.051,0,0,0,1.751.622c2.127-.9,5.047-.393,5.842-3.761.359-1.523,1.916-.624,2.241.341.686,2.037,2.34,2.2,3.968,2.869,2.377.978,2.914-2.367,4.142-1.79,1.31.617,2.1,2.327,4,1.569.748-.3,1.488-.624,2.258-.852,2.713-.805,4.615.149,5.694,2.814.929,2.292,1.287,2.607,3.409,1.5,1.694-.879,2.938-1.1,4.2.507a1.222,1.222,0,0,0,1.059.4c3.06-1.347,4.917.617,7.167,2.171a6.925,6.925,0,0,0,6.914.668,22.462,22.462,0,0,1,3.335-1.389,6.53,6.53,0,0,1,3.483-.307c.653.223.666,1.926,1.354,2.517,2.194,1.886,4.37,3.985,6.937,5.182,2.059.963,4.683.688,7.04,1.054a13.782,13.782,0,0,1,4.092.992,4.775,4.775,0,0,0,4.5.438,18.934,18.934,0,0,1,5.879-1.121c2.765-.188,3.741.641,4.786,3.392a3.77,3.77,0,0,0,.529,1.08c.915,1.092,2.565,2.111,2.621,3.223s-1.4,2.35-2.33,3.423c-.894,1.035-.832,1.386.589,1.636,2.654.463,3.995,1.928,4.3,4.852.327,3.112,4.367,5.671,7.431,5.265a.832.832,0,0,0,.378-1.594c-.68-.411-1.493-.6-2.156-1.033-.4-.257-.958-.978-.852-1.176,1.141-2.144.149-2.839-1.849-3.139-.23-.034-.587-1.2-.409-1.649a4.818,4.818,0,0,1,6.842-2.433c1.426.708,2.981,1.154,4.428,1.827,1.132.527,2.188,1.22,3.278,1.837-.81.814-1.651,1.6-2.424,2.446a17.344,17.344,0,0,0-2.752,3.267c-1.119,2.117-.938,2.664,1.446,3.537,1.654.606,1.545.874.448,2.015-.9.936-1.247,3.069-2.106,3.228-1.347.25-2.8-.2-4.2.656-.3.185-1.314-.549-1.845-1.03-1.059-.956-1.9-.75-2.715.26-.919,1.144-1.872,2.267-2.716,3.464a7.185,7.185,0,0,0-.648,1.741,6.344,6.344,0,0,0,1.85.466c2.835-.171,2.958-.156,1.95,2.275-.629,1.518-.527,2.381.938,3.312,2.042,1.3,1.84,3.3,1.2,5.35a27.362,27.362,0,0,0-1.169,4.6c-.228,1.8.1,3.372,2.161,4.251a6.2,6.2,0,0,1,2.438,2.51,2,2,0,0,1-.513,1.879c-2.092.787-1.2,1.174.092,1.694,1.379.552,2.053,2.708,4.119,1.78.178-.079.867.394.889.646.212,2.572,2.06,5,.812,7.681-.686,1.476-.069,2.3.8,3.51,2.317,3.235,5.993,4.085,9.155,5.84.906.5,1.317.955,0,1.488-.567.23-1.56.731-1.518.935.465,2.235-1,2.6-2.558,2.594-1.691,0-3.676,1.508-5-.968-.745-1.386-1.431-.854-1.736.419a4.208,4.208,0,0,1-.238,1.153c-.475.8-1.045,1.543-1.579,2.309,1.018.143,2.057.2,3.052.445,1.777.43,3.433,1.325,5.422.581.44-.164,1.3,1.231,2.11,1.532,1.867.695,3.815,1.184,5.743,1.711,3.09.846,3.809,2.659,2.32,5.775-.149.312,0,1.119.193,1.191,3.646,1.335,2.478,4.594,2.7,7.144a3.378,3.378,0,0,1-2.045,2.473,5.535,5.535,0,0,0-3.911,3.609c-.753,1.82-2.787,3.025-1.829,5.61.337.908-3.716,2.54-5.578,1.881-3.746-1.329-7.429-.586-11.123-.049a7.55,7.55,0,0,0-2.916,1.216,2.025,2.025,0,0,0-.8,2.735c1.537,4.189,4.266,5.739,8.608,4.55.641-.176,1.235-.688,1.861-.708a8.068,8.068,0,0,1,2.162.525c-.525.391-1,1-1.584,1.132-1.418.329-2.681.4-1.731,2.5.768,1.7-.138,3.174-1.631,4.1-1.428.882-2.819.376-4.146-.46a8.744,8.744,0,0,0-3.085-1.642c-2.6-.336-4.266,1.151-5.015,3.886-.334,1.223-.26,2.579-1.881,3.27-2.617,1.116-3.463,3.864-2.417,6.578.76,1.973,1.419,3.986,2.074,6a2.161,2.161,0,0,1-1.285,2.948c-.77.364-2,1.045-1.985,1.562.067,2.906-1.8,4.612-3.49,6.5-1.362,1.522-1.22,2.04.513,2.963q1.766.939,3.53,1.879c.314,1.8.547,3.616.983,5.382.148.594.81,1.062,1.236,1.587.512-.534,1.292-.983,1.487-1.614.913-2.939-.339-4.582-3.817-5.248,2.048-2.05,2.748-5.161,5.374-6.786.332-.206.428-.983.429-1.5.015-3.387,2.176-5.677,4.134-8.033,1.592-1.914,2.941-1.569,4.271.782a3.6,3.6,0,0,0,1.689,1.393c1.765.725,2.067,1.96.668,2.99-1.817,1.335-1.379,2.51-.562,4.1,1.694,3.285,2.252,6.669-.255,9.818a14.718,14.718,0,0,1-3.669,3.416c-2.349,1.436-2.528,1.584-.554,3.706,1.317,1.416,2.407,2.842,2.288,4.907a4.926,4.926,0,0,0,.252,1.584,3.135,3.135,0,0,1-1.683,3.726,8.2,8.2,0,0,0-1.5,1.248c-1.626,1.344-3.213,2.745-4.921,3.978-.393.282-1.208,0-1.825-.052a13.127,13.127,0,0,0-3.518-.272,12.049,12.049,0,0,0-3.077,1.6,26,26,0,0,0,2.371,1.627,6.89,6.89,0,0,1,2.944,9.239,1.5,1.5,0,0,1-2.29.8,46.356,46.356,0,0,1-4.83-2.8c-2.842-2.038-5.547-1.478-7.2,1.668-.186.356-.282.76-.48,1.106-1.268,2.223-2.305,2.213-3.713-.037-.211-.339-.322-.738-.522-1.085-1.258-2.184-2.889-2.278-4.122-.18a17.015,17.015,0,0,0-1.5,3.26c-.785,2.379-.267,2.923,2.211,3.72,2.253.723,4.263,1.849,6.753.4,1.062-.617,1.867.629,2.032,1.834a1.824,1.824,0,0,1-1.631,2.29c-3.12.723-6.139.091-9.105-.693a8.522,8.522,0,0,0-7.8,1.768,4.408,4.408,0,0,1-3.062,1.3c-3.164.013-3.931.889-4.508,4.285-.527,3.1-.8,3.414-3.842,2.7-1.8-.423-2.637.279-2.909,1.753-.237,1.273.284,2.862-1.765,2.949-2.24.1-4.654.676-6.238-1.653a16.661,16.661,0,0,1-1.074-2.149c-.861-1.785-2.611-1.854-4.141-1.741-.51.039-1.309,1.565-1.288,2.394.077,3.109-.418,4.144-3.389,4.325a2.568,2.568,0,0,0-2.563,1.963c-.935,2.253-2.434,3.161-5.073,3.644-3.854.7-7.493,2.639-11.174,4.167-.475.2-.659,1.1-.973,1.676-1.277,2.335-1.943,2.329-3.406-.055-.28-.455-.4-1.07-.785-1.386a8.545,8.545,0,0,0-2.966-1.966c-.805-.2-1.9.411-2.77.857a28.644,28.644,0,0,1-10.286,2.7,7.49,7.49,0,0,1-5.52-1.782c-1.408-1.466-2.371-1.188-3.757-.689-.377.136-.787.186-1.156.339-4.939,2.035-6.206,1.718-10-2.392a2.548,2.548,0,0,0-1.609-.911c-5.048.216-10.016-1.52-15.135-.421a12.044,12.044,0,0,1-5.552-.47,25.7,25.7,0,0,0-13.868.223,8.4,8.4,0,0,1-5-.282c-2.411-.993-5.451-.668-7.212-3.193-.195-.279-.97-.319-1.425-.225a19.629,19.629,0,0,1-12.131-1.307c-1.455-.639-1.968-.013-2.2,1.268-.1.527.015,1.221-.285,1.554a17.613,17.613,0,0,1-2.267,1.844,7.473,7.473,0,0,1-1.408-2c-.647-2.3-.532-2.231-2.624-1.294a8.577,8.577,0,0,1-2.924.393c-.517.034-1.241-.374-1.538-.148-3.173,2.429-5.376-.25-7.911-1.359-3.293-1.443-6.617-2.834-9.991-4.077a3.961,3.961,0,0,0-2.411.485,54.02,54.02,0,0,1-5.117,2.235c-2.275.651-3.134-.1-3.587-2.372-.168-.835-.381-2.146-.9-2.335a13.915,13.915,0,0,0-5.251-1.059c-2.76.134-5.5,1.186-8.234,1.136-3.657-.069-6.746-1.528-7.754-5.62-.122-.5-.839-1.236-1.267-1.226-4.08.082-7.8-3.142-12.118-1.2-1.179.53-2.146.044-1.127-1.606.778-1.257.315-2.02-1.248-1.986-.53.012-1.247.111-1.565-.178-3.547-3.193-5.312.128-7.365,2.03-1.815,1.683-1.731,1.767-2.827-.369-.426-.832-.688-1.923-1.372-2.408a7.234,7.234,0,0,0-3.163-1,3.327,3.327,0,0,0-1.884.612c-3.792,2.241-7.717.924-11.583.43-3.607-.461-7.176-1.221-10.781-1.7a3.877,3.877,0,0,0-3.86,1.622c-2.342,3.159-4.545,3.657-7.615,1.273a4.18,4.18,0,0,0-4.4-.723c-.763.253-1.5.57-2.272.817-3.538,1.144-3.526,1.129-5.86-1.849a5.135,5.135,0,0,0-1.713-1.644c-.878-.376-2.208-.81-2.832-.414-.934.594-.9,1.834.111,2.75a2.914,2.914,0,0,1,.47.945c-.466-.059-1.111.06-1.371-.2-1.8-1.82-3.676-1.668-5.879-.735a24.373,24.373,0,0,1-6.458,1.9c-1.627.195-3.372-.44-5.035-.834-.238-.057-.393-.841-.431-1.3-.218-2.617-1.317-3.486-3.751-2.765a27.646,27.646,0,0,0-3.344,1.384c-1.931.862-3.906,1.183-5.776.008-1.948-1.22-3.139-.736-4.218,1.194a3.838,3.838,0,0,1-2.245,1.486,2.618,2.618,0,0,1-2.164-.508c-.315-.31-.164-1.493.186-2.007,1.206-1.763.24-2.594-1.27-2.832a63.861,63.861,0,0,0-7.917-.737c-1.424-.045-2.78.7-2.617,2.382.242,2.485-1.785,2.418-3.117,2.862-1.914.638-4.032.918-5.713-.609a2.923,2.923,0,0,1-.379-2.193c.208-1.575-.794-2.023-1.9-1.879a13.341,13.341,0,0,0-4.979,1.314c-1.864,1.106-3.215,1.032-4.592-.508a9.2,9.2,0,0,0-9.442-2.912,2.754,2.754,0,0,1-1.886-.076c-2.02-1.431-3.431-1.463-3.985,1.322a31.8,31.8,0,0,1-6.033,1.339c-1.193.044-1.032-1.26-.374-2.149.584-.792,1.741-1.7,1.617-2.371-.31-1.658-2.005-1.431-3.31-1.517a12.179,12.179,0,0,0-2.8.037c-1.371.235-2.319.639-2.28,2.572.065,3.3-.8,3.765-4.146,3.313-2-.268-4.087-.3-5.164-2.46-.235-.47-.653-1.035-.549-1.446a8.005,8.005,0,0,1,1.075-1.924c-2.969.191-5.315-4.055-8.5-1.429-1.793,1.48-3.194,1.206-5.122.5a10.81,10.81,0,0,0-5.035-.4c-1.924.273-3.521.631-5.152-1.028-.8-.817-2.429-.862-3.706-1.166-1.3-.307-2.139.037-1.891,1.617.255,1.614-.643,2.235-2.079,2.2-3.3-.092-6.6-.3-9.9-.364-1.869-.035-3.2-.393-2.865-2.723a3.369,3.369,0,0,0-.307-1.953c-.4-.747-1.127-1.928-1.632-1.887a9.008,9.008,0,0,0-3.258,1.342c-.1.054.232.864.315,1.33.175.966.75,2.525.389,2.792a5.851,5.851,0,0,1-3.594,1.186,4.937,4.937,0,0,1-3.01-1.77,4.094,4.094,0,0,0-5.043-1.277c-4.862,1.763-9.236,1.037-13.063-2.449-2.429-2.215-5.251-1.859-7.961-1.138a17.881,17.881,0,0,1-11.687-.862c-3.605-1.424-7.8.059-11.549-1.392-2.682,1.758-5.231,1.359-7.879-.223-.525-.314-1.678.3-2.49.616-1.106.431-2.139,1.045-3.247,1.471a2.814,2.814,0,0,1-3.241-.741,6.787,6.787,0,0,0-8.144-1.129,9.964,9.964,0,0,1-7.729.542c-2.785-.785-5.786-.794-8.689-1.171-.921-.119-2.114-.02-2.7-.552-3.73-3.414-8.374-2.228-12.68-2.77q-7.557-.954-15.089-2.112c-2.786-.431-5.486-1.084-8.276.22a2.4,2.4,0,0,1-3.572-1.481c-.517-1.376-1.626-1.322-2.632-.663-2.553,1.668-4.679,1.129-6.936-.735a4.821,4.821,0,0,0-3.619-.832c-5.1,1.1-10.071,1.179-14.692-1.5-2.173-1.26-5.162-.394-6.853-2.8a1.738,1.738,0,0,0-1.27.471c-1.379,3.283-4.7,2.565-7.157,3.221a3.582,3.582,0,0,1-4.557-2.892,4.2,4.2,0,0,0-1.319-1.944c-1.451-1.347-2.574-2.523-5.025-.809a11.388,11.388,0,0,1-9.112,1.725c-.518-.121-1.26.01-1.542-.3-2.154-2.367-3.958-1.626-6.156.114-.708.56-2.56-.1-3.8-.487-2.186-.676-4.253-1.475-6.627-.58-2.488.936-2.525-.871-2.486-2.565.376.091.777.309,1.1.227a4.012,4.012,0,0,0,1.089-.7c-.134-.191-.262-.537-.4-.542a1.679,1.679,0,0,0-.978.242,4.006,4.006,0,0,0-.715.867c-2.845.7-5.687,1.416-8.54,2.087a8.336,8.336,0,0,1-2.75.416c-4.466-.517-8.917-1.154-13.373-1.757a1.45,1.45,0,0,1-.762-.225c-1.763-1.659-2.857-2.092-4.359.676-.7,1.29-3.527,1.5-5.443,1.98-.3.077-1.131-.936-1.315-1.562-1.122-3.81-1.406-3.953-5.089-2.441a10.634,10.634,0,0,1-3.733,1.085c-1.114.012-2.718-.369-3.27-1.161-1.983-2.84-4.589-3.756-7.885-3.666-1.666.047-3.414-.76-5-.48-2.7.476-5.1.21-7.2-1.512-1.057-.869-1.1-.513-1.891.438-2.53,3.028-6.667,3.305-10.34.686-1.181-.842-1.755-.664-3-.391a19.774,19.774,0,0,1-6.758.164c-1.587-.215-2.307-.086-2.315,1.589a3.721,3.721,0,0,1-.1,1.584,9.244,9.244,0,0,1-1.379,1.644c-.369-.478-.949-.909-1.07-1.443-.331-1.476-.424-2.3-2.24-.951-1.716,1.272-3.931,1.9-5.973,2.691-.332.127-.94-.3-1.356-.565-3.382-2.173-7.337-2.347-11.108-3.112-.508-.1-1.24.633-1.8,1.069a43.8,43.8,0,0,1-4.043,3.228c-1.347.814-2.53.475-3.062-1.3-.273-.918-.891-2.453-1.367-2.46-1.6-.018-3.127-1.067-4.941.32a15.985,15.985,0,0,1-6.582,2.691c-3.324.637-6.463-.156-8.223-3.456-.668-1.25-1.435-1.228-2.6-1.126a21.623,21.623,0,0,1-4.728-.1c-2.549-.347-4.686.624-6.9,1.627-1.033.47-3.03,1.409-1.466-1.371.533-.95.171-1.851-1.285-1.664-1.044.133-2.538.624-3.077.131-2.552-2.332-4.221-.743-6.119.871-1.612,1.371-3.443,2.481-5.09,3.815-1.827,1.48-2.663,1.54-4.51.072a35.084,35.084,0,0,0-3.187-2.419c-2.7-1.686-5.481-2.428-8.754-1.356a34.537,34.537,0,0,1-9.672,2.084c-4.265.1-8.593-.059-12.871-.238-3.475-.146-6.637-1.079-9.961-1.493a18.381,18.381,0,0,0-5.211.074,9.532,9.532,0,0,0-3.478,1.607c-1.164.767-2.124,2.473-3.245,2.54-2.032.119-4.515-.116-6.077-1.228a5.348,5.348,0,0,0-5.213-.678c-1.159.334-2.308.7-3.464,1.044-1.834.544-3.305.5-4.342-1.585a7.59,7.59,0,0,0-2.839-2.686c-.653-.406-1.679-.215-2.538-.294.027.956.017,1.916.1,2.866a3.152,3.152,0,0,0,.453.966c-.475-.069-1.129.037-1.4-.237-1.918-1.955-3.974-1.644-6.292-.792a26.7,26.7,0,0,1-6.91,1.8c-1.768.141-3.626-.643-5.409-1.134-.263-.072-.475-.79-.493-1.22-.1-2.52-1.243-3.607-3.5-3.114a9.409,9.409,0,0,0-2.609,1.037c-2.335,1.334-4.59,2.159-7.045.174-.995-.8-1.986-.446-2.718.648-.436.653-.893,1.527-1.533,1.753a4.194,4.194,0,0,1-2.939.062c-1.141-.57-.336-1.461.114-2.335.773-1.5.2-2.47-1.518-2.721-2.1-.307-4.218-.525-6.335-.641-1.57-.086-2.293.817-2.678,2.372a4.7,4.7,0,0,1-6.558,2.9c-1.25-.617-1.289-1.535-.889-2.681.557-1.6-.542-2.04-1.678-1.844-1.552.268-3.416.515-4.468,1.5-1.807,1.686-3.305,1.181-4.483-.176-2.7-3.11-6.075-3.5-9.835-3.282-1.221.072-2.47-.629-3.726-.726-.794-.06-2.305.277-2.332.549-.287,2.959-2.76,2.567-4.545,2.973-.9.206-1.975-.329-2.97-.53a13.351,13.351,0,0,1,1.455-2.453c1.055-1.149,1.122-2.262-.248-2.555a19.552,19.552,0,0,0-5.511-.28,1.749,1.749,0,0,0-1.6,2.3c.31,1.849.067,3.654-2.3,3.832-2.98.223-5.619-1.377-6.105-3.535a3.247,3.247,0,0,1,.332-1.426c.107-.359.408-1,.386-1.01-1.2-.559-2.4-1.106-3.637-1.565-1.5-.559-2.475.273-3.511,1.263a3.062,3.062,0,0,1-2.153.406c-.626-.062-1.3-.881-1.8-.76a13.6,13.6,0,0,1-9.632-1.085c-.943-.471-1.874.144-1.733,1.436.225,2.067-.794,2.431-2.646,2.406a54.011,54.011,0,0,0-6.674.594c-1.646.185-2.584-.331-2.547-2.147a4.668,4.668,0,0,0-.351-1.96c-.312-.686-.934-1.82-1.3-1.775a7.25,7.25,0,0,0-2.822,1.265c-.122.077.2,1.075.492,1.538.666,1.062,1.366,2.1.242,3.231a3.049,3.049,0,0,1-4.02.6,5.959,5.959,0,0,1-1.542-1.248,2.8,2.8,0,0,0-3.966-.557c-4.092,2.438-7.875,1.949-11.531-.921-2.231-1.753-4.649-1.049-6.843-.065a16.157,16.157,0,0,1-10.457.8,22.436,22.436,0,0,0-10.672.708c-2.094.639-3.708,1.542-5.936.641-.653-.262-1.909.451-2.647,1.027-2.06,1.6-3.721,3.05-6.647.988-1.908-1.344-4.691-.991-6.754.77a8.485,8.485,0,0,1-7.092,1.856c-2.6-.322-5.29.156-7.942.267-.924.04-2.258.443-2.711-.012-2.966-2.968-6.587-1.47-9.5-.852-5.75,1.22-11.477.728-17.2,1.062-2.676.156-5.322-.076-7.632,1.824a2.225,2.225,0,0,1-3.513-.46c-1.072-1.663-2.206-1.143-3.32-.151a4.774,4.774,0,0,1-6.273.411,3.825,3.825,0,0,0-4.137-.23,21.292,21.292,0,0,1-14.656,1.834A33.313,33.313,0,0,0,554.93,406c-.792-.077-1.765.072-2.337-.332-2.159-1.528-3.654-1.849-3.84,1.491a.42.42,0,0,1-.221.314c-3.307.782-6.053,3.7-9.8,2.676a7.232,7.232,0,0,1-2.157-1.547c-1.131-.882-2.2-1.847-3.376-2.668-1.564-1.094-2.631-.879-4.444.389-4.4,3.075-9.373,4.852-14.933,2.567a3.119,3.119,0,0,0-2.844.587c-1.783,2.193-4.008,1.954-6.239,1.466a12.72,12.72,0,0,0-8.251.517c-.627.282-1.988.292-2.189-.052-2.047-3.5-4.721-1.211-6.607-.354-3.394,1.542-6.511,2.666-10.372,1.785a26.774,26.774,0,0,0-8.3-.153c-2.082.2-3.939.346-5.736-.985-.3-.223-1.8.413-1.807.678-.054,1.973-1.3,2.372-2.876,2.658a10.112,10.112,0,0,0-2.179.993c-2.386,1.089-2.545,1.023-3.384-1.394-.218-.631-.245-1.431-.661-1.866a2.373,2.373,0,0,0-1.857-.752,19.383,19.383,0,0,0-3.674,1.569c-3.59,1.81-6.729,1.366-9.268-1.723-.911-1.109-1.664-1.684-2.985-1.174-2.317.9-4.147-.185-6.013-1.314-.423-.255-1.377-.456-1.478-.3-1.637,2.582-4.1,2.335-6.432,1.695a7.386,7.386,0,0,0-6.535,1.018c-3.349,2.562-6.312,1.027-9.316-.242a3.229,3.229,0,0,0-2.433-.255,26.73,26.73,0,0,1-7.462.767c-1.641-.081-2.3.074-2.1,1.76a3.747,3.747,0,0,1,.106,1.582,9.956,9.956,0,0,1-1.191,1.877c-.488-.5-1.226-.918-1.414-1.512-.512-1.622-.889-1.968-2.362-.632-1.6,1.453-4.387,1-5.753,3.147-.089.141-.963,0-1.289-.253-3.527-2.714-7.842-2.062-11.831-2.756-.421-.074-1.035.6-1.466,1.018a42.8,42.8,0,0,1-3.074,3.139c-1.876,1.5-3.02,1.137-3.971-1.01-1.032-2.332-3.714-2.926-6.062-1.51a39.856,39.856,0,0,1-5.988,3.114c-3.339,1.305-6.55.233-8.956-2.574-.458-.533-1.3-1.324-1.733-1.2-4.035,1.188-8.662-.673-12.343,2.424-.589.5-1.97,1.008-1.426-.936.428-1.535.087-2.431-1.778-1.8-.5.171-1.174.453-1.555.262-5.446-2.735-7.622,2.339-10.984,4.545-.322.213-.507.626-.8.9-1.679,1.552-2.408,1.423-4.382.047a33.549,33.549,0,0,0-5.548-3.072c-3.844-1.7-7,.968-10.3,2.08-2.553.862-4.877,1.9-7.676,1.392-1.121-.2-2.357.341-3.55.426-1.3.092-2.641-.122-3.914.094-3.662.621-7.216-.51-10.83-.5a14.462,14.462,0,0,0-3.976.508,4.732,4.732,0,0,0-2.587,1.622c-.778,1.233-1.077,2.966-2.775,3.127s-3.792.4-5.08-.4c-2.4-1.5-4.209-.789-6.325.282-3.565,1.8-3.6,1.733-6.273-1.018a2.382,2.382,0,0,0-.582-.547c-1.065-.5-2.147-.961-3.223-1.438q-.612,1.575-1.22,3.149l.1-.107c-3.75-.889-6.7,1.342-9.7,2.825a6.583,6.583,0,0,1-4.9.748c-1.139-.287-2.267-.069-1.887-2.114.3-1.622-1.731-2.622-3.433-1.9a11.75,11.75,0,0,0-2.678,1.758c-1.347,1.089-2.834,1.7-4.463.98-1.993-.887-3.032-.27-3.56,1.715a1.586,1.586,0,0,1-.669.961c-.674.319-1.525.768-2.121.582-.426-.134-.777-1.216-.777-1.874.005-2.725-.237-3.03-2.788-2.733-.924.109-1.837.359-2.763.409-2.777.149-2.632.158-3.307,3.092a5.534,5.534,0,0,1-2.111,3.067c-2.067,1.394-3.679.649-4.152-1.923-.332-1.807-1.616-2.2-2.465-1.314-3.453,3.615-6.853,2.718-10.643.7-.995-.53-2.627-.04-3.922.21-1.656.319-3.154,1.433-5.02.574-.351-.161-1.694.7-1.713,1.134-.106,2.486-2.158,2.9-3.756,3.689a7.155,7.155,0,0,1-2.639.171A11.272,11.272,0,0,1,152,435.3c.9-1.718.471-2.787-1.443-2.748a13.3,13.3,0,0,0-3.943.686c-1.6.542-2.663,1.243-1.906,3.538.874,2.656-.22,3.545-3.3,3.815-2.156.19-4.335.653-5.914-1.4-.372-.485-.934-1.4-.76-1.634,1.116-1.5,1.037-2.01-.985-1.71a4.4,4.4,0,0,1-2.3-.409,3.76,3.76,0,0,0-4.986,1.23,3.34,3.34,0,0,1-4.188,1.357,7.2,7.2,0,0,0-6.156.921c-1.48.881-2.758,1.2-4.432.079-.955-.641-2.527-.43-3.824-.471-1.255-.042-2.119.433-1.711,1.939a1.871,1.871,0,0,1-1.653,2.622c-3.245.621-6.5,1.153-9.741,1.81-1.96.4-3.137-.109-3.3-2.258a3.341,3.341,0,0,0-.4-1.132,2.8,2.8,0,0,0-5.053-.169,1.4,1.4,0,0,0,.374,1.25c.94.837,1.961,1.7,1.144,3.02a3.669,3.669,0,0,1-4.171,1.718,6.005,6.005,0,0,1-2.518-1.141c-1.777-1.55-3.493-1.117-5.162-.027a11.581,11.581,0,0,1-12.9.47c-2.916-1.678-5.573-.7-8.043.49a20.4,20.4,0,0,1-11.949,1.857c-3.709-.455-7.744.669-11.427,1.572-2.231.549-4.124,2.127-6.677,1.169-1.257-.471-2.188.114-3.117,1.154-1.755,1.965-3.555,3.186-6.6,1.587a6.521,6.521,0,0,0-7.5,1.181c-2.018,1.854-4.323,2.3-7.036,2.218a77.764,77.764,0,0,0-8.736.74c-1.054.091-2.278.43-3.149.04-4.255-1.909-8.337-.325-12.514.22-4.9.638-9.84.987-14.771,1.351-2.807.206-5.6.081-7.964,2.146-.992.866-2.535,1.223-3.52-.3-1.028-1.587-2.1-1.453-3.245-.25-2.122,2.22-4.359,2.045-6.929.72a3.811,3.811,0,0,0-3.32,0c-3.334,2.54-7.414,2.99-11.031,2.649-3.968-.374-8.221.337-12.038-1.627-.331-.169-1.668.629-1.649.923.107,1.763-.854,2.275-2.315,2.683a16,16,0,0,0-2.81,1.508c-2.688,1.394-5.03.926-7.152-1.2a12.35,12.35,0,0,0-2.9-2.007,3.459,3.459,0,0,0-4.04.3c-3.04,2.074-6.223,3.877-10.187,4.037-1.99.082-3.688-.941-5.349-.857-1.584.081-3.023,1.879-4.657,2.642a5.546,5.546,0,0,1-2.782.04c-3.077-.366-6.1-.733-9,.94-1.827,1.052-2.283-.255-2.387-1.782a8.159,8.159,0,0,0,1.46-.433,3.978,3.978,0,0,0,1.045-.9c.039-.042-.294-.574-.378-.555a3.435,3.435,0,0,0-1.557.565C-141.767,469.782-141.772,470.416-141.916,470.9ZM1839.422,325.571c.517,1.32.656,3.243,1.622,3.85a19.812,19.812,0,0,1,6.5,6.9c1.015,1.681,2.545,1.606,3.449-.082a20.67,20.67,0,0,0,2.04-5.208,4.049,4.049,0,0,0-5.38-4.818c-1.829.607-2.792.406-3-1.7-.2-2.015-1.784-1.614-3.079-1.5C1840.095,323.138,1839.449,324,1839.422,325.571ZM-368.312,367.525a6.353,6.353,0,0,0-1.045-.233c-3-.052-3.483.495-3.292,3.527a10.556,10.556,0,0,1-.2,2.357c-.356,2.112.1,2.725,1.864,1.765,2.327-1.263,3.751-.523,5.162,1.22a4.98,4.98,0,0,0,1.129,1.116c1.094.69,1.938.119,2.082-1.215a28.775,28.775,0,0,1,.784-5.035c.8-2.733.022-4.092-2.8-4.062A24.211,24.211,0,0,0-368.312,367.525Zm110.036,94.527c-.121-.31-.233-1.565-.815-1.844a4.191,4.191,0,0,0-2.909.084,5.429,5.429,0,0,0-3.342,4.156,31.973,31.973,0,0,0-.475,3.235c.805-.25,1.606-.517,2.418-.742.377-.106.782-.119,1.169-.2C-259.695,466.215-258.559,465.02-258.275,462.053ZM619.566,150.3c2.478-.143,4.089-.121,5.657-.369a9.56,9.56,0,0,0,2.408-1.117c-.758-.646-1.5-1.31-2.287-1.924a1.3,1.3,0,0,0-.77-.18c-3.178.06-6.385.812-9.5-.5-.216-.091-.789.265-.948.55a1.043,1.043,0,0,0,.185,1C616.292,148.772,618.317,149.708,619.566,150.3Zm64.931-7.335-.042.386c-1.322-.168-2.641-.367-3.966-.482a2.978,2.978,0,0,0-1.044.331,4.279,4.279,0,0,0,.552.948c3.124,3.114,7.038,2.585,10.87,2.238.663-.06,1.273-.7,1.908-1.079-.528-.554-.986-1.481-1.594-1.592C688.979,143.319,686.728,143.2,684.5,142.967Zm603.995,33.548,2.491-.908a13.645,13.645,0,0,0-1.716-2.34c-.436-.4-1.241-.4-1.887-.559-2.307-.555-4.607-1.146-6.931-1.612a4.728,4.728,0,0,0-1.737.364,4.149,4.149,0,0,0,.641,1.347A14.034,14.034,0,0,0,1288.491,176.514ZM-252.246,418.788a26.06,26.06,0,0,0,3.871-2.023c.607-.461.829-1.431,1.223-2.173-.789-.329-1.616-1-2.359-.924A6.893,6.893,0,0,1-255.417,412a1.71,1.71,0,0,0-1.079-.4,3.222,3.222,0,0,0-1.05.384c.134.312.215.859.411.9,1.916.44,2.223,1.9,2.681,3.515C-254.2,417.3-253.068,417.946-252.246,418.788Zm222.973-212.11c2.241-.292,4.092-.465,5.909-.809.565-.107,1.044-.679,1.562-1.038a10.975,10.975,0,0,0-1.515-1.621,2.478,2.478,0,0,0-1.525-.366c-3.015.211-6.023,1.079-9.051-.017-.2-.072-.765.351-.857.639a1.066,1.066,0,0,0,.421.953C-32.546,205.27-30.724,206.04-29.273,206.678Zm1377.35-24.6,2.121-1.04a10.339,10.339,0,0,0-2.015-2.223,7.627,7.627,0,0,0-2.686-.575c-1.7-.282-3.406-.562-5.115-.79a6.01,6.01,0,0,0-1.381.134c.243.435.5.862.728,1.3C1341.411,182.118,1344.666,181.422,1348.077,182.076ZM34.212,195.113l.008.149c-2.374.136-4.75.255-7.122.426-.32.022-.624.307-.935.471a6.559,6.559,0,0,0,.579.936c2.315,2.673,5.323,1.678,8.122,1.372,1.028-.112,1.978-.941,2.965-1.443-1.074-.638-2.144-1.278-3.225-1.9C34.505,195.065,34.344,195.113,34.212,195.113Zm282.32-32.96c-.1,2.693.44,3.438,2.47,3.454,1.877.015,3.35-1.045,3.5-2.522.158-1.518-2.161-3.3-4.261-3.241C316.67,159.888,316.177,160.751,316.532,162.153ZM969.3,149.2c-.151,2.049.349,2.74,2.109,2.924,2.018.213,3.7-.953,3.753-2.6.04-1.346-2.176-3.037-4.032-3.089C969.048,146.378,969.407,147.94,969.3,149.2Zm675.586,54.235c.109-1.32-2.116-3.52-3.7-3.659-1.115-.1-2.422,1.634-2.6,3.444-.128,1.3,1.114,2.3,3.038,2.429C1643.371,205.767,1644.774,204.816,1644.888,203.432Zm193.459,214.044c-.356-.273-.943-1.082-1.632-1.181a3.7,3.7,0,0,0-3.951,3.082c-.045,1.475,1.208,2.517,2.934,2.439C1837.147,421.752,1838.346,420.046,1838.346,417.476Zm-2214.792-140.5c1.453-.559,2.694-1,3.887-1.542.17-.079.163-.978.136-.983-2.111-.416-3.313-1.436-2.874-3.812.047-.247-.631-.857-1.012-.893-.421-.04-1.228.332-1.275.621a30.321,30.321,0,0,0-.5,5.37C-378.079,276.174-376.987,276.59-376.445,276.977ZM1819.291,432.59a30.231,30.231,0,0,0,3.391-3.292c.247-.32-.277-1.512-.753-2.01a2.021,2.021,0,0,0-1.782-.171,5.325,5.325,0,0,0-1.9,1.382c-.539.581-1.356,1.473-1.206,1.981C1817.244,431.189,1818.238,431.666,1819.291,432.59Zm-2102.836,6.384c.163-1.659-.851-2.067-2.223-2.107-1.993-.059-3.235.785-3.111,2.258s.787,2.55,2.51,2.52A2.55,2.55,0,0,0-283.545,438.974Zm2112.83-16.49a7.109,7.109,0,0,0-.855-1.369c-1.505-1.289-4.715-.334-5.235,1.58-.121.446.023,1.387.19,1.423a7.251,7.251,0,0,0,3.258.284C1827.618,424.125,1828.4,423.162,1829.285,422.484ZM-265.649,420.3a34.805,34.805,0,0,0-4.664,1.013c-.537.188-.785,1.2-1.164,1.837.691.2,1.485.72,2.055.539a53.065,53.065,0,0,0,5.446-2.231c.1-.044.042-.847-.091-.9A7.6,7.6,0,0,0-265.649,420.3ZM683.53,132.713c-.9-.347-1.97-1.132-2.921-1.007-.7.094-1.626,1.3-1.78,2.137-.24,1.31.965,1.384,1.924,1.189C681.856,134.81,683.25,134.912,683.53,132.713ZM1838.506,413.426l2.688-2.746c-.735-.609-1.389-1.52-2.228-1.75-1.035-.284-2.308.186-2.183,1.55C1836.86,411.312,1837.679,412.075,1838.506,413.426ZM28.39,185.389a7.878,7.878,0,0,0-2.522-.9,1.642,1.642,0,0,0-1.616,2.178A1.967,1.967,0,0,0,25.79,187.8,2.353,2.353,0,0,0,28.39,185.389ZM-279.749,416.129l-1.438.289a5.455,5.455,0,0,0,.738,1.607c.52.55,1.245,1.265,1.882,1.263a8.167,8.167,0,0,0,2.637-.943,11.927,11.927,0,0,0-1.819-1.741A6.532,6.532,0,0,0-279.749,416.129ZM-72.907,210.3c.919-.463,1.985-.938,2.965-1.547.174-.107,0-.775-.013-1.184-1.733.128-3.47.226-5.193.436-.136.017-.364,1.094-.232,1.178A18.133,18.133,0,0,0-72.907,210.3Zm648.731-60.575a17.731,17.731,0,0,0-2.547.022,12.008,12.008,0,0,0-1.743.622,9.911,9.911,0,0,0,1.654,1.423,1.986,1.986,0,0,0,1.559.129,29.44,29.44,0,0,0,2.936-1.743ZM1241.734,169.5l2.5-1.617c-.805-.263-1.6-.559-2.419-.783a15.174,15.174,0,0,0-2.339-.493,2.947,2.947,0,0,0-1.072.332c.188.456.248,1.107.589,1.329A19.089,19.089,0,0,0,1241.734,169.5ZM-349.991,370.9l-.849.6c-.742.505-1.507.976-2.213,1.527a6.773,6.773,0,0,0-.9,1.055c.362.119.721.245,1.086.357a10.169,10.169,0,0,0,1.874.533c.589.062,1.4.1,1.745-.235a2.126,2.126,0,0,0,.208-1.716A11.636,11.636,0,0,0-349.991,370.9ZM1341.658,165.445c-.945,1.049-1.891,1.641-1.907,2.26-.015.535.99,1.493,1.607,1.547.7.062,1.473-.673,2.215-1.06C1343.037,167.421,1342.5,166.653,1341.658,165.445ZM-336.819,416.427l1.881-1.409a6.774,6.774,0,0,0-2.26-1.033c-.607-.034-1.252.646-1.879,1.01ZM1810.874,436.1l3.4-3c-.53-.461-1.431-1.389-1.532-1.31a11.488,11.488,0,0,0-2.325,2.423C1810.218,434.5,1810.639,435.211,1810.874,436.1ZM-329.05,392.906a18.4,18.4,0,0,0-2.329-2.265c-.188-.131-.958.569-1.461.886l2.334,3Zm13.4,29.184c-.312-.483-.443-.945-.726-1.075a9.415,9.415,0,0,0-2.572-.879c-.5-.07-1.074.354-1.616.555.29.4.5.951.888,1.156a11.1,11.1,0,0,0,2.8,1.06C-316.561,422.977-316.1,422.408-315.65,422.09Zm-75.306-159.173c.492-.243,1.3-.611,2.06-1.049.107-.062.052-.684.005-.693a23.4,23.4,0,0,0-2.908-.409,1.86,1.86,0,0,0-1.077.458,4.108,4.108,0,0,0-.674.866,7,7,0,0,0,1.015.535A12.612,12.612,0,0,0-390.956,262.917Zm86.176,159.163-2.619,1.809c.678.336,1.367.953,2.032.926.629-.023,1.233-.721,1.847-1.122Zm2167.718-76.265a17.321,17.321,0,0,0-2.659-1.46c-.282-.094-.765.424-1.156.664a7.822,7.822,0,0,0,1.661,1.765C1861.08,346.953,1861.823,346.344,1862.938,345.814Zm-543.013-29.18c-.629-.784-1.049-1.339-1.069-1.325q-1.352.949-2.611,2.025c-.018.017.525.834.606.8C1317.831,317.719,1318.772,317.216,1319.925,316.634ZM-258.566,406.624c-.986-.55-1.6-1.163-1.993-1.047-.631.183-1.122.854-1.673,1.319.476.372.981,1.077,1.424,1.04C-260.188,407.883-259.616,407.279-258.566,406.624Zm2062.346-14.967a10.563,10.563,0,0,0,1.094-.183c1.1-.331,2.2-.681,3.3-1.023-1.048-.04-2.1-.069-3.146-.122-.4-.02-.832-.215-1.183-.107a4.226,4.226,0,0,0-1.094.753Zm28.845-9.991c-1.278-.894-2.08-1.485-2.931-1.991-.07-.042-.718.676-.691.71a8.931,8.931,0,0,0,1.709,1.788C1830.958,382.341,1831.582,381.964,1832.625,381.667ZM-378.791,331.535c.755-.7,1.621-1.2,1.553-1.49a5.993,5.993,0,0,0-1.193-1.8c-.466.369-1.3.725-1.317,1.111C-379.769,329.966-379.239,330.594-378.791,331.535ZM1211.884,157.1c-.517.844-.763,1.247-1.008,1.649.814.45,1.612.943,2.463,1.31.134.059.512-.443.777-.684C1213.451,158.7,1212.788,158.024,1211.884,157.1ZM544.06,145.831c-.527.743-.854,1.2-1.183,1.663a5.884,5.884,0,0,0,1.871.983c.468.059,1.013-.515,1.523-.807ZM-329.32,397.706l-1.054,1.168a12.357,12.357,0,0,0,2.228.975c.3.07.735-.466,1.109-.728Zm25.9-5.26-2.381,2.387a5.719,5.719,0,0,0,1.481.279c1.106-.082,2.08-.458,1.933-1.842C-302.411,393.033-302.9,392.847-303.419,392.446Zm2151.426-5.8c-.223-.471-.4-.854-.4-.851-1.122.487-2.235,1-3.345,1.515.228.268.565.807.668.765C1845.975,387.651,1846.987,387.134,1848.007,386.644ZM-68.451,199.94c-1.381-.377-1.916-.718-2.253-.579a15.636,15.636,0,0,0-2.235,1.354c.367.289.827.887,1.082.81A28.057,28.057,0,0,0-68.451,199.94ZM679.46,283.76a16.389,16.389,0,0,0-1.491-1.228,19.879,19.879,0,0,0-2.015,2.184c-.039.05.572.777.651.736C677.458,285.017,678.267,284.49,679.46,283.76ZM-242.426,462.3a8.172,8.172,0,0,0-.357-.867q-1.6.45-3.168,1c-.025.01.042.6.163.646a2.592,2.592,0,0,0,1.445.263A10.367,10.367,0,0,0-242.426,462.3ZM1827.052,235.125c-.736-.508-1.332-1.1-1.491-1a9.186,9.186,0,0,0-1.525,1.478c.346.329.832,1,1.01.924A11.15,11.15,0,0,0,1827.052,235.125ZM554.91,146.946l-.695.953a14.1,14.1,0,0,0,2.131,1.151c.2.07.629-.517.955-.8C556.537,147.834,555.776,147.418,554.91,146.946ZM-100.183,206.52a18.031,18.031,0,0,0-2.938-.814c-.24-.025-.555.688-.835,1.062a11.662,11.662,0,0,0,2.233.9C-101.426,207.725-101.005,207.158-100.183,206.52Zm679.17-64.894c-1.515-.141-2.178-.4-2.652-.2a7.244,7.244,0,0,0-1.649,1.342c.575.169,1.2.567,1.715.453A11.855,11.855,0,0,0,578.987,141.626ZM-300.695,444.3a12.215,12.215,0,0,0,1.423-2c.072-.161-.581-.648-.9-.983a8,8,0,0,0-1.443,1.478C-301.725,442.98-301.158,443.569-300.695,444.3Zm-82.929-177.561c-.983-.569-1.456-1.025-1.976-1.084-.371-.042-.8.45-1.208.7.356.463.646,1.213,1.085,1.314S-384.678,267.242-383.624,266.737ZM38.134,335.988a9.269,9.269,0,0,0-1.708-.936,27.19,27.19,0,0,0-1.788,2.26c.282.211.71.664.822.6C36.25,337.429,36.977,336.843,38.134,335.988Zm-415.281-4.067c-.54.614-1.122.993-1.084,1.293a5.428,5.428,0,0,0,.783,1.622c.461-.341,1.26-.648,1.3-1.032C-376.1,333.318-376.663,332.766-377.146,331.921Zm7.942-13.4,3.656-1.116c-1.142-.107-2.285-.216-3.427-.319-.128-.012-.3-.023-.379.047-.245.232-.451.5-.673.758ZM1244.383,161.4c.631-.586,1.129-1.047,1.626-1.51a4.74,4.74,0,0,0-1.708-.507c-.512.052-.978.56-1.465.867C1243.287,160.593,1243.74,160.928,1244.383,161.4Zm-1612.7,79.3c.589-.562,1.278-1.037,1.213-1.191a3.3,3.3,0,0,0-1.142-1.366c-.124-.087-1.047.547-1.013.748A7.1,7.1,0,0,0-368.32,240.707ZM-91.491,205.9l-1,.8a11.973,11.973,0,0,0,1.77,1.121c.21.089.626-.3.948-.473ZM-328.268,310.372c-.943-.394-1.4-.752-1.835-.72s-.844.451-1.265.7c.29.332.614.961.864.933A9.849,9.849,0,0,0-328.268,310.372ZM679.477,139.291l1.325-1.23c-.342-.325-.671-.891-1.032-.913a1.4,1.4,0,0,0-1.091.79C678.589,138.212,679.1,138.684,679.477,139.291ZM-369.114,381.747c.542-.634,1.087-.993,1.089-1.354s-.577-1.012-.857-.99a1.514,1.514,0,0,0-1.079.9C-370.048,380.588-369.541,381.059-369.114,381.747ZM652.029,256.362a10.307,10.307,0,0,0-.651,1.834c-.039.225.555.785.587.765.576-.366,1.109-.8,1.651-1.215ZM26.967,190.906c-.7-.512-1.055-.971-1.413-.975a1.368,1.368,0,0,0-1.1.678c-.086.329.4,1.156.562,1.136A8.061,8.061,0,0,0,26.967,190.906Zm983.559,34.375c-.436-.513-.661-.778-.888-1.044a20.659,20.659,0,0,0-1.54,1.5,2.678,2.678,0,0,0,.616.778A20.737,20.737,0,0,0,1010.526,225.28ZM1222.643,160.5a5.424,5.424,0,0,0-.48,1.181,9.509,9.509,0,0,0,1.849,1.134c.129.059.481-.378.731-.586ZM-243.351,436.961l.884.517c.154-.477.478-.976.413-1.419a1.446,1.446,0,0,0-.861-1.018c-.294-.062-.935.418-1.015.753S-243.564,436.567-243.351,436.961ZM10.516,312.251c-.547-.352-.918-.742-1.079-.669a9.211,9.211,0,0,0-1.448.988c.31.289.726.876.913.81A7.453,7.453,0,0,0,10.516,312.251ZM337.061,208.5c-.581.721-1.079,1.065-1.1,1.436-.02.393.413.81.648,1.216.354-.3.9-.552,1.008-.924S337.368,209.376,337.061,208.5Zm-608.355,173.16c-.636-.52-.97-.97-1.159-.916a13.939,13.939,0,0,0-1.956.851c.237.255.5.747.7.721A17.5,17.5,0,0,0-271.295,381.663ZM1340.754,171.894a5.046,5.046,0,0,0-1.487-.435c-.188.008-.351.552-.527.854a4.189,4.189,0,0,0,1.183.6C1340.086,172.941,1340.341,172.419,1340.754,171.894ZM-396.737,261.86c.379-.607.78-.99.7-1.179a4.358,4.358,0,0,0-.888-1.062c-.218.275-.644.582-.607.817A5.337,5.337,0,0,0-396.737,261.86Zm577.349-73.111c-.445-.374-.857-.847-.961-.787-.386.226-.923.622-.926.961s.57.673.891,1.008Zm181.206,46.241a9.867,9.867,0,0,0-.948,1.689c-.047.143.465.468.72.708a8.574,8.574,0,0,0,1.022-1.349C362.678,235.912,362.237,235.526,361.819,234.989Zm-618.76,186.88a10.056,10.056,0,0,0-1.694-.228c-.171.008-.325.354-.488.547a4.655,4.655,0,0,0,1.186.693C-257.775,422.922-257.48,422.435-256.942,421.87ZM-366.865,227.653l1.127-.9c-.265-.181-.649-.575-.775-.505a6.094,6.094,0,0,0-1.082.956Zm1663.511,58.7a5.074,5.074,0,0,0-.725,1.231c-.039.149.634.663.678.629a13.214,13.214,0,0,0,1.223-1.193Zm363.189-2.909a12.621,12.621,0,0,0-1.02,1.661c-.04.092.465.419.716.638a10.389,10.389,0,0,0,1.075-1.336C1660.662,284.309,1660.229,283.923,1659.834,283.442ZM1514.5,195.224a8.127,8.127,0,0,0-1.4-.819c-.074-.02-.4.394-.364.554.064.289.285.726.49.757C1513.516,195.759,1513.857,195.493,1514.5,195.224ZM-374.841,255.563l.711-.778-.814-.539-.577.883ZM495.615,407.2a5.631,5.631,0,0,0-.976,1.3c-.05.149.483.716.679.683a4.459,4.459,0,0,0,1.252-.636ZM1645.608,253.193l-.9-.94a4.708,4.708,0,0,0-.97,1.012c-.074.136.485.822.559.79A7.709,7.709,0,0,0,1645.608,253.193Zm-186.439-61.379c-.2-.31-.324-.513-.453-.716-.252.228-.651.428-.706.7-.043.213.334.513.525.775ZM713.341,141.068a4.5,4.5,0,0,0,.53-.986c.024-.1-.376-.429-.5-.391a3.023,3.023,0,0,0-.782.52Zm99.988,8.659c-.2.6-.424.931-.378,1.223.032.2.438.342.678.51.107-.213.332-.451.294-.638A4.9,4.9,0,0,0,813.33,149.726ZM146.674,184.757a5.126,5.126,0,0,0,.21-1.26c-.02-.176-.322-.32-.5-.478-.183.253-.532.527-.5.755C145.916,184.049,146.27,184.284,146.674,184.757ZM-378.593,378.212c-.324-.213-.584-.49-.695-.44a3.747,3.747,0,0,0-.789.629c.191.124.418.384.565.346A4.034,4.034,0,0,0-378.593,378.212ZM841.973,161.368c-.575-.334-.933-.7-1.138-.624a1.118,1.118,0,0,0-.626.815c-.014.272.362.564.567.849ZM81.634,189.131c-.371,1.283-.609,1.673-.534,1.985.062.258.5.426.765.636.159-.332.446-.664.445-.995C82.307,190.4,82.033,190.045,81.634,189.131ZM-377.94,298.612l-.636.871c.218.121.47.379.644.334a3.453,3.453,0,0,0,.889-.53ZM601.946,137.417l-.8.243a2.655,2.655,0,0,0,.577.733c.143.089.456-.1.695-.159Zm881.5,64.864c-.364-.3-.676-.725-.861-.674a1.074,1.074,0,0,0-.681.742c-.018.237.406.508.636.765Zm-496.469-4.568-.859-.9a4.056,4.056,0,0,0-.857.966c-.064.141.471.765.572.728A5.218,5.218,0,0,0,986.981,197.712ZM870.775,154.583c-.151.151-.4.289-.426.456-.025.19.161.406.255.609l.634-.626C871.085,154.877,870.931,154.729,870.775,154.583Zm416.131,5.726c-.324-.206-.587-.478-.7-.426a4.024,4.024,0,0,0-.813.644c.2.122.431.384.579.341A4.155,4.155,0,0,0,1286.906,160.309Zm-16.98.262a7,7,0,0,0-1.142-.53c-.084-.022-.263.31-.4.48a5.139,5.139,0,0,0,.955.48C1269.454,161.036,1269.657,160.777,1269.926,160.571Z" transform="translate(1873.655 484.344) rotate(180)"></path></svg>