<svg xmlns="http://www.w3.org/2000/svg" xmlns:xlink="http://www.w3.org/1999/xlink" width="2746.162" height="1319.14" viewBox="0 0 2746.162 1319.14"><defs><style>
      .cls-1 {
        fill: url(#linear-gradient);
      }
    </style><linearGradient id="linear-gradient" x1="0.968" y1="0.296" x2="0.303" y2="0.316" gradientUnits="objectBoundingBox"><stop offset="0" stop-color="#b0def1"></stop><stop offset="0.371" stop-color="#23b9d6"></stop><stop offset="1" stop-color="#21376a"></stop></linearGradient></defs><path id="Pfad_530" data-name="Pfad 530" class="cls-1" d="M3488.291,794.6c-6.347,1.34-6.157-2.1-4.365-6.346l-3.376-.824c.181-1.014.316-1.774.5-2.762-2.553-1.159-5.477-1.783-7.4-3.5-3.974-3.549-8.112-3.44-12.6-1.847-1.719.607-3.141.742-4.11-1.448l1.7-2.49c-2.1-3.4-5.043-2.553-8.311-1.693,3.313-2.861,2.535-6.193,1.575-9.877l7.008.933-2.807-3.2c1.366-1.6,2.6-3.042,3.92-4.581-1.158-1.765-2.417-3.241-4.554-3.259-1.077-.009-2.164.824-3.232.788a4.166,4.166,0,0,1-2.725-1.232c-.29-.335.344-1.666.778-2.417a15.121,15.121,0,0,1,2.137-2.173c-2.508.136-4.209.226-5.658.308-1.693-2.445-3.169-4.563-4.97-7.152,3.649-.308,5.776-3.6,9.471-2.408.6.19,1.847-1.657,3.667-3.4l-4.237-2.119c.607-1.82.932-2.807,1.511-4.508-2.2,1.159-3.675,1.937-5.441,2.879-1.022-3.522-2.119-6.591-.5-10.23l3.168,1.974c1.069-2.345,2.02-4.436,3.16-6.935-5.432-.218-4.59-4.12-5.152-7.026.914-1.476,3.776-.344,3.169-3.341-2.942.009-6.609.8-7-3.8,2.6-2.182,5.676,2.155,8.618-1.485-2.335-.516-4.255-1.268-6.175-1.295s-3.685,2.2-6.255.29c.426-1.774.281-4.554,1.512-5.468,1.792-1.313,4.581-1.286,7.369-1.928.118-.625.353-1.811.589-3.024,1.583-1.086,3.159-2.155,4.78-3.259l2.652,5.984c-4.119,6.2-4.119,6.2-.452,11.706,3.711,1.177,4.6-2.2,6.365-3.957,1.629.48,3.005.869,4.508,1.313.806-.969,1.6-1.919,2.318-2.788-3.35-1.512-7.867-1.177-8.917-6.012-.77-3.558.915-5.795,3.865-6.655-1.339-1.729-2.272-4.146-3.92-4.8-3.476-1.4-7.307-1.964-11.027-2.716a23.085,23.085,0,0,0-5.721-.571,34.388,34.388,0,0,0-5.542,1.159c-.7-1.811-1.258-3.259-1.774-4.59l-5.052-.679c.886-1.711,1.24-3.232,2.19-4.011.879-.706,2.408-.616,3.722-.888-.489-2.978-1.43-5.957-1.331-8.9.1-2.77-.262-4.717-3.133-5.4,1.792-5.2,2.408-7.551-4.6-7.288q-1.236-3.368-2.382-6.51c-1.784-.154-3.576.235-4.49-.489-1.973-1.566-3.966-1.059-5.985-.878a47.614,47.614,0,0,0-6.2.915,5.417,5.417,0,0,1-5.405-1.2,18.852,18.852,0,0,0,.534-1.9,11.089,11.089,0,0,0,.018-1.638c-6.03-1.123-7.243-2.318-6.935-6.147a76.516,76.516,0,0,0,7.795-2.454c2.354-1.023,2.391-2.78.352-4.4a5.807,5.807,0,0,0-2.046-1.24c-1.484-.362-3.159-.968-4.5-.588-1.784.507-1.023,2.309-.942,3.748a2.651,2.651,0,0,1-1.259,2.164,2.879,2.879,0,0,1-2.5-.806,19.5,19.5,0,0,1-1.9-3.848,31.651,31.651,0,0,0-4.871-.407c-2.372.163-4.074-.525-5.143-2.707a5.9,5.9,0,0,0-1.448-1.91c-1.53-1.268-2.779-2.345-2.308-4.8.344-1.756-1.395-2.689-3.25-2.146-.59.172-1.332,1.077-1.567.932-3.53-2.164-6.383.48-9.642,1.521a9.708,9.708,0,0,0-.932-1.259c-3.322-3.4-5.568-3.44-9.009-.217a18.746,18.746,0,0,1-2.054,2.019c-2.191,1.476-3.947,1.114-6-1.086,1.322-.978,2.663-1.956,3.929-2.888-.652-1.747-1.15-3.069-1.738-4.644-2.889-.136-5.831-.245-8.764-.417a4.55,4.55,0,0,1-1.34-.471c-3.2-1.249-6.391-2.508-10.186-3.993-2.834-3.621,3.857-4.635,3.613-8.366l-2.073.227-1.684.181c-1.068-6.474,5.668-4.943,8.012-8.031-2.145-1.911-4.382-1.376-6.582-1.2-3.35.272-6.392.1-7.714-3.947-.307-.942-1.819-1.792-2.95-2.118a21.511,21.511,0,0,0-7.071-1.295c-5.433.326-8.348-2.426-10.15-7.062-.063-.172-.362-.244-.624-.335,1.792-.281,2.553-1.041,2.562-2.535a2.33,2.33,0,0,0-2.652-2.562c-2.39.027-3.323,1.594-2.97,5.224a18.721,18.721,0,0,0,2.517-.027c-1.268.634-2.544,1.277-3.7,1.865-2.752-1.222-3.938-4.119-7.153-4.4-.009-.127,0-.271-.009-.4l4.21-2.227c0-.824-.055-1.458.01-2.083.524-5.776,3.5-7.533,8.908-5.178,2,.869,3.938,1.44,5.722-.281,1.738-1.666,1.765-3.576.542-5.6-.19-.317-.026-.851-.026-1.2l4.553-2.182c-2.543-.878-2.543-.878-5.4.344-4.781,2.028-8.031.942-10.494-3.495-.371-.67-.76-1.313-1.33-2.29,1.149-1.023,2.037-2.408,3.232-2.761,4.346-1.3,8.628-3.4,13.363-2.417a6.949,6.949,0,0,0,7.723-3.042c-.878-2.381-.788-2.336.706-6,.823-2.019.978-4.291,3.413-5.36,1.041-.462,2.581-1.576,2.544-2.336a21.83,21.83,0,0,0-1.43-7.27c-.445-1.1-2.272-1.648-3.8-2.653,1.285-1,2.245-2.209,1.1-4.192a5.351,5.351,0,0,0-4.482-2.825c-2.861-.435-6.021-.027-8.52-2.2-.4-.353-1.448.073-2.2.109a36.547,36.547,0,0,1-9.262-.362c1.078-2.381,1.983-4.364,2.916-6.419,2.607,3.558,3.159,3.585,9.116.942.978-2.11,1.729-3.739,2.59-5.6l-8.619-2.372a40.772,40.772,0,0,1-3.848-3.314c-.75-.815-1.692-2.254-1.438-3.042,1.33-4.029-1.793-6.709-2.327-10.756-3.695,2.87-5.062-1.684-8.556-1.005l3.341-3.1c-1.43-1.277-2.5-2.952-3.929-3.368-3.224-.923-3.675-3.232-3.667-5.84a25.485,25.485,0,0,1,.851-4.59c.48-2.354.181-4.717-2.091-5.722-2.7-1.195-2.616-2.689-1.6-4.889.27-.579-.055-1.44-.127-2.327l-6.41,1.44c2.282-3.712,3.966-6.437,5.795-9.4q2.131,1.48,3.015,2.091l6.618-1.385c.625-2,1.24-3.938,1.857-5.876-4-1.3-3.957-1.3-3.423-5.676a33.954,33.954,0,0,0,.028-4.183c3.159,1.349,3.484,1.186,5.087-2.888-1.221-.3-2.381-.6-3.549-.869-2-.453-4.037-.743-5.993-1.349-3.722-1.15-4.9-.86-7.144,2.408a14.938,14.938,0,0,0-1.15,2.716l4.01,1.494v3.178c1.829.77,3.341,1.394,5.233,2.182-5.613,3.124-9.578.462-11.534-4.518-1.014-2.563-2.49-3.9-5.061-4.228a24.332,24.332,0,0,0-2.843-.018l3.721-6.618c-2.735-1.385-5.179-3.232-5.3-6.663-3.83-1.63-7.515-.7-10.719.878-3,1.467-5.451,2.019-8.357.181-.661-.425-1.829-.082-2.761-.028-2.662.145-5.433.888-7.949.381-4.862-.987-9.851-2.291-11.67-7.995-3.007-.5-5.233,1.1-7.47,2.553-3.368,2.182-6.853,2.49-10.275.444-2.427-1.458-4.645-2.743-7.46-1.023a1.879,1.879,0,0,1-1.739-.145c-2-1.8-3.6-1.159-5.4.4-.7.6-2,.5-2.97.7-1.756-4.355-3.9-5.894-6.926-5.106-2.833.733-5.459,4.726-8.61.525-.054-.082-.3-.027-.5-.045L3169.6,394.2c-4.672,1.919-6.945-2.155-10.457-3.187.109,1.195.5,2.281.181,2.544-2.272,1.938-4.626,3.839-7.976,3.975-.408-.471-.842-.915-1.213-1.4a10.242,10.242,0,0,0-11.353-3.621c-5.07,1.484-10.186,3.821-15.337.136a1.861,1.861,0,0,0-.915-.163c-5.025-.29-10.022,2.254-15.056.091-.109-.045-.3.091-.452.145l-7.5,2.607c-.435,4.618-4.708,7.144-8.61,4.934a6.755,6.755,0,0,0-5.379-.661c-3.965.95-8.039,1.485-12.05,2.236a9.007,9.007,0,0,0-2.689.824c-2.662,1.485-5.269,3.078-7.849,4.608-1.4-1.575-2.345-2.625-3.278-3.685-1.1-1.249-2.462-2.544-3.947-1.068-.615.607-.109,2.336-.109,4.192-1.783.769-4,2.11-6.4,2.653-2.49.561-2.119-2.816-3.839-3.612a7.582,7.582,0,0,1-1.611-1c-1.123-.933-2.209-1.91-3.079-2.671-6.147,3.458-12.837,2.3-19.428,3l-1.594-3.341c-3.1,2.68-6.138,4.4-10.076,2.39a4.12,4.12,0,0,0-2.309.063c-4.816.869-9.6,1.3-14.2-.914a3.574,3.574,0,0,0-4.355.552c-1.594,1.4-3.377,2.58-5.469,4.147l-.5,2.716c-2.717,0-5.206.516-7.379-.1-5.506-1.567-9.824.009-13.743,4.147a33.136,33.136,0,0,1-3.9-1.331c-3.513-1.639-6.872-2.074-10.367.19-1.875,1.2-3.848.878-5.74-.534-1.059-.788-2.734-1.766-3.739-1.44-4.527,1.448-8.583-1.15-12.892-1.1-.163.009-.344-.471-.607-.869l2.6-5.161c-2.553.978-4.844,1.15-5.667,2.327a4.31,4.31,0,0,0,.942,5.966,2.743,2.743,0,0,1,.543.761c1.919,3.477,1.892,3.431,5.378,1.385a13.187,13.187,0,0,1,3.015-.851c-.462,3.259-.425,3.3-1.566,4.02-1.077.67-2.227,1.195-3.341,1.82-3.5,1.965-4.437,1.9-6.474-1.5-1.022-1.711-2.109-2.209-3.848-1.738-4.237,1.15-8.474,2.336-12.983,3.585a41.172,41.172,0,0,0-5.015-3.241,15.445,15.445,0,0,0-4.563-.96c-5.7-.743-11.344-2.979-17.175-.371a5.466,5.466,0,0,1-5.831-.851c-1.584-1.267-3.35-1.15-5.341-1.1-4.01.1-8.048-.48-11.986-.769a7.69,7.69,0,0,1-.326-1.938c.2-1.213.208-2.354-1.313-2.5-1.611-.154-2.154.932-2.317,2.372a5.517,5.517,0,0,0,1.484,4.228c2.707,3.621,2.526,3.676,6.274,1.512.779-.453,1.892-.3,2.852-.426l.616.933a18.265,18.265,0,0,1-2.39,2.96,19.818,19.818,0,0,1-3.322,1.811c-3.423,1.874-4.437,1.865-6.773-1.286-1.249-1.693-2.481-2.272-4.382-1.829a60.421,60.421,0,0,0-5.967,1.44c-5.559,1.9-5.541,1.956-6.437,6.844-.316-.824-.18-1.874-.633-2.5-1.34-1.856-2.616-4.626-4.437-5.1a120.736,120.736,0,0,0-17.147-2.843c-1.72-.19-3.658.643-5.35,1.349-1.983.833-4.156,1.82-5.83.308-3.4-3.069-6.727-1.413-10.467-.607.561,4.491-2.861,5.867-5.885,7.578s-4.725,1.675-6.482-1.078c-1.3-2.055-2.634-2.462-4.7-1.856-1.811.525-3.685.9-5.45,1.557-5.016,1.883-5,1.919-5.7,7.27-.425-1.141-.661-1.639-.805-2.164-1.177-4.155-2.716-5.324-7.025-6.093-2.3-.407-5.288-.751-6.582-2.281-2.571-3.042-6.075-2.372-9.18-4.083-1.286,5.35,3.929,7.551,4.509,11.815a15.671,15.671,0,0,1-3.975-2.743c-1.494-1.313-2.788-2.952-4.481-3.92-3.106-1.774-4.926-.761-5.686,2.762a9.653,9.653,0,0,1-10.3,7.369c-.888-.127-1.666-1.032-2.707-1.711A8.128,8.128,0,0,1,2714.3,429c1.919-.661,3.866-1.258,5.975-1.928a20.425,20.425,0,0,1-.263-2.255c-.063-5.712-2.861-7.369-8.049-4.717-2.788,1.422-4.661,1.041-7.333-1.086a28.552,28.552,0,0,0-5.5-3.558c-3.341-1.557-6.238-.743-8.674,2.055.272,1.476.535,2.942.815,4.445-3.893-.226-3.956-3.785-5.7-5.984-1.385,3.377-2.616,6.365-3.993,9.705-4.626-1.521-7.994-5.26-13.254-5.378-1.367,5.007,4.093,7.279,5.134,11.462-3.069-.064-3.775-2.264-5.242-3.839-1.594-1.711-4.083-3.332-6.3-3.5-2.5-.19-2.941,2.417-3.295,4.844-.67,4.463-7.514,7.379-11.661,5.251-.29-.154-.326-.779-.625-1.566,2.336-.788,4.545-1.53,6.845-2.3,0-1.2-.009-2.436,0-3.657.009-2.87-1.34-4.572-4.119-4.491-1.448.045-2.888.942-4.328,1.476-1.783.67-3.531,1.231-4.635-.969,1.3-2.3,4.781.018,5.631-3.7-2.209-.625-4.409-1.775-6.582-1.739-2.508.055-4.536-.77-6.763-1.53a10.51,10.51,0,0,0-5.958-.525,35.165,35.165,0,0,0-8.465,4c-4.653,2.9-9.053,2.2-13.879.335a20.83,20.83,0,0,0-11.968-1.1,21.8,21.8,0,0,1-6.428.806,9.76,9.76,0,0,0-9.46,4.128c-1.277,1.684-3.124,3.9-4.853,4.038a16.569,16.569,0,0,1-9.018-1.738c-2.688-1.5-4.861-1.784-7.541-.743-3.349,1.3-6.744,2.5-10.113,3.766-.245.1-.38.471-.588.733l.941,3.6-3.866,2.218c-.8-.589-1.412-1.059-2.047-1.5s-1.267-.851-1.783-1.195c-4.1,1.874-4.1,1.874-6.89.987a18.789,18.789,0,0,0,1.458-1.847c1.186-1.928.77-3.83-1.24-4.609a66.044,66.044,0,0,0-8.5-2.761c-3.132-.76-5.133.851-5.541,4.083-.117.942-.045,1.919-.244,2.834-.4,1.829-1.521,2.671-3.812,2.119v-4.8c-1.675.933-2.9,1.268-3.568,2.064a24.886,24.886,0,0,0-2.725,4.427c-.968,1.829-2.173,2.472-4.436,2.68-5.324.507-10.322-.924-15.455-1.576-.615-.081-1.159-.815-1.965-1.412l2.735-3.187c-3.794-2.843-8.8-3.422-14.07-1.811-.58-3.513-.634-3.422-3.649-5.4-3.386-2.236-6.881-3.015-10.819-1.693a19.458,19.458,0,0,1-3.739.444,36.274,36.274,0,0,0-4.681.625c-2.988.751-5.233,2.191-4.925,5.858.154,1.81-.226,3.567-2.508,3.9a4.679,4.679,0,0,1-1.511-.38v-3.657c-2.951-.9-3.821,1.312-4.862,2.924-3.9,6.048-4,6.256-9.615,1.946-2.218-1.7-4.128-2.517-6.862-1.892a4.943,4.943,0,0,1-3.6-.706c-3.8-2.788-8.248-2.345-12.241-1.729-2.951.453-5.179.1-7.107-1.132l-9.524,2.11a6.37,6.37,0,0,1-9.56,4.617,8.785,8.785,0,0,0-6.737-.932c-4.481.842-9.062,1.1-13.6,1.684a13.835,13.835,0,0,0-3.612.96c-2.97,1.295-5.894,2.725-8.636,4.011-6.293-6.066-6.293-6.066-9.136-3.9l1.838,2.644c-2.517,1.132-4.635,2.182-6.844,3.033a2.978,2.978,0,0,1-4.029-1.313c-2.879-4.427-7.225-5.133-12.078-4.291a55.233,55.233,0,0,1-5.577.733c-3.44.254-6.9.389-10.566.58l-2-3.4c-3.322,2.843-6.545,4.518-10.673,2.653a3.978,3.978,0,0,0-2.761.054c-3.821,1.53-7.741.253-11.607.462-3.051.172-7.995.48-10.566,1.865a1.135,1.135,0,0,1-.444.154c-2.888.091-3.368,2.254-3.558,4.961-3.422-.389-6.509-.779-9.605-1.059a10.465,10.465,0,0,0-3.232.172c-2.1.489-4.165,1.15-6.655,1.856l-2,3.178c-1.693-.525-3.232-.879-4.671-1.458-3.4-1.376-6.628-1.829-9.9.5a4.734,4.734,0,0,1-6.492-.561,15.489,15.489,0,0,0-2.245-1.512,23.582,23.582,0,0,1-14.812-.642l2.063-4.781a11.885,11.885,0,0,0-1.521.009c-1.982.317-4.273.136-4.436,3.141-.118,2.227,2.344,7.37,3.974,7.877,1.811.561,2.9-.589,4.156-1.621.534-.435,1.675-.145,2.535-.181-.172.987-.018,2.308-.6,2.879a20.99,20.99,0,0,1-3.975,2.526c-3.358,2.01-4.473,1.983-6.681-1.195a3.453,3.453,0,0,0-4.427-1.539c-4.165,1.322-8.3,2.716-12.792,4.192-1.729-2.2-4.1-4.111-7.65-3.6-.417.064-.878-.371-1.34-.425-5.886-.751-11.743-2.734-17.655.064a5.486,5.486,0,0,1-5.849-.725c-1.621-1.222-3.386-1.014-5.369-.887a108.324,108.324,0,0,1-11.6-.417l-.481-4.3c-2.2-.652-2.933.244-3.313,1.919-.534,2.345.978,3.757,2.109,5.414,1.72,2.508,2.309,2.761,4.717,1.132,1.177-.8,2.119-1.992,3.721-.951.779,1.693-.163,2.752-1.385,3.585-1.439.978-2.988,1.784-4.445,2.734-1.965,1.286-4.147.96-4.952-.869-1.548-3.513-3.984-3.051-6.664-2.29a61.857,61.857,0,0,0-7.17,2.426c-1.838.779-3.25,2.055-2.363,4.455.136.353-.217.887-.344,1.331a5.832,5.832,0,0,1-.987-2.318c-.969-2.363-2.1-4.762-4.9-5.287-4.925-.942-9.887-1.675-14.848-2.436-2.227-.344-4.373-.308-6.337,1.177-1.712,1.286-3.992,2.227-5.731.742-3.422-2.934-6.727-1.476-10.484-.6.281,4.844-3.639,6.174-6.781,8.148-2.083,1.313-4.527.923-5.433-1.023-1.576-3.386-3.9-2.59-6.346-1.983a41.611,41.611,0,0,0-4.934,1.666c-4.437,1.72-4.427,1.747-4.409,6.3,0,.117-.5.226-.761.344a2.656,2.656,0,0,1-.48-.743c-1.114-4.8-2.734-6.093-7.352-6.9-2.58-.453-5.631-1.023-7.415-2.68-2.689-2.49-5.93-1.82-8.891-3.558-1.059,5.459,3.92,7.506,5.2,11.661-2.888-.045-3.721-2.073-5.224-3.594a11.161,11.161,0,0,0-6.393-3.395c-2.634-.217-2.888,2.535-3.313,4.862-.824,4.391-7.569,7.478-11.707,5.6-.343-.163-.516-.706-1.159-1.63,2.7-.933,5.125-1.766,7.578-2.608a9.463,9.463,0,0,1-.308-2.01c.19-2.245.48-4.6-2.2-5.586a5.845,5.845,0,0,0-6.192.833c-2.3,1.829-4.645,1.2-7.306-.8a34.377,34.377,0,0,0-5.949-3.712c-2.933-1.367-5.812-.335-8.094,2.49l1,4.491c-4.019,0-4.082-3.585-5.794-6l-4.039,9.959c-4.861-1.612-8.464-5.333-13.743-4.907-.715,4.98,4.129,7.062,5.722,10.928-.552.118-1.168.435-1.376.263a23.51,23.51,0,0,1-3.676-3.413,8.738,8.738,0,0,0-6.808-3.7c-3.015.036-2.888,2.888-3.277,5.332-.733,4.527-7.859,7.252-12.132,4.9-.181-.091-.154-.552-.308-1.231l7.306-2.6a9.312,9.312,0,0,1-.452-2.9c.38-1.956.064-3.757-1.811-4.346a14.106,14.106,0,0,0-5.45-.181c-.832.081-1.53,1.168-2.39,1.421-1.484.453-3.079.688-3.8-1.186,1.186-2.345,4.807-.027,5.413-3.54a8.651,8.651,0,0,0-6.528-1.7c-2.372.29-4.209-.407-6.32-1.159-1.982-.706-4.508-1.2-6.419-.588a37.272,37.272,0,0,0-9.18,4.644c-3.848,2.58-7.94,2.39-11.86,1.223-5.522-1.648-10.81-3.069-16.369-.308a5.58,5.58,0,0,1-3.259.145c-4.59-.806-7.94.779-10.53,4.672-1.077,1.63-2.8,3.73-4.418,3.911-3.005.344-6.6.235-9.126-1.168a8.443,8.443,0,0,0-8.4-.317c-3.142,1.4-6.355,2.635-9.534,3.966-.253.109-.407.462-.724.824l1.14,3.477-3.585,2.182c-1.64-.878-3-1.612-4.156-2.228-2.381.806-4.147,2.988-7.053,1.485.47-.733.779-1.24,1.1-1.72,1.7-2.544,1.086-4.536-1.675-5.306-2.245-.634-4.518-1.213-6.772-1.837-4.436-1.223-6.591.326-6.691,4.925-.045,1.983-.027,3.911-2.481,4.473a3.864,3.864,0,0,1-1.367-.227l-.733-3.793c-2.39-.507-3.187,1.032-4.01,2.327-.843,1.331-1.359,2.87-2.236,4.165-.571.851-1.476,1.938-2.327,2.037a54.238,54.238,0,0,1-8.909.308,91.64,91.64,0,0,1-9.116-1.195c-.317-.055-.544-.688-.969-1.268l2.39-3.142c-4.762-3.739-9.6-1.856-14.449-1.213-.217-.851-.145-2.571-.905-3.114-3.622-2.553-7.4-4.943-12.258-3.73-2.272.561-4.663.661-6.908,1.286-2.264.625-4.781,1.2-6.474,2.644-1.1.942-1.068,3.359-1.322,5.151-.308,2.236-1.295,3.413-3.966,3.187-.145-1.412-.281-2.716-.479-4.653-1.34.67-2.508.887-3.052,1.593a33.562,33.562,0,0,0-2.888,4.862c-1.747,3.3-3.223,3.667-6.337,1.467-1.023-.733-1.975-1.575-3.034-2.254-.769-.5-1.711-1.267-2.462-1.159-3.513.507-6.89.9-9.878-1.693-.335-.29-1.259.208-1.829.045-5.025-1.43-10.14,2.643-15.155-.245-.318-.181-.915.063-1.368.181-2.716.76-5.433,1.539-8.157,2.317-.136.987.055,2.227-.461,3.015-1.512,2.354-6.093,3.712-8.492,2.309-2.435-1.421-4.609-1.249-7.234-.625-4.427,1.05-9,1.5-13.5,2.3-1.213.217-2.744.416-3.486,1.222-2.563,2.743-6.075,2.951-9.054,4.219-5.514-5.151-5.514-5.151-8.547-3.078l1.26,2.445c-.634.462-1.114.869-1.64,1.186-.815.489-1.647.951-2.5,1.367-3.767,1.82-3.74,1.774-7.034-1.3a26.454,26.454,0,0,0-2.8-1.747c-1.322-.96-2.562-2.019-3.839-3.033-6.274,4.726-13.952,3.359-21.185,4.807l-1.648-2.861c-2.716,1.177-5.423,3.459-7.741,3.115-5.278-.788-10.14,1.349-15.228,1.059a17.847,17.847,0,0,1-5.106-.589c-2.68-.986-4.871-1.385-6.392,1.7a2.793,2.793,0,0,1-1.748,1.458c-2.9.4-3.269,2.426-3.051,4.88-3.413,0-6.519-.018-9.624.009a13.952,13.952,0,0,0-3.649.245c-2.073.579-4.073,1.43-6.464,2.3l-1.928,3.25c-1.738-.407-3.3-.67-4.78-1.15-3.486-1.122-6.745-1.385-9.878,1.114a4.645,4.645,0,0,1-6.139.054c-1.593-1.2-3.159-1.123-5.242-.815-3.821.571-7.8.045-12.195-.027l1.539-5.088c-5.062.462-6.238,1.485-5.089,5.034a16.812,16.812,0,0,0,3.5,5.369c.407.471,1.838.326,2.68.072.679-.2,1.1-1.177,1.793-1.458a9.27,9.27,0,0,1,2.534-.317c-.144,1,.055,2.272-.5,2.915a16,16,0,0,1-3.432,2.481c-3.332,2.237-4.391,2.318-6.817-.616-1.394-1.684-2.734-1.982-4.517-1.3-4.092,1.557-8.157,3.187-12.068,4.717-1.856-.95-3.658-2.372-5.668-2.77-3.2-.643-6.545-.435-9.787-.887-3.838-.543-7.514-.57-11.055,1.295a6.494,6.494,0,0,1-6.772-.181,5.476,5.476,0,0,0-3.966-.661c-4.083,1.313-8.13.163-12.186.19-.244.009-.5-.344-.86-.607l-.272-3.513c-2.309-.48-3.15.4-3.341,2.381-.2,2.164,1.213,3.4,2.364,4.9,2.09,2.725,2.226,2.77,5.088.878A20.657,20.657,0,0,1,1405,524.22c1.131,2.282.172,3.314-1.005,4.21-1.132.86-2.326,1.639-3.522,2.408-2.49,1.6-4.427,1.648-6.183-.824-1.612-2.264-3.3-2.209-5.306-1.43-3.8,1.457-7.533,3.078-11.7,4.8-1.793-1.5-3.468-3.576-6.945-3.214-3.639.371-7.442-.725-11.154-1.259-2.725-.4-5.314-.552-7.668,1.358a5.332,5.332,0,0,1-6.99.263c-.951-.643-2.526-1.2-3.477-.851-2.961,1.087-5.858.815-8.873.652-4.364-.245-4.372-.072-5.648-3.92-3.368,1.521-3.368,1.521,1.014,8.71,3.25,1.883,4.137-4.156,7.487-2.046.571,3.766-2.679,4.391-4.7,5.858-3.142,2.282-4.591,2.272-6.845-.561a3.551,3.551,0,0,0-4.473-1.395,51.266,51.266,0,0,0-5.35,1.874c-5.142,2.327-5.124,2.372-5.351,8.365-.588-1.7-.859-2.481-1.14-3.259-1.186-3.378-3.3-4.745-6.872-5.089-2.336-.226-5.333-.262-6.754-1.675-2.78-2.743-6.266-2.073-9.244-3.594-.553,3.069-.553,3.069,5.07,11.19-2.073-.027-3.649-.489-4.382-2.272-1.05-2.553-3.467-3.115-5.586-4.056a3.334,3.334,0,0,0-4.473,2.191,11.517,11.517,0,0,0-.181,1.874,9.306,9.306,0,0,1-10.185,7.487c-.67-.118-1.259-.779-2.6-1.657,2.961-1.276,5.314-2.29,7.624-3.277-.181-1.132-.444-2.2-.516-3.286-.263-4.1-4.155-6.03-7.687-3.775-3.8,2.435-4.636,2.3-8.321-.308a22.093,22.093,0,0,0-5.83-3.042c-4.545-1.467-7.324.76-7.125,5.387.009.253-.307.516-.525.86-3.8.933-2.625-3.667-4.979-4.672l-2.734,9.8c-5.287-.263-8.628-5.2-13.988-3.938-.688,4.853,3.965,6.781,6.237,10.964-2.454-.145-4.065-.724-4.9-2.526-1.132-2.472-3.414-3.205-5.6-4.029a3.256,3.256,0,0,0-4.446,2.246,18.475,18.475,0,0,0-.144,2.354c-.634,4.2-6.654,7.931-10.746,6.654-.607-.19-1.186-.462-1.784-.7l.516-1.2c2.517-.977,5.025-1.964,7.352-2.87-.344-1.25-.779-2.408-.987-3.612-.67-3.757-4.02-5.478-7.325-3.649-.95.525-1.7,1.521-2.7,1.829-1.5.471-3.1.48-3.314-1.657,1.6-1.557,4.518,0,5.369-2.96-2.091-2.1-4.88-2.236-7.36-1.856-1.911.29-3.251-.281-4.9-.751-2.2-.616-4.8-1.213-6.863-.6a29.778,29.778,0,0,0-8.248,4.418c-4.455,3.123-8.99,3.142-13.825,1.222a8.262,8.262,0,0,0-3.2-.57c-3.839.136-7.886-1.141-11.426,1.566a3.311,3.311,0,0,1-2.317.172c-5.052-.95-8.411,1.087-11.019,5.405-2.309,3.848-9.47,5.45-12.838,2.589-2.825-2.408-5.2-1.485-7.74-.507-3.205,1.231-6.284,2.8-9.4,4.246-.263.127-.434.443-.842.878l1.041,3.467-3.467,2.436-4.11-2.118c-2.345.616-4.056,3.033-6.935,1.394.516-.779.869-1.268,1.167-1.774,1.439-2.39.815-4.21-1.8-4.971-2.408-.706-4.834-1.358-7.288-1.892-3.965-.878-5.993.769-5.975,4.807.009,2.11.227,4.273-2.544,4.853-.4.081-.869-.217-1.268-.317l-.688-4.047c-3.223,1.312-3.133,1.358-4.934,4.853-.752,1.466-1.766,3.558-3.033,3.866-6.174,1.53-12.331.5-18.941-.851l2.345-4.119c-4.382-3.739-9.262-1.358-13.9-1.267-1.493-4.436-7.732-7.7-12.584-6.618-2.6.579-5.26.915-7.813,1.657-2.1.607-4.427,1.267-5.966,2.653-.978.887-.824,3.151-.969,4.807-.19,2.209-1.041,3.576-3.7,3.513a12.8,12.8,0,0,1-.5-1.747,21.3,21.3,0,0,1-.126-2.164c-2.047-.561-3,.552-3.748,1.766-.833,1.331-1.449,2.807-2.191,4.2-1.54,2.888-2.544,3.368-5.179,1.612a6.947,6.947,0,0,0-5.785-1.114c-4.8,1.05-4.9.933-7.116-4.291-2.5,0-5.559-.761-7.895.217a5.97,5.97,0,0,0-3.73,6.319c-2.563.643-4.69,1.2-6.827,1.684-.733.163-1.765.453-2.227.1-2.607-1.947-5.26-1.53-8.112-.715a9.132,9.132,0,0,1-3.712-.217c-3.521-.561-7.016-1.2-10.665-1.82-2.816-4.907-2.816-4.907-5.016-4.617a2.753,2.753,0,0,0,.407.815c1.024.969,2.553,1.847,1.729,3.495-.923,1.874-2.58,1.068-4.174.788-2.49-.435-5.188-.742-7.107,1.385-2.182,2.418-4.844,2.236-7.442,1.549-2.617-.688-5.613-1.295-5.677-4.8-3.992-1.15-5.124,2.055-6.709,3.811-2.073.091-3.947-.253-5.459.335-3.44,1.349-5.224-.417-7.343-3.042l3.7-1.666a30.6,30.6,0,0,0-2.752-2.58c-2.916-2.155-8.365-.154-8.655,3.359-.308,3.8-2.852,5.07-5.795,5.984a20.519,20.519,0,0,1-6.048,1.087c-4.274-.027-8.909,1.349-12.214-3.133-.942-1.276-2.861-1.874-4.4-2.643-2.028-1.014-3.585-.181-3.649,1.946-.045,1.548.271,3.105.154,4.645-.054.661-.779,1.268-1.611,2.526l-.969-3.232c-1.883-.733-3.63-1-4.807-1.973-3.4-2.77-7.478-1.793-8.872,2.4-.335,1-.507,2.073-.824,3.432-2.381-.181-4.545-.335-7.052-.525-.969,1.938-2.391,3.341-5.052,2-.624-.308-1.765.217-2.589.543-1.757.688-3.079.7-3.613-1.53a1.948,1.948,0,0,0-1.131-1.295c-4.373-.778-7.1-4.445-10.937-6.138-3.042.5-3.8,3.522-5.767,5.125s-4.726,2.236-7.433,3.422c2.137,4.1,2.7,7.886.516,11.915-1.014,1.883.544,3.4,3.024,3.567,1.2.081,2.635-1.286,3.866.48l-7.406,3.54-4.255-1.576c-2.861,4.192-.869,9.063-2.218,13.463-2.3-.742-3.151-1.9-2.282-3.712a2.657,2.657,0,0,0-1.068-3.694c-3.1-2.055-6.319-3.911-9.923-6.111a47.129,47.129,0,0,0-3.331,5.6c-1.276,3.06-1.892,3.639-5.3,2.861-2.58-.579-4.971-.76-6.809.725v6.03c6.157,1.892,6.3,2.154,3.721,7.686,1.8.281,3.069,1.014,2.662,3.3-.127.688,1.548,1.8,2.526,2.544,1.131.851,2.771,1.24,3.558,2.3,3.079,4.173,7.189,4.8,11.842,3.938,1.458-.262,3.2-.652,3.64,1.059.271,1-.76,2.345-1.249,3.649,1.276,3.114,4.137,2.689,7.152,2.453-3.459,2.363-2.951,5.785-2.924,9.868-1.955-1.177-3.775-1.657-4.373-2.779-.779-1.485-.6-3.468-.833-5.242-3.911.878-4.337,1.684-2.363,4.68.924,1.394,1.947,2.734,3.052,4.274l-4.264,3.956c1.249,2.264,2.408,4.282,5.432,3.739,1.53-.281,3.368-1,4.129,1,.96,2.526-1.675,2.508-2.879,3.495-.154.127-.072.543-.109.978l4.98.353,3.7,7.678c-3.595.3-6.455,2.526-9.878,1.014-.534-.235-1.839,1.268-2.951,2.092l2.824,3.957-2.118,4.11,5.812-2.472c.444,3.658.879,6.7-.842,9.959l-3.06-2.118c-1.358,1.956-2.653,3.812-4.256,6.121,5.849.76,3.667,4.672,4.011,7.5l-3.631,1.575c3.133,1.458,6.573,1.7,6.447,5.858-2.752,2.29-5.324-3.2-8.077-.027,3.088,3.911,7.587.969,11.552,2.571-1.086,2.282-1.521,5.079-3,5.813-1.892.942-4.608.226-7.243.226-1.875,3.087,2.571,1.295,2.87,2.852-1.367,2.462-3.123.063-4.509.444-1.512.416-2.834,1.566-4.517,2.553l-1.793-7.025c5.532-2.58,4.907-6.573,2.553-10.837-3.232-1.295-5.07.715-6.809,3.177l-4.735-2.7-2.489,3.042c3.186,1.792,7.415,2.091,7.895,6.691.416,3.957-1.974,5.858-5.74,6.338,2.345,3.531,4.427,6.482,8.692,7.107,2.037.3,2.58,2.345,1.928,3.975,1.719-.534,3.331-1.5,4.87-1.413,3.224.19,6.419.942,9.968,1.521l1.005,3.993,4.454,1.928c-.905,1.295-1.367,2.616-2.281,3.124-1.041.588-2.481.444-3.975.652,0,2.933.389,5.939-.118,8.791-.48,2.68-.317,4.617,2.643,5.641-1.576,2.109-3.441,4.309-1.286,6.111,1.422,1.186,3.993,1.014,6.129,1.467-2.3,2.173-1.032,4.436-.19,6.663,1.539.425,3.331.389,4.092,1.249,1.531,1.738,3.359,1.566,5.2,1.656,2.362.127,4.752-.036,7.1.209a32.385,32.385,0,0,1,5.034,1.349l-1.739,3.757c5.922,2.254,6.691,3.223,6,7.361a28.281,28.281,0,0,0-3.721.036,33.234,33.234,0,0,0-4.155.96c-1.385.362-2.263,1.168-1.983,2.734.308,1.72,4.327,4.817,6.129,4.644,3.242-.308,2.028-2.951,2.4-4.753.035-.136.181-.254.271-.381,3.549-.416,3.549-.416,4.943,4.871,5.025-.091,8.891,2.2,11.1,7.2.57,1.295,1.385,2.1.9,3.775-.689,2.308.633,3.332,3.006,2.852.778-.154,1.874-.407,2.381-.027,1.8,1.349,3.558.914,5.423.371,1.023-.3,2.073-.489,3.033-.7.48.589.806.924,1.068,1.313,2.553,3.739,4.943,4.2,8.664,1.593.643-.452,1.15-1.113,1.829-1.5,2.625-1.484,4.7-.788,6.292,1.992-1.5.6-3.024,1.213-4.635,1.856l1.24,4.971c2.49.48,5.179.987,7.868,1.53-2.426,2.336-3.739,5.9-7.687,6.482,1.023,1.168,2.291,1.974,2.544,3.024a9.394,9.394,0,0,0,4.6,6.012c.353.217.443.869.832,1.693a9.589,9.589,0,0,0-5.5,7.541,7.4,7.4,0,0,0,.933,4.708l-1.431.2.072.8h1.911a35.98,35.98,0,0,1,2.01,3.44l-1.439,3.513c1.738,1.331,3.023,2.309,4.309,3.286.951.435,2.662.38,3.169-.426a17.455,17.455,0,0,0,2.87-6.763c.29-2.544.525-4.735,2.372-6.736.715-.779.57-2.354.77-3.5a4.67,4.67,0,0,1,3.639,4.328,2.456,2.456,0,0,0,.724,1.222,5.135,5.135,0,0,0-.462,4.853c-3.567,2.671-3.54,2.653-1.43,5.994.624.978.978,2.136,1.575,3.141,2.336,3.984,1.938,5.867-2.019,8.447,0,.679.036,1.458,0,2.236-.163,2.988-1.231,4.391-4.02,4.717a8.253,8.253,0,0,1-3.3-.8c-1.711-.589-3.368-.842-4.717.67a3.18,3.18,0,0,0-.236,4.31,3.678,3.678,0,0,1,.281,1.159l-3.4,1.874a1.838,1.838,0,0,0,2.9.444,9.773,9.773,0,0,1,8.565-1.322c.869,1.612,1.72,3.178,2.7,5-.9.842-1.611,1.983-2.607,2.327-3.431,1.186-6.754,3.024-10.583,2.508a6.7,6.7,0,0,0-6.836,2.988c.407.552,1.213,1.295,1.086,1.539-1.358,2.562-1.059,5.912-3.775,7.841-.8.561-2.027,1.448-1.974,2.082a18.329,18.329,0,0,0,1.494,5.939c.417.9,1.947,1.286,2.979,1.919-1.666,3.232-.38,5.432,3.4,5.686a22.141,22.141,0,0,1,6.121.915,5.893,5.893,0,0,0,3.213.4,52.67,52.67,0,0,1,7.253-.09l-2.056,6.636-1.729-3.613-7.035,2.164c2.906,2.888-.5,2.906-1.848,4.482,2.789.5,5.2.552,7.27,1.412,2.182.914,4.056,2.589,6.211,4.02-1.811,3.811,1,6.41,2.01,9.878,2.744-2.028,4.2,1.1,6.863,1.566l-2.942,1.358a25.513,25.513,0,0,0,3.521,3c1.214.661,2.97.534,3.259,2.363.254,1.539.851,3.26.417,4.617-1.2,3.694-.055,6.048,3.322,7.388V979.5l5.314-1.331c-1.177,1.974-1.855,3.069-2.481,4.192-.67,1.2-1.285,2.409-2.037,3.839l-2.526-1.657-5.641,1.494-1.132,4.79c3.232.932,3.2.932,2.97,4.672a35.4,35.4,0,0,0,.217,3.929L880,998l-2.8,3.278c1.566.371,2.39.625,3.232.76,1.675.271,3.4.335,5.025.761,4.038,1.05,5.107.616,6.99-3.3.144-.3-.009-.742-.037-1.3l-2.879-.8-.171-2.653c-1.367-.915-3.531.055-3.966-2.137,3.911-2.1,6.926-.9,9.09,4.011a5.077,5.077,0,0,0,3.422,2.825,14.653,14.653,0,0,0,2.961.344L898.9,1004.7c1.8,1.956,3.431,3.73,5.613,6.1,2.725.869,5.867-.624,8.836-2.209,1.422-.76,2.635-1.2,4-.488,1.8.941,3.44.48,5.287.154,2.4-.425,5.115-.7,7.343.036,3,1,7,1.213,7.55,5.6,2.662.725,4.463-.733,6.229-2.028,3.06-2.236,6.193-2.617,9.516-.724,1.819,1.032,3.6,1.512,5.541.244.362-.235,1.186-.335,1.43-.1,1.829,1.729,3.215.869,4.726-.516.5-.462,1.413-.462,2.083-.652,2.924,4.771,3.929,5.079,8.746,2.463,1.875-1.014,3.431-1,4.771.778,2.48-3.495,4.817-3.648,7.994-.887.643.561,1.675.67,2.934,1.14-.336-1.25-.816-2.137-.6-2.363,1.729-1.784,3.63-3.368,5.993-3.585l7.74,5.812a12.505,12.505,0,0,1,6.972-3.549c2.146-.362,4.762-1.195,6.455-.362,3.431,1.693,6.781.969,9.832.181a6.75,6.75,0,0,1,5.2.344c1.331-.589,2.372-1.123,3.467-1.5,1.213-.434,2.471-.724,3.911-1.132-1.132-2.164.054-3.3,1.62-4.2,1.476-.851,3.033-1.838,4.762-.725,1.884,1.2,3.6.77,5.586.136,3.341-1.078,6.826-1.684,10.222-2.58a10.866,10.866,0,0,0,2.779-1.322c2.155-1.313,4.256-2.7,6.211-3.956,1.358,1.15,2.263,1.9,3.159,2.662,1.051.9,2.336,1.747,3.413.507.444-.516-.171-1.956-.316-3.069,1.928-1.422,3.721-3.187,5.794-3.332,2.9,2.073,5.341,3.821,7.6,5.432,4.953-3.513,10.756-3.44,16.342-4.509l1.738,2.354c2.435-2.263,4.943-4.119,8.465-2.833.507.19,1.249-.218,1.874-.4,3.848-1.1,7.714-2.1,11.707-.661a2.65,2.65,0,0,0,3.177-.77c1.259-1.394,2.581-2.725,4.156-4.373V983.4a42.557,42.557,0,0,1,6.464-.344c4.346.416,7.487-1.395,10.195-4.826a16.544,16.544,0,0,1,2.934.489c2.933,1.014,5.595,1.023,8.048-1.249a3.359,3.359,0,0,1,4.672-.154c1.385,1.068,2.671.67,4.318.362,2.907-.552,5.985-.154,9.272-.154l-.987,4.183c4.255-.679,5.242-2.87,2.9-5.985a20.8,20.8,0,0,1-1.422-1.81c-.914-1.539-2.046-1.412-3.278-.507-.859.643-1.656,1.376-3.169,2.652,0-1.7-.3-2.68.055-3.06a22.586,22.586,0,0,1,4.31-3.911c3.006-1.883,3.829,1.657,5.631,2.689,4.237-.571,7.65-2.743,11.162-5.143a8.047,8.047,0,0,0,7.261,2.662c.236-.036.5.181.752.19,4.518.118,9.072,1.041,13.382-1.457,1.022-.6,2.716-.145,4.083,0,1.123.126,2.227.8,3.323.742,3.313-.154,6.618-.552,10.086-.869l.959,4.265c.987-.915,1.92-1.376,2.037-1.992a4.612,4.612,0,0,0-1.394-4.2c-2.427-2.68-2.236-2.788-4.862-.67-.488.4-1.3.4-2.852.832.679-1.62.86-2.643,1.449-3.313a28.723,28.723,0,0,1,3-2.508c1.494-1.286,3.286-1.186,4.137.272,1.648,2.816,3.694,1.784,5.767,1.114a21.687,21.687,0,0,0,3.178-1.521c3.414-1.8,3.414-1.811,3.522-5.541.28.543.226,1.295.58,1.675,1.285,1.376,2.544,3.467,4.1,3.775a70.725,70.725,0,0,0,12.394.987,8.577,8.577,0,0,0,4.274-1.521c1.711-1.059,3.286-1.666,5.07-.4,1.412,1,2.707.778,4.382.434,2.987-.607,6.138-.489,9.2-.679l.915,4.228c.941-1.2,1.692-1.747,1.828-2.408.353-1.7-.814-2.789-1.828-4.029-1.829-2.218-1.829-2.3-4.057-.543a24.446,24.446,0,0,1-3.232,1.738c.471-1.874.416-2.96.932-3.459a16.928,16.928,0,0,1,4.626-3.558c2.49-1.1,3.558,1.449,5.26,3.106,1.883-.688,3.884-1.268,5.74-2.137s3.576-2.037,5.486-3.142c1.766,1.92,3.722,3.069,6.51,2.762,1.448-.154,3.54.235,4.418,1.213,2.119,2.363,4.916,1.44,7.325,2.58-.055-3-.055-3-4.9-9.017a2.841,2.841,0,0,1,3.621,1.44c1.322,2.526,3.639,3.123,5.794,3.884a3.689,3.689,0,0,0,2.354-3.884c-.018-3.64,4.147-6.926,7.759-6.356.544.081,1.024.616,2.055,1.276l-5.531,2.988a9.617,9.617,0,0,1,.217,2.635,2.729,2.729,0,0,0,2,3.349,4.191,4.191,0,0,0,4.409-.488c2.318-1.92,3.45-1.775,5.858-.218a21.18,21.18,0,0,0,5.133,2.716c3.7,1.123,5.559-.552,5.442-4.527,0-.2.271-.417.452-.67,2.861-.715,1.811,3.06,3.839,3.531.615-2.779,1.2-5.414,1.8-8.084,4.093.244,6.836,3.956,11.127,3.187.48-4.092-3.657-5.632-5.124-8.945a3.331,3.331,0,0,1,3.884,2c.888,1.919,2.671,2.39,4.355,3.078,1.766.733,2.752-.308,3.377-1.711a9.035,9.035,0,0,0,.235-2.309c.462-3.223,4.41-6.22,7.633-5.731.535.081,1,.634,2.1,1.385l-6.129,2.571a10.95,10.95,0,0,1,.77,3.151c-.1,2.227,1.25,3.006,3,3.458a19.008,19.008,0,0,0,2.689.326c1.159,3.177,4,3.015,6.492,2.77a9.041,9.041,0,0,1,4.056.452c1.667.543,3.758.978,5.3.435a26.32,26.32,0,0,0,7.044-4.047c3.4-2.617,6.88-2.571,10.646-1.213a6.929,6.929,0,0,0,2.643.435c3.052-.145,6.284.724,8.991-1.576a2.2,2.2,0,0,1,1.53-.154c4.264.679,6.962-1.186,8.782-4.971.561-1.177,1.992-2.77,3-2.752,3.1.063,6.673-1.24,9.153,2.481,3.984-1.928,7.813-3.784,11.833-5.74l-.977-3.368,2.806-1.992,3.142,1.675c1.847-.534,3.106-2.49,5.414-1.186-.426.688-.743,1.213-1.068,1.747a2.062,2.062,0,0,0,.959,3.269,40.443,40.443,0,0,0,8.293,1.946c1.648.181,2.924-1.059,3.015-2.961.045-.915-.054-1.829-.036-2.744.036-1.521.67-2.5,2.571-2.435l1.331,3.323c2.571-.733,2.87-2.852,3.558-4.6a4.583,4.583,0,0,1,3.866-3.2c4.364-.914,8.474.534,12.7.552.145,0,.29.4.58.824-.471.842-.987,1.784-1.612,2.924,3.883,2.354,7.478,1.24,10.91.371.607,1.005,1.005,2.445,1.938,3.033,3.132,1.983,6.409,3.676,10.294,1.575.969-.525,2.327-.308,3.414-.688,1.829-.634,3.911-1.114,5.269-2.345.9-.815.824-2.806.978-4.3.154-1.6.507-2.833,2.671-2.761l1.132,3.241c3.947-1.086,3.2-5.314,5.722-7.659,1.167.57,2.435,1.122,3.63,1.8,1.113.634,2.345,2.2,3.187,1.992,3.585-.869,6.826.38,10.094,1.168,3.966.951,7.823-2.535,11.761-.118.217.136.724-.172,1.086-.3,2.073-.715,4.147-1.449,6.22-2.173.008-2.517.217-2.987,2.055-4.047,1.512-.878,3.105-1.576,4.8-.5a5.008,5.008,0,0,0,4.472.661c3.857-1.2,7.633-2.762,11.788-2.789a5.481,5.481,0,0,0,2.49-1c2.291-1.358,4.536-2.8,6.673-4.12,1.394,1.213,2.408,2.046,3.35,2.943,1.032.969,2.245,1.847,3.358.543.489-.579.082-1.928.082-3.4,1.6-1.213,3.594-2.879,6.41-3.033a8.756,8.756,0,0,0,9.814,4.165c4.563-.923,9.081-2.037,13.671-3.078l1.828,3.051c2.345-2.635,4.917-4.437,8.6-3.142.535.19,1.268-.145,1.9-.281,4.02-.833,7.995-2.227,12.15-.7a2.886,2.886,0,0,0,3.486-.978c1.15-1.313,2.526-2.445,4.038-3.875l.335-2.635c2.7,0,5.233.389,7.578-.1,3.214-.67,6.935-.851,8.628-4.97a33.986,33.986,0,0,1,3.739.7c2.8.833,5.342.878,7.7-1.267a3.5,3.5,0,0,1,4.708-.127c.634.444,1.349.788,2.2,1.277,3.458-2.68,7.315-.525,11.226-1.15l-.489,4.409c3.948-.932,4.907-3.313,2.771-6.129-.226-.308-.644-.462-.888-.761-2.154-2.58-2.118-2.544-4.708-.679a8.579,8.579,0,0,1-2.462.742c.543-2.616.543-2.616,2.752-4.391,3.549-2.861,3.784-2.833,6.79.779.154.172.462.226.86.417,4.111-.507,7.56-2.906,11.254-5.088a6.422,6.422,0,0,0,6.591,2.607c.353-.054.751.263,1.131.272,4.518.118,9.063,1.077,13.4-1.358,1.024-.579,2.707-.091,4.066.073,1.122.136,2.417,1.032,3.277.688,3.1-1.2,6.229-.154,9.3-.552.209-.028.462.226.879.452l.381,2.68c1.539.616,2.29.081,2.435-1.213.217-1.8-.589-3.115-1.848-4.463-1.983-2.119-1.828-2.227-4.182-.48a15.6,15.6,0,0,1-2.734,1.222c.226-1.4.09-2.381.507-2.77a19.352,19.352,0,0,1,4.9-3.8c1.911-.851,2.988.951,3.948,2.409.19.3.607.443,1.439,1.032,3.377-1.584,6.989-3.277,10.792-5.07,1.458,1.965,3.586,2.716,6.274,2.634a33.257,33.257,0,0,1,6.935.7c2.427.434,4.627.534,6.646-1.249,1.557-1.385,3.214-1.295,5.025-.109a5.82,5.82,0,0,0,3.241.507c2.716-.108,5.414-.443,8.13-.57a1.609,1.609,0,0,1,1.9,1.91,8.126,8.126,0,0,0,.751,2.2c.7-1.159,1.458-1.847,1.331-2.309a16.57,16.57,0,0,0-1.693-4.174c-1.213-2.055-1.756-2.146-3.54-.751-.915.724-1.594,1.874-3.187.543.263-.715.344-1.766.905-2.272a16.128,16.128,0,0,1,4.726-3.4c2.172-.806,3.033,1.44,4.164,2.8.146.181.462.226,1.169.534,1.838-.724,4.056-1.476,6.156-2.472,3.033-1.448,3-1.53,2.689-5.07-.009-.073.39-.19.6-.29a2.291,2.291,0,0,1,.417.6c1.159,3.893,2.155,4.654,6.021,5.179,1.657.217,3.875.389,4.771,1.466,1.946,2.354,4.68,1.648,7.188,3.169.879-4.563-3.1-6.346-4.635-9.615,1.875-.018,3.079.534,3.63,1.738,1.124,2.427,3.287,3.2,5.387,4.02,2.146-.7,2.309-2.2,2.381-4.074.135-3.3,4.164-6.383,7.433-5.84.624.109,1.15.824,2.163,1.594l-5.55,2.535c.136,1.023.3,1.919.362,2.825.226,3.223,3,4.735,5.686,3.078,2.978-1.847,3.431-1.756,6.065.362a10.956,10.956,0,0,0,3.966,2.39,8.412,8.412,0,0,0,4.771-.371c1.738-.706.887-2.436.651-3.811-.035-.19.226-.425.4-.706,3.024-.543,1.865,2.924,3.685,3.929l2.164-7.859c3.93.58,6.319,4.074,10.375,3.667.544-3.911-2.752-5.912-4.744-8.727a2.293,2.293,0,0,1,3.431,1.059c1.132,2.562,3.268,3.585,5.558,4.508,2.418-1.548,2.418-1.548,2.59-3.458a6.917,6.917,0,0,1,7.886-6.075c.57.1,1.023.851,1.928,1.666l-6,2.055a10.953,10.953,0,0,1,.471,2.988c-.3,2.381,1.059,3.278,2.97,3.911.842.272,1.982.534,2.354,1.168,1.375,2.381,3.766,2.39,5.867,2.435a15.1,15.1,0,0,1,5.242,1.086,6.926,6.926,0,0,0,4.536.335,29.61,29.61,0,0,0,6.736-3.839c3.277-2.39,6.537-1.9,9.968-.616a12.989,12.989,0,0,0,3.341.778c2.8.235,5.677,1.15,8.285-.9.4-.308,1.285-.127,1.91,0,3.9.8,6.528-.77,8.465-4.129.679-1.177,1.938-2.752,3.005-2.815,2.391-.136,5.179-.054,7.144,1.086a6.056,6.056,0,0,0,6.184.362c2.362-1.059,4.762-2.037,7.134-3.078.217-.091.362-.362.706-.734l-.888-2.843,2.888-1.992,2.933,1.765c1.91-.072,3.314-2.182,5.414-.615-.4.57-.715.96-.96,1.385-1.05,1.838-.661,3.359,1.177,4.065,1.929.743,3.911,1.367,5.9,1.946,2.716.788,4.319-.317,4.6-3.1.081-.779.028-1.576.136-2.354.208-1.476.906-2.435,2.852-2.127l.543,3.151c.616,0,1.2.154,1.332-.027,1.593-2.191,3.114-4.436,4.672-6.7,2.915,0,5.894-.018,8.872.009,1.5.018,2.581,1.44,4.437.932,1.6-.435,1.992.733.933,2.454-.244.4-.516.787-1.014,1.548,3.766,2.517,7.406,1.983,11.036.833.172.942,0,2.372.588,2.843,2.643,2.119,5.342,4.337,9.172,3.531,1.9-.407,3.82-.724,5.749-.978,4.01-.525,5.278-1.729,5.749-5.8.2-1.711.6-3.1,3.051-2.807l.235,4.047c1.295-.869,2.263-1.231,2.788-1.919a30.905,30.905,0,0,0,2.1-3.757c1.286-2.363,2.083-2.544,4.255-.951.308.227.561.543.851.806,1.884,1.711,3.839,3.042,6.646,2.318a3.337,3.337,0,0,1,2.59.579c2.716,2.291,6.074,1.783,8.935,1.421,2.463-.317,4.5-.326,6.238.8,1.467-.435,2.571-.824,3.7-1.1s2.282-.4,3.342-.579c.887-4.255,4.219-5.867,7.768-3.793a5.976,5.976,0,0,0,4.473.579c3.585-.634,7.052-2.073,10.828-1.512a3.287,3.287,0,0,0,2.543-.733c2.046-2.182,4.834-2.282,7.243-3.241l2.807,3.105c.851.951,2.018,1.747,3.014.751.507-.507.091-1.938.091-3.277,1.938-.942,3.947-2.78,6.3-2.5l2.372,2.209c-1.448-.344-2.679-.227-3.576.96-2.4,3.169-4.9,5.894-9.425,4.581-3.16,4.155-8.484,3.631-12.476,5.858a9.992,9.992,0,0,1-5.876,1.458,15.967,15.967,0,0,0-11.172,3.721c-3.64,2.87-7.225,4.4-11.943,2.7a12.213,12.213,0,0,0-12.249,2.472c-2.743,2.3-4.889,3.5-8.547,1.792-3.368-1.584-5.161-.226-6.737,3.929.978.878,2.01,1.8,3.377,3.024l-4.237,3.893c-1.757-2.49-3.178-4.509-4.934-7-3.739,1.557-7.533,3.123-11.308,4.726-1.285.543-3.069.878-3.622,1.865-.524.932.272,2.607.58,4.544-2.336.19-4.681.987-6.591.4a5,5,0,0,0-5.277,1,9.811,9.811,0,0,1-7.578,2.417c-1.2-.127-3.2.616-3.676,1.548-1.729,3.4-4.156,4.047-7.587,3.178-1.123-.29-2.462.3-4.137.561,1.358-1.938,1.1-3.078-.625-4.174-2.589-1.657-4.989-.534-7.442.073-3.232.806-3.929,2.064-2.87,5.124a13.179,13.179,0,0,0,1.032,1.983c-3.566,4.047-6.364,4.907-9.886,3.178l1.512-5.07c-3.305-.905-4.907,1.132-6.365,2.59-.987.987-.96,2.988-1.476,4.862-3.187-.688-5.93.8-8.683,2.309a7.7,7.7,0,0,1-7.46.127c-2.979-1.584-4.609-.923-6.284,1.847-.9,1.494-2.372,3.187-4.78,2.417-1.167-1.3-.579-4.509-3.35-3.875a10.054,10.054,0,0,0-4.508,3.106c-.544.579.1,2.127-.163,3.141-.29,1.114-.743,2.644-1.584,3.06a29.119,29.119,0,0,1-5.912,1.729c-2.255.571-2.924-.081-3.214-2.6a9.748,9.748,0,0,0-1.177-2.644c-.914.516-2.155.833-2.662,1.612a19.111,19.111,0,0,0-1.494,4.246c-3.957-1.141-6.763.19-9.371,3.168-3.123,3.568-5.332,2.834-6.962-1.783-3.124-.453-5.831-.281-8.221,2.517-1.594,1.865-4.137,3.015-6.419,4.137-1.005.5-2.436.217-3.667.163a27.568,27.568,0,0,1-3.332-.661c2.291,1.874,4,3.033,2.454,5.233-3.821.96-5.912-1.992-8.791-3.938-2,1.394-3.966,2.734-5.912,4.1a5.427,5.427,0,0,1-5.305.987c-2.11-.634-4.726-.091-6.989.453-1.928.453-2.29,2.417-2.7,4.219a3.48,3.48,0,0,1-1.63,2.218c-3.367,1.458-6.735,3.332-10.583,2.716-2.028-.326-3.748-.308-5.469.968a7.626,7.626,0,0,1-2.689.752c-1.848.434-3.7.815-5.541,1.286-1.385.353-2.834,1.349-4.1,1.132-2.771-.471-4.627,1.222-6.664,2.29-2.68,1.4-4.988,3.5-7.65,4.943-1.611.878-3.666,1.7-5.378,1.458-3.54-.5-6.98-1.729-11.262-2.87-2.979,3.649-6.464,7.913-9.941,12.168l-.471-.951c-2.571.38-5.151.76-7.994,1.177l-2.227-3.205c-3.776,5.8-10.348,4.011-14.957,6.944-4.075-3.956-8.266-4.7-12.386-2.182-1.919,1.168-4.218,2.272-5.342,4.038-1.91,3.024-4.608,2.843-7.478,3.25-.435-.869-.779-1.584-1.15-2.272-.452-.833-.932-1.648-1.71-3.006-1.947,2.118-3.2,3.286-4.2,4.627-1.033,1.385-1.821,2.951-2.753,4.5-3.567.217-7.152,1-10.565.525-5.921-.833-9.715,2.173-13.436,6.057l-2.852-3.657c-1.467,2.137-1.467,2.137-.987,6.582-3.223.96-6.5,1.684-9.569,2.934a9.062,9.062,0,0,1-5.016.679c-3.8-.525-7.587-.67-10.421,3.033a6.242,6.242,0,0,1-4.626,2.191,16.5,16.5,0,0,0-9.19,2.363,7.7,7.7,0,0,1-2.752.733c-2.626.29-5.26.489-7.895.725a.523.523,0,0,1-.842.2c-4.608-3.947-7.823-3.92-12.648-.045-1.458,1.168-3.123,2.073-4.844,3.205-1.331-2.082-2.427-3.784-3.722-5.794-2.571,1.711-4.924,3.277-7.26,4.826l-.643,3.938c-5.26-1.675-9.914.344-14.739,1.023-6.32.887-12.1,2.653-16.912,6.989a1.482,1.482,0,0,1-.435.209c-1.783.724-3.613,1.331-4.41,3.431-.118.317-1.385.19-2.362.308.633-2.028,3.63-2.418,1.846-4.989-1.1.507-2.218,1.113-3.4,1.53-2.082.733-4.192,1.865-6.31,1.91-4.228.1-7.949.652-10.14,4.816-.108.217-.561.245-.86.362-4.69-2.309-8.854.236-12.81,1.938-2.626,1.132-4.573,3.83-7.461,6.4a37.066,37.066,0,0,1-6.184-2.7c-3.06-1.964-5.749-2.2-8.727-.018-1.675,1.231-3.332,2.481-5.107,3.821l-.706,3.54c-2.417-.145-4.437-.353-6.455-.353-1.711.009-3.422.407-5.124.4a26.231,26.231,0,0,0-16.885,5.586,4.259,4.259,0,0,1-4.88.788c-3.087-1.431-5.613-.534-7.678,2.064a14.892,14.892,0,0,1-1.919,1.693c-2.073-1.177-4.255-3.214-6.383-.733-2.309,2.7-5.387,3.349-8.556,4a154.408,154.408,0,0,0-30.3,9.289c-2.064-1.92-4.291-1.892-6.772-1.014-3.314,1.168-6.637,2.608-10.068,3.024-3.775.462-6.736,1.666-9.126,4.645-2.11,2.625-5.623,3.748-8.266,2.689-4.237-1.711-6.229.552-7.895,3.2-1.259,1.974-2.49,2.78-4.645,2.417-2.616-.453-4.3,1-6.428,2.327a37.584,37.584,0,0,1-15.265,5.332c-5,.607-9.271,1.9-13.254,4.853-3.268,2.417-6.636,4.2-11.135,2.816-5.5-1.693-10.5-.081-14.667,3.839-2.182,2.055-4.21,2.879-7.333,1.521-3.839-1.656-5.866-.344-7.8,4.111,1.276.923,2.6,1.865,4.119,2.951-1.665,1.34-3.023,2.417-4.789,3.839-1.774-2.164-3.331-4.074-5.214-6.374-4.79,1.956-9.66,3.866-14.423,6-.661.3-1.014,1.757-1.1,2.707a7.949,7.949,0,0,0,.752,2.68c-2.924.751-5.269,2.327-8.2.833-.788-.4-2.535.335-3.423,1.059-2.571,2.11-5.2,3.7-8.719,3.449-1.874-.136-3.159.833-4.209,2.617a7.154,7.154,0,0,1-3.957,3.087c-2.535.625-5.26.48-7.859.652l1.6-2.372c-3.16-3.821-6.538-2.245-9.9-1.1-3.16,1.068-3.748,2.209-2.517,5.324a17.911,17.911,0,0,0,1.087,1.946c-3.622,4.491-6.637,5.5-10.013,3.45.009-1.621,2.345-2.988.362-5.025-3.16.326-6.365,2.29-6.5,5.034-.163,3.35-.915,3.92-3.794,3.495a3.425,3.425,0,0,0-2.1.86,12.323,12.323,0,0,1-12.231,2.064,13.522,13.522,0,0,0-3.712-.244c-1.286,3.214-2.834,5.74-5.858,6.147-1.368-1.584-2.227-3.522-3.522-3.893-2.734-.788-5.84,2.743-5.459,5.686.462,3.585.444,3.531-2.77,4.572-1.368.435-2.616,1.2-3.957,1.711-2.526.969-3.3.417-3.748-2.29a10.179,10.179,0,0,0-1.023-2.336c-1.032.561-2.463.878-3.015,1.747-.706,1.113-.724,2.68-1.1,4.373-4.147-.878-7.316.253-9.5,3.9a4.565,4.565,0,0,1-4.391,2.444c-2.526-.136-1.9-2.625-3.431-4.1-1.956.57-4.31.77-6.1,1.874a47.6,47.6,0,0,0-6.944,5.822,4.756,4.756,0,0,1-4.88,1.141,23.742,23.742,0,0,0-3.214-.262c2.073,1.675,4.309,2.444,2.734,4.952-3.63,1.295-6.012-1.431-9.053-3.124-1.784,1.413-3.54,2.762-5.251,4.174-1.865,1.557-3.414,2.924-6.4,1.774-1.756-.67-4.536.245-6.374,1.286-1.213.7-1.4,3-2.345,4.382a8.959,8.959,0,0,1-3.2,3.277c-3.313,1.494-6.518,3.6-10.556,2.689-.878-.2-2.037.688-3.024,1.15-.86.407-1.667,1.331-2.49,1.322-5.214-.054-9.207,3.332-13.788,4.952-3.612,1.268-6.69,4.219-9.769,6.709-2.028,1.63-4.2,2.607-6.645,2.263-3.259-.452-6.455-1.367-10.448-2.245l-8.147,12.051-9.516,2.29-1.1-4.309c-3.585,6.6-10.348,6.292-15.255,9.416-4.708-3.531-8.782-3.929-12.711-1.05-1.811,1.322-3.993,2.616-4.988,4.463-1.657,3.105-4.3,3.323-6.953,3.884l-3.052-3.739c-3.268.389-3.766,3.042-5.006,5.007-.734,1.177-1.385,3.015-2.427,3.3-5.042,1.394-10.14,3.133-15.065,1.168-2.67,2.707-5.088,5.152-7.533,7.642-.941-1.15-1.8-2.209-2.706-3.323-3.721,2.182.416,4.771-.372,6.22-4.373,1.874-8.148,3.495-11.914,5.1-2.834.163-6.066-.307-8.764.67a8.27,8.27,0,0,0-5.025,6.835c-2.951-1-5.858-1.421-8.52.181-1.339.806-2.272,2.291-3.549,3.621-4.155-1.476-4.155-1.476-9.977,1.041-5.6-3.911-8.465-3.7-13.454.869a37.746,37.746,0,0,1-3.477,2.517,7.587,7.587,0,0,0-7.958-.933c-5.233,2.2-10.14,5.115-13.318,10.719-3.422-1.476-6.609-2.843-10.439-4.49.716,4.074-1.132,6.048-3.494,7.895-2.879,2.254-5.3,5.215-8.411,7.016a5.823,5.823,0,0,0-3.295,4.246c-.272,1.394-.408,2.816-.58,4.065-5.025,2.58-5.006,2.7-3.477,7.46a3.066,3.066,0,0,1-.887,2.779c-1.675.806-3.45,1.376-5.351-.208-4.454-3.712-5.459-3.6-11.045.2.2.679.425,1.412.615,2.164.516,2.091-.036,3.25-2.426,3.649-3.722.634-3.957,1.177-3.278,4.744.851,4.427.48,5.007-3.5,7.08a9.064,9.064,0,0,0-2.489,2.526c-2.218,2.78-4.464,5.161-8.52,5.287a19.484,19.484,0,0,0-10.068,2.925c-1.6,1.032-1.665,2.227-.779,3.676.988,1.585,2.472,1.838,3.595.507,1.566-1.865,3.278-2.218,5.55-1.91a15.458,15.458,0,0,0,4.11-.5c2.426,5.161,1.865,8.619-1.62,10.819l-6.374-4.3c-.416,2.264-.715,3.612-.905,4.971-.625,4.328-3.242,5.939-7.406,4.907-2.707-.67-5.532-.851-8.3-1.25-.905,8.212.815,10.14,10.068,11.77-1.422,4.192-5,4.473-8.04,4.771-4.59,3.006-3.983,9.407-8.592,11.081,1.5,2.327,2.571,4.69,4.274,6.419,1.792,1.837,4.192,3.078,7.115,5.133-4.672,2.517-5.613,6.238-5.64,10.439-.018,4.762,3.866,7.171,6.174,10.321l-1.195,4.971c2.309,1.023,4.681-.018,5.821,2.734.425,1.032,3.287.4,3.911-1.277,1-2.671,2.435-5.731,1.947-8.284-1.078-5.577,1.756-10.068,2.825-15.029,2.263.462,4.508.933,6.636,1.385.109.634.28.987.19,1.259-1.086,3.277-3.286,6.365-1.584,10.131.181.4-.29,1.2-.615,1.7-2.164,3.341-2.128,3.277.389,6.147,2.8,3.2,5.786,6.347,5.278,11.444l-3.15,2.436c.163,1.295.3,2.4.435,3.5.407,3.3-.289,4.934-3.341,5.93-1.511.5-3.377.009-5.078-.154-1.838-.182-3.613-.172-4.762,1.539a4.267,4.267,0,0,0-.091,5c.389.616.8,1.231,1.15,1.784l-3.6,3.4c2.444,1.24,3.441-.326,4.6-1.331a9.167,9.167,0,0,1,7.66-2.155c1.421.235,2.607,2.055,3.848,3.214a19.345,19.345,0,0,1,1.611,1.947c-.806,1.186-1.286,2.616-2.263,3.187-3.857,2.254-7.442,5.287-12.168,5.478-3.385.136-5.876,1.4-7.387,4.445,2.181,4.952.66,10.765-3.957,15.21a15.121,15.121,0,0,0,1.385,4.627c-3.857-.036-7.2-2.01-10.892-2.544-2.7,1.394-2.6,4.409-3.93,6.563-1.322,2.128-3.676,3.622-5.975,5.749,3.784,2.816,4.681,6.328,4.056,10.52-.335,2.2,1.458,3.341,3.73,2.753a33.963,33.963,0,0,0,3.432-1.25l.353.978c-3.188,1.865-4.672,6.727-9.832,4.79-1.485,4.825,1.539,8.854,1.874,13.245-2.39.091-3.341-.815-3.259-2.462a2.891,2.891,0,0,0-2.055-3.286c-3.54-1-7.144-1.739-11.009-2.644-.724,2.364-1.575,4.084-1.739,5.867-.371,3.993-.371,4.3-4.092,4.618-2.761.244-5.079,1.023-6.555,3.2a12.015,12.015,0,0,1,1.712,2.237,13.693,13.693,0,0,1,.715,2.68c2.064.335,4.282.054,5.151,1,1,1.1.815,3.287,1.2,5.26l2.789.226v2.78c2.879.887,5.813,1.258,8.166,2.635,3.567,2.091,6.863,1.63,10.321.262.869-.344,1.612-1.014,2.49-1.322,2.047-.724,3.088.325,2.662,2.6a13.484,13.484,0,0,1-.462,1.493c2.471,2.418,4.943,1.657,7.587.426-1.883,3.232-1.774,6.139.127,8.746-1.4,1.847-2.788.76-4.092.607-2.943-.335-1.467-3.875-3.4-4.952-3,2.408-3.087,2.924-.715,4.816,1.4,1.123,2.915,2.11,4.545,3.269-1.077,1.766-2.019,3.323-3,4.916,2.173,2.218,4.264,3.259,7.188,1.494a3.48,3.48,0,0,1,3.278.19c1.349,1.331.217,2.481-1.024,3.4-.389.29-.57.851-1.213,1.875l5.939-1.422-.842,1.187c2.11,1.512,4.219,3.014,6.953,4.961-3.793.869-5.5,4.355-9.316,3.739-.6-.091-1.53,1.9-2.426,3.088l3.794,2.679-.345,4.183,4.727-3.839c1.023,3.431,1.874,6.274,3.06,10.276l-4.69-1.666c-.651,2.318-1.286,4.581-2.064,7.36,5.74-1.313,4.971,3.087,6.121,5.658-.535,1.53-3.54.743-2.671,3.241,6.129-.3,6.156-.29,8.8,4.445l2.137-.271c1.594,6.057,1.286,8.393-6.916,8.275-1.069,3.621,2.507,1.339,3.322,2.508-.552,2.788-3.042.815-4.173,1.766a30.444,30.444,0,0,0-3.323,3.9c-.77-1.53-1.051-2.933-1.9-3.639-2.191-1.8-1.639-3.223-.145-5.124,1.476-1.865,1.023-4.2-.642-6.112a28.232,28.232,0,0,1-1.7-2.327c-3.793-.561-4.609,2.572-5.957,4.871l-4.907-.869-1.376,2.87c2.662.778,5.35,1.069,7.415,2.354,1.295.815,1.919,3.06,2.381,4.781.76,2.852-2.2,3.639-3.567,5.006,2.825,2.87,5.622,4.781,9.66,4.183,2.064-.3,3.25,1.367,3.287,3.3,1.521-1.132,2.7-2.581,4.164-2.979a97.261,97.261,0,0,1,9.824-1.647l2.163,3.748c.67-.045,1.267-.109,1.874-.127.725-.027,1.458-.009,2.952-.009-.507,1.711-.561,3.223-1.331,4.074-.715.8-2.209.878-3.4,1.294a70.131,70.131,0,0,1,2.563,8.837c.4,2.417,1.077,4.174,3.621,4.563-.76,6.6.072,7.3,6.156,5.767.933,2.182,1.838,4.319,2.662,6.247,2.02-.163,3.74-.851,4.636-.271,1.946,1.285,3.612.552,5.368.081,2.263-.606,4.482-1.34,6.718-2.037,1.829-.562,3.63-.95,5.287.679l-.634,3.1c6.075.462,7.125,1.159,7.922,4.952a65.347,65.347,0,0,0-7.025,3.558c-2.327,1.539-2.073,3.286.507,4.49,1.928.9,3.957,2.245,6.174.715,2.236-1.539-.344-3.45.272-5.152,1.693-1.512,3.513-1.231,4.318.561,1.249,2.8,3.44,2.444,5.514,2.11,2.462-.408,4.69-.724,6.2,1.811,1.232,2.064,4.753,2.128,4.627,5.441a1.885,1.885,0,0,0,2.517,2.019c3.748-1,7.433-2.209,11.824-3.54-.407-.227.037-.045.4.235,3.839,3.06,6.021,2.843,8.973-.942.479-.616.769-1.385,1.3-1.947,1.883-2,3.9-2.055,6.319-.235l-3.586,3.622,2.291,3.648c2.825-.281,5.749,1.186,8.547-.48.308-.181.905.09,1.358.181l10.72,2.317c2.834,2.852-2.825,4.971-2.553,8.23l4.011-.281c.217,3.441-.906,5.459-4.066,6.247-.851.217-1.512,1.2-2.815,2.29,2.842,1.213,4.87.607,6.972.118,2.869-.661,5.459-.534,7.46,2.318a6.153,6.153,0,0,0,3.947,1.947,33.653,33.653,0,0,0,8.42.208,6.937,6.937,0,0,1,7.46,3.63c.48.779,1.05,1.494,1.729,2.453,2.173-1.738,3.921-3.8,6.981-1.557,4.327,3.168,10.168,1.928,13.472-2.39,3.476-4.536,6.916-5.179,11.869-2.236,1.322.787,2.67,1.53,4.328,2.472a58.321,58.321,0,0,0,5.423-4.3c2.906-2.9,3.214-3.1,6.356-.389,1.476,1.277,2.734,2.58,4.925,1.766a1.656,1.656,0,0,1,1.259.344c3.875,2.789,8.528,2.988,12.765,3.839a13.562,13.562,0,0,1,4.482-2.969c3.314-1.15,4.129-2.852,2.671-5.731,2.526-2.39,5.541-4.364,7.316-7.135,1.938-3.042,4.129-4.056,7.379-3.495,3.54.616,7.071,1.295,10.593,1.974,3.739.725,6.293-.58,7.985-4.056.679-1.385,2.1-2.408,3.477-3.929,1.739,2.218,3.042,3.884,4.518,5.767,2.155-1.838,4.137-3.513,6.075-5.161v-3.93c5.052,1.286,9.135-1.195,13.553-2.2a26.8,26.8,0,0,0,13.572-7.523,5.381,5.381,0,0,1,3.368-1.413c.751-.018,1.539,1.1,2.055,1.512a59.321,59.321,0,0,1,6.944-3.486c1.883-.67,4.246-.208,5.949-1.1,1.775-.941,3.014-2.906,4.545-4.472,8.031,1.258,12.811-3.694,17.111-9.271a10.225,10.225,0,0,1,9.009,3.766c5.495-1.385,9.823-3.866,11.126-9.651,1.775,0,3.695.516,5.062-.118,2.127-1,4.2-.878,6.365-.95a23.473,23.473,0,0,0,13.688-5.315c2.047-1.611,3.423-2.78,6.075-1.937a5.165,5.165,0,0,0,6.184-2.182,20.668,20.668,0,0,1,2.1-2.236c2.96,2.834,5.251,1.81,7.405-1.042a6.793,6.793,0,0,1,3.169-1.883c3.4-1.159,6.917-2.019,10.3-3.232,6.881-2.472,13.7-5.088,21-7.822,1.62,1.494,3.893,1.149,6.392.081a49.244,49.244,0,0,1,9.624-3.44c3.286-.652,5.939-1.8,7.786-4.617a7.205,7.205,0,0,1,7.759-3.3c4.283,1.159,5.994-1.059,7.922-3.893.634-.915,1.847-2.2,2.653-2.1a7.508,7.508,0,0,0,7.877-3.847c4.708-.833,8.564-4.354,13.182-4.862a21.446,21.446,0,0,0,12.6-5.342c2.725-2.417,5.712-4.038,9.8-2.969,5.233,1.358,9.914-.19,13.608-4.246,1.865-2.037,3.694-2.824,6.618-1.675,3.657,1.458,5.278.353,7.261-3.893l-3.911-3.332,3.8-4.092,4.97,6.067c.29.036.651.208.9.1,4.364-1.956,8.755-3.875,13.028-6.03.571-.29.7-1.792.725-2.743a8.046,8.046,0,0,0-.942-2.391c2.708-.579,4.635-2.209,7.47-1.349,1.131.344,2.978-.543,4.073-1.412,2.155-1.72,4.283-3.06,7.18-2.952a3.725,3.725,0,0,0,4.011-2.571c1.023-2.671,3.023-3.757,5.985-3.2a12.782,12.782,0,0,0,3.621-.335c1.123,5.061,4,5.423,12.476,1.231-.489-1.856-1.014-3.848-1.594-6.039,2.951-4,5.921-5.1,9.117-3.241l-1.286,4.87c4.862-.869,6.365-2.453,6.845-6.057.118-.842,1.267-2.317,1.639-2.227,2.544.6,4.065-1.041,5.867-2.2a9.357,9.357,0,0,1,8.954-.978c2.082.851,3.467.434,4.581-1.72.978-1.883,2.255-3.812,4.78-3.848.307.335.634.525.706.779.507,1.711.959,3.422,3.377,2.969,1.956-.371,4.771-2.951,4.1-4.491-2.127-4.925,1.349-5.414,4.463-6.419.588-.19,1.086-.643,1.666-.851,2.345-.851,2.934-.353,3.459,2.417.144.769.751,1.955,1.258,2.028a2.746,2.746,0,0,0,2.272-1.123,26.434,26.434,0,0,0,1.377-4.6,8.495,8.495,0,0,0,8.709-4.038c2.616-3.866,4.907-3.341,6.817,1.077,3.033.154,5.659-.118,7.723-3.114,1.349-1.956,3.73-3.286,5.849-4.572.932-.57,2.354-.407,3.558-.444a21.9,21.9,0,0,1,2.861.317c-1.268-1.757-4.011-2.191-2.39-4.717,3.567-1.612,5.721,1.458,8.71,2.861,1.548-1.258,3.169-2.462,4.653-3.8,1.676-1.512,3.133-2.59,5.8-1.938,1.919.471,4.318-.307,6.319-1.032,2.028-.733,2.064-2.906,2.408-4.771a2.815,2.815,0,0,1,1.2-1.9c3.133-1.331,6.265-2.879,9.551-3.54,1.938-.38,3.939.081,5.622-1.5.6-.562,1.712-.552,2.572-.833,1.6-.534,3.2-1.059,4.789-1.648,1.3-.48,2.607-1.549,3.857-1.476,2.68.154,4.427-1.476,6.293-2.743,2.426-1.657,4.463-3.875,6.88-5.55a8.78,8.78,0,0,1,4.672-1.693,29.169,29.169,0,0,1,7.768,1.277c3.142.933,3.694.851,5.2-1.738,2-3.477,4.146-6.872,5.613-9.28,3.685-.7,6.265-1.186,9.045-1.72l.778,4.074c3.821-6.057,10.041-6.374,15.029-8.981,4.147,3.4,8.221,3.847,11.914,1.131,1.757-1.295,3.911-2.571,4.8-4.391,1.476-3.006,4.074-2.861,6.41-3.693l3.358,3.829c4.174-1.448,4.192-5.468,6.021-8.13a64.908,64.908,0,0,1,7.84-1.485,58.6,58.6,0,0,1,7.678.389c2.2-2.109,4.536-4.355,6.871-6.6l2.825,2.979c2.852-2.327-.507-4.572.163-6.093,4.065-1.756,7.7-3.331,11.978-5.178,3.477.815,7.641,1.512,10.874-2.924a6.824,6.824,0,0,1,5.758-2.689c3.314.027,5.948-1.267,6.925-4.69,4.807,1.729,4.807,1.729,9.995-.543a3.049,3.049,0,0,1,.861.317c4.69,3.486,7.66,3.3,11.85-.634,1.232-1.159,2.672-2.091,4.229-3.3l4.138,5.451c2.752-2.861,7.125-3.875,6.555-8.085,3.06-.507,5.7-.851,8.3-1.394,3.332-.706,6.591-1.874,9.941-2.263a12.563,12.563,0,0,0,7.1-3.223c1.521-1.322,3.2-2.463,4.844-3.64,1.892-1.367,3.4-.724,4.572,1.675,3.268-3.766,7.27-4.219,11.408-4.418,1.7-.081,3.377-.435,4.2-2.408s2.308-2.119,4.509-2.173a20.173,20.173,0,0,0,9.252-2.553c2.544-1.467,4.328-4.255,6.8-6.835,1.992.851,4.282,1.467,6.166,2.707,2.779,1.811,5.386,2.046,7.976-.018,1.575-1.249,3.087-2.589,4.753-3.993l.316-2.78c2.934-.434,5.432-.833,7.941-1.168a8.025,8.025,0,0,1,1.856.072c6.455.743,11.805-1.783,16.658-5.686a4.065,4.065,0,0,1,4.364-.688c3.078,1.177,5.478.326,7.252-2.49.372-.589,1.168-.905,1.956-1.476,1.719,1.91,3.711,3.069,5.576.761,2.083-2.571,4.926-3.106,7.814-3.857,5.441-1.422,10.891-2.834,16.26-4.491,4.626-1.44,8.827-4.591,14.141-2.87.879.281,2.092-.362,3.133-.652,3.133-.887,6.211-2.2,9.407-2.617,3.178-.417,5.677-1.44,7.587-4.011,1.892-2.553,5.033-3.667,7.5-2.68,3.947,1.575,6.093-.326,7.84-2.852a4.418,4.418,0,0,1,4.69-2.146c1.8.19,3.5-.109,4.59-1.729,1.8-2.68,4.609-2.055,7.189-2.463,2.535-.4,4.065-3.313,7.207-2.8,4.617.76,8.492-1.231,12.086-3.975,3.106-2.372,6.329-3.594,10.43-2.046,4.608,1.747,9.018.5,12.675-2.7,2.209-1.928,4.083-2.843,7.107-1.376,3.386,1.657,4.808.806,8-4.21-1.131-.652-2.571-1.476-4.5-2.58l3.558-3.73a29.33,29.33,0,0,1,2.97,3.051,43.193,43.193,0,0,1,2.228,4.129c3.72-1.539,7.27-3,10.81-4.491,1.25-.525,2.969-.824,3.549-1.784.525-.887-.19-2.526-.38-3.975,2.5-.7,4.662-1.856,7.324-.516.878.444,2.726-.281,3.73-1.014,2.255-1.63,4.464-2.7,7.378-2.308,1.069.145,2.916-.363,3.3-1.132,1.711-3.422,4.138-4.346,7.7-3.332.932.263,2.083-.253,4.264-.579-2.806,2.282-1.367,3.151.027,4.165,2.608,1.892,5.125.244,7.678-.063,2.3-.281,2.751-1.919,2.48-3.758a14.466,14.466,0,0,0-1.276-3.268c3.784-3.748,6.057-4.337,9.407-2.562.263,1.711-2.771,3.015-.7,4.979,4.545-.941,5.541-1.946,6.944-6.573,2.716-.933,5.178-1.612,7.505-2.6a9.639,9.639,0,0,1,7.741-.081c1.259.5,2.562.887,3.812,1.313,2-2.5,3.051-5.668,6.754-5.4.253.534.47.941.643,1.367,1.168,2.9,2.888,3.522,5.2,1.766,1.412-1.069,2.49-2.372,1.983-4.391-.661-2.644.525-3.784,3.133-3.929a10.56,10.56,0,0,0,2.652-.869c3.767-1.3,4.4-.743,4.048,3.531-.019.253.307.525.579.96,4.219.96,3.087-3.2,4.59-5.206,4,1.539,6.609-.6,9.2-3.422,2.163-2.363,4.473-1.982,5.585.462a11,11,0,0,1,.5,1.919c4.662.254,4.553.091,7.958-2.2,2.934-1.964,6.148-3.513,9.579-5.441l.924-2.779c3.757-.679,5.568,2.146,8.22,4.011,1.692-1.077,3.413-2.1,5.052-3.25,1.819-1.277,3.34-2.273,5.948-1.15,1.747.761,4.427.317,6.3-.489,1.222-.516,1.7-2.68,2.6-4.056.489-.761,1.005-1.8,1.739-2.055,2.8-.942,5.722-2.345,8.538-2.218,5.342.235,10.186-1.376,15.183-2.608,1.051-.262,2.119-.471,3.16-.761a47.106,47.106,0,0,0,6.555-1.946,23.342,23.342,0,0,0,5.522-3.422c4.672-3.893,9.371-2.508,14.015-.217,3.558,1.756,3.694,1.729,5.894-1.277,2.282-3.115,4.817-6.048,7.4-9.262,2.852,2.571,5.433.815,8.33-.217v3.431q8.052-3.015,15.8-5.9c4.065,4.228,7.84,5.179,11.9,2.979,1.91-1.041,4.183-2.046,5.342-3.721,1.856-2.7,4.337-2.508,6.917-2.852l2.761,4.21c4.319-.86,4.708-5.1,7.216-7.234,5.124-.588,10.23-1.213,14.984.652,2.742-2.055,5.332-3.993,7.931-5.939l2.381,3.223c3.332-1.7-.063-4.544,1.431-6.328,4.953-.57,8.783-1.322,10.521-3.141,3.287.416,6.22,1.331,9,.986,3-.362,4.717-3.042,5.93-5.794,2.834,1.131,5.74,2.182,8.591.615,1.277-.7,2.11-2.191,3.2-3.377,3.015,3.341,6.628,2.019,10.041.761,4.681,4.59,7.7,4.762,12.747,1.05a46.143,46.143,0,0,1,4.5-2.608c1.187,2.073,2.155,3.784,3.3,5.785l6.944-4.147.607-2.951c3.105-.154,5.812-.208,8.5-.417,4.319-.353,8.656-.6,12.919-1.313,1.9-.317,3.64-1.657,5.433-2.58,1.648-.86,3.287-1.756,4.9-2.68,2.109-1.2,2.951.471,3.476,1.367,3.567-.833,6.737-2.254,9.832-2.118,3.957.163,7.053-.407,9.244-3.866l.019-.009c3.241,0,5.64-.063,8.021.009,4.364.127,7.007-3.051,9.995-5.351,1.494-1.141,2.7-1.521,4.192-.779a13.828,13.828,0,0,1,4.192,2.734,3.879,3.879,0,0,0,4.156,1.376c4.463-1.059,8.176-3.142,10.067-7.659a43.638,43.638,0,0,0,4.962.824c2.128.136,4.282-.136,6.409.018a24.668,24.668,0,0,0,14.333-3.3c2.109-1.231,3.6-2.037,5.921-.96a5.42,5.42,0,0,0,6.808-1.467,12.926,12.926,0,0,1,2.327-1.648c1.657,1.774,3.449,3.594,5.6,1.44,2.462-2.462,5.5-2.743,8.619-3.142,3.884-.5,7.813-.8,11.625-1.62,5.6-1.213,11.126-2.816,16.948-4.319,1.259,1.938,3.377,2.136,5.858,1.584a58.926,58.926,0,0,1,10.1-1.766c3.178-.136,5.8-.869,7.968-3.232,2.263-2.472,5.631-3.3,8.157-1.974,3.712,1.937,5.822.1,7.651-2.092,1.6-1.91,3.123-2.073,5.306-1.865a5.918,5.918,0,0,0,4.228-1.077c2.2-2.182,4.608-2.173,7.36-1.937,2.816.235,4.645-3.106,7.886-2.218,4.672,1.276,8.864-.353,12.884-2.743,3.3-1.956,6.609-3.069,10.61-1.132,4.564,2.209,9.217,1.313,13.291-1.648,2.382-1.72,4.364-2.354,7.234-.661,3.358,2,5.224,1.086,8.085-3.485l-3.658-2.536c.452-.48.842-.95,1.285-1.349,2.617-2.309,3.694-2.155,5.333.824.652,1.186,1.168,2.454,1.766,3.739,2.716-.426,5.206-.661,7.605-1.231a35.078,35.078,0,0,0,6.582-2.254,4,4,0,0,0,1.584-2.444c.2-.77-.2-1.693-.38-2.924,2.48,0,4.826-.579,6.636.145a4.849,4.849,0,0,0,5.179-.679,8.315,8.315,0,0,1,7.079-1.6c2,.507,3.423-.271,4.772-2.046a6.692,6.692,0,0,1,4.345-2.082c2.01-.2,4.1.38,6.247.643-1.114,1.3-1.25,2.264.172,3.567,2.607,2.408,5.351,1.032,8.039.7,2.345-.3,3.215-1.557,2.852-3.857a14.057,14.057,0,0,0-1.059-2.87c4.119-3.658,6.9-4.155,9.741-1.892-.625,1.458-1.249,2.906-1.974,4.581,5.233.181,7.288-1.53,8.1-5.758,3.422-.906,6.563-2.1,9.8-2.481a14.816,14.816,0,0,1,6.736,1.068c2.064.788,3.413.779,4.962-.914,1.421-1.548,2.924-3.35,5.577-2.906a13.486,13.486,0,0,1,.489,1.322c.8,3.223,2.625,4.038,5.215,2.2,1.448-1.014,2.553-2.173,1.946-4.31-.589-2.091.444-3.223,2.68-3.35a23.381,23.381,0,0,0,3.639-.761c3.332-.77,3.993-.1,3.414,3.414a5.314,5.314,0,0,0,.2,1.476c4.473,1.612,3.513-3.35,5.722-4.762,3.151,1.331,5.7.5,8.2-2.092,3.2-3.3,5.305-2.408,6.446,2.345,2.789.688,5.451,1.123,7.723-1.494.652-.752,2.109-.743,2.915-1.413,2.689-2.272,7.515-1.566,8.157-6.066,3.83-.19,5.278,2.915,7.741,4.816,1.611-.851,3.159-1.575,4.608-2.444,2.318-1.4,4.238-2.354,7.3-.887,3.974,1.892,6.573.226,9-3.793a5.7,5.7,0,0,1,3.178-2.39c3.44-.833,6.88-2.264,10.565-.67.833.362,2.082-.208,3.133-.417s2.073-.57,3.123-.733c4.853-.743,9.769-1.159,14.531-2.264a24.912,24.912,0,0,0,7.976-3.63c5.224-3.477,9.842-1.612,14.442,1.087,2.833,1.675,3.811,1.539,5.848-.707,2.8-3.1,5.758-6.038,9.053-9.47,2.544,3.223,5.433,1.186,8.366.634.1.942.126,1.557.244,2.155.1.516.3,1,.706,2.318,4.745-5.55,11.363-3.712,16.559-6.156,3.911,4.092,7.986,5.188,12.323,3.223,2.127-.969,4.645-1.829,6.029-3.522,2.272-2.8,5.007-2.5,7.7-2.689a6.58,6.58,0,0,1,.788.942c1.965,3.956,3.4,4.2,6.32.932,1.43-1.6,2.716-3.332,3.875-4.762,6.075-.426,11.833-1.367,16.849,1.041l9.515-6.455c.67,1.041,1.458,2.281,2.246,3.513,4.473-1.331.227-4.934,2.146-6.772,5.224-.027,9.162-1.2,12.639-3.8,7.27,3.3,13.616,1.648,15.789-4.536,2.716.263,5.323.887,7.849.67,2.68-.226,5.233-1.322,5.74-4.979,3.566,3.721,7.143,2.616,10.529,1.032,5.007,4.536,7.9,4.617,13.273.688a34.027,34.027,0,0,1,3.531-2.01c2.852,1.919,6.645,2.725,8.981,1.548,4.5-2.254,9.388-3.947,12.331-8.2,2.842.57,5.105,1.277,6.8,3.486,1.223,1.612,3.25,1.331,3.151-.072-.254-3.712,2.771-4.626,4.8-6.247a37.932,37.932,0,0,1,8.538-5.523,5.092,5.092,0,0,0,3.3-3.449c.417-1.331.688-2.7,1.059-4.2a6.756,6.756,0,0,0,2.2-.725,9.881,9.881,0,0,0,2.7-3.006c.317-.652-.335-1.82-.67-2.716-.644-1.675-.136-2.825,1.585-3.178,1.674-.335,3.24-.38,4.725,1.123,3.866,3.938,5.549,3.957,10.557.6a15.221,15.221,0,0,1,.072-4c.516-1.9,2.3-.969,3.6-1.168,2.19-.353,2.706-1.322,2.417-4.183-.434-4.3.045-4.952,4.029-6.528a8.1,8.1,0,0,0,2.753-2.091c2.372-2.58,4.87-4.373,8.745-4.337,3.974.036,8.121-.163,11.589-2.59-.607-4.59-1.223-4.916-4.581-2.852a5.961,5.961,0,0,1-2.933.932c-1.974,0-3.939-.326-5.913-.516-1.639-5.179-.706-8.366,2.97-10.031,2.092.833,2.436,4.219,5.812,3.812.336-1.059.77-2.182,1.052-3.35,1.1-4.59,3.865-5.876,8.211-4.156a61.049,61.049,0,0,0,7.579,1.974,10.277,10.277,0,0,0-.317-8.239c-1.629-3.631-5.5-2.78-8.329-4.1,2.68-3.631,3.585-4.011,8.719-3.9,4.128-2.789,4.807-8.755,10.349-10.041-4.157-3.522-5.451-8.918-10-11.516-.1-.054.063-.579.135-1.195,3.993-1.666,5.107-5.36,5.433-9.371.352-4.31-3-7.017-4.881-10.176.607-1.729,1.132-3.25,1.6-4.6-1.792-1.494-4.191-.571-4.889-3.178-.353-1.3-3.631-.987-4.309.525-1.195,2.68-3.024,5.649-2.752,8.311.525,5.351-3.088,9.035-4.156,13.653-2.263-.634-4.536-1.268-7.035-1.965,1.875-4.228,4.889-7.533,2.762-11.688,4.084-2.843,4.11-3.078,1.711-6.347a26.166,26.166,0,0,1-3.558-5.405c-.779-1.928-.8-4.156-1.131-6.156l3.676-2.454c0-1.294-.009-2.381.009-3.468.045-3.232,2.371-5.776,5.414-5.64a15.709,15.709,0,0,1,3.549,1.1c1.775.543,3.468.443,4.7-1.1a3.939,3.939,0,0,0,.471-4.8c-.363-.607-.743-1.213-1.105-1.811l3.93-2.643-.416-1.367c-4.166,1.62-8.031,4.844-12.794,3.3-1.1-1.729-2.272-3.54-3.621-5.649.886-1,1.6-2.472,2.735-2.97,3.974-1.738,7.758-4.282,12.384-3.893,3.3.281,5.723-1.023,7.669-3.821-.471-.76-1.54-1.829-1.322-2.227,1.674-3.2.7-7.6,4.563-9.832.905-.516,2.029-1.956,1.883-2.77a19.436,19.436,0,0,0-2.263-6.518,4.7,4.7,0,0,0-2.527-1.521c.9-.769,1.276-1.9.924-3.658-.5-2.535.8-4.4,3.033-5.5,2.29-1.123,4.59-2.535,7.043-2.969,4.383-.77,8.991-3.1,13.2,1.032,1.16,1.132,3.151,1.485,4.835,2,2.191.67,3.476-.462,3.16-2.725-.218-1.566-.751-3.106-.843-4.681-.036-.634.752-1.313,1.549-2.589.615,1.738.95,2.707,1.123,3.2,2,.344,3.83.227,5.16.978,3.993,2.273,7.714.752,8.492-3.775.181-1.05.244-2.128.4-3.513,2.273-.2,4.327-.38,6.672-.589,1.015-1.693,1.947-3.73,5.007-2.743,1.1.362,2.862-1.612,4.156-1.422,1.421.208,2.572,2.273,3.993,2.49,4.1.6,7.479,2.671,11.271,4.626.77-.588,2.082-1.077,2.426-1.946,1.7-4.319,5.514-6.328,8.981-8.755.182-.127.118-.607.218-1.186-2.934-2.671-3.522-5.966-2.164-9.9.95-2.779-.552-4.309-3.486-4-1.131.118-2.237.426-3.358.652l-.236-.905c3.576-1.286,5.677-6.2,10.629-3.549,2.689-4.617-.253-9.208.3-13.979,2.5.77,3.043,1.847,2.933,3.793a3.816,3.816,0,0,0,1.522,3.087c3.413,1.612,6.573,4.047,11.173,4a39.943,39.943,0,0,0,2.209-5.487c.806-3.286,1.294-3.938,4.888-3.621a9.032,9.032,0,0,0,6.971-1.938ZM3449.16,690a2.713,2.713,0,0,1-3.432.905C3446.607,688.588,3447.956,689.711,3449.16,690ZM3312.442,529.96c1.385-.869,2.553-.552,3.4,1.3-1.322,1.367-2.473,1.874-3.54.271A1.667,1.667,0,0,1,3312.442,529.96ZM759.312,622.452a5.45,5.45,0,0,1-.932-1.295c-.063-.19.48-.589.743-.887l1.385,1.249Zm4.147,1.313c1.756-2.571,1.756-2.571,5.731-1.4C767.378,624.751,765.459,624.2,763.459,623.764Zm9.1,6.193c-.588-.1-1.059-.9-1.585-1.385.544-.4,1.078-1.1,1.63-1.113.6-.018,1.2.625,2.326,1.286C773.762,629.378,773.1,630.039,772.558,629.957Zm23.621-48.98.4.76-2.109,1.032-.362-.7Zm-3.034,13.381,1.594,2.046c-.443.344-.914,1-1.3.942a1.774,1.774,0,0,1-1.194-1.132C792.141,595.825,792.666,595.282,793.145,594.358Zm-2.634,94.167q2.961-.245,5.921-.5c-1.856,1.521-3.8,2.209-5.921,1.63Zm-5.07-74.738c.344.136.869.408.878.643.009.326-.4.652-.815,1.267a4.274,4.274,0,0,1-.552-1.276C784.943,614.2,785.368,613.751,785.441,613.787Zm-5.994,89.5c-.117-.525.5-1.213,1-2.246a13.628,13.628,0,0,1,1.911,2.363c.081.154-.951,1.223-1.422,1.186A2.072,2.072,0,0,1,779.447,703.283Zm2.988,6.618c-.661-1.023-1.2-1.548-1.3-2.146-.063-.344.6-.815.933-1.231.471.5,1.1.923,1.339,1.521C783.53,708.352,782.96,708.941,782.435,709.9Zm-1.069-69.957c.127-2.209.227-4.02.345-5.831.117-1.684,1.059-2.109,2.888-1.575l.3,4.219,4.735,1.44C784.373,640.867,784.373,640.867,781.366,639.943ZM791.6,764.774c-.552-.815-1.194-1.43-1.077-1.666a6.365,6.365,0,0,1,1.43-1.449c.353.425,1.051.914.987,1.267C792.838,763.489,792.231,763.951,791.6,764.774Zm7-5.016c-.679-.235-1.982-.281-2.426-.915-2.055-2.906-4.373-3.821-7.587-1.865-.389.235-1.131-.117-1.9-.217a26.883,26.883,0,0,0,.787-4.255,23.229,23.229,0,0,0-.624-4.074c4.825-.562,9.379-1.92,14.178.081Zm16.758-3.486c-.245.471-1.53.625-2.309.534a28.651,28.651,0,0,1-4.02-1.077c1.313-1,2.182-2,3.278-2.39a3.254,3.254,0,0,1,2.743.5A2.534,2.534,0,0,1,815.354,756.273Zm12.277,47.477c2.046-1.186,3.576-1.286,5.3.543C830.917,805.96,829.424,805.624,827.631,803.75ZM840.36,680.676c-1.258.453-2.154.769-3.313,1.177C837.78,679.707,837.78,679.707,840.36,680.676Zm-2.254,100.577c-1.123-1.557-2.255-3.106-3.4-4.69C838.142,774.561,838.2,774.634,838.106,781.252Zm3.087,5.007-4.255-.6c2-2.1,3.215-1.385,4.437-.643Zm13.246,118.829c2.191-2.219,2.191-2.219,3.631.516Zm-38.324,614.36a6.412,6.412,0,0,1-.887-1.648c-.045-.208.507-.534.788-.806a5.665,5.665,0,0,1,1.023,1.277C817.11,1518.434,816.585,1518.869,816.114,1519.448Zm3.875-1.612,4.635-2.634C824.679,1518.4,824.679,1518.4,819.989,1517.836Zm11.779,3.776a14.307,14.307,0,0,1-2.626-.172l.253-1.657,2.743.253C832.013,1520.589,831.94,1521.594,831.768,1521.612ZM3367.941,641.328c-1.3,2.616-2.861,1.91-4.491.326ZM2200.821,982.967c1.792,2.019.5,3.105-.68,4.608l-.57.317C2197.706,985.275,2199.4,984.325,2200.821,982.967ZM3311.509,602.289c.3,2-1.2,2.77-5.26,2.761.036-.19.109-.407.145-.6a15.994,15.994,0,0,0,4.537-3.73A4.379,4.379,0,0,1,3311.509,602.289Zm-27.45,44.824c-.118.027-.281-.109-.426-.181.451-1,.832-1.82,1.14-2.508.462.181,1.013.48,1.783.806C3285.426,646.136,3284.82,646.933,3284.059,647.114Zm.28-18.823c1.512-.869,2.905-1.666,4.255-2.435.108.127.172.217.3.362-.851.742-1.574,1.457-2.335,2.037C3285.842,628.273,3285.226,628.327,3284.34,628.291Zm15.481.96c2.834-2.933,3.323-2.879,7.253,1.077C3302.41,631.1,3302.41,631.1,3299.821,629.251Zm-24.852,7.062c.144-.127.289-.262.435-.4a20.671,20.671,0,0,0,2.417,2.961C3276.572,638.848,3275.53,637.933,3274.969,636.313Zm26.853,36.875c1.042-.371,2.083-.733,3.893-1.367C3304.665,674.519,3303.515,674.591,3301.822,673.188ZM2978.454,798.653l-.443-.751,1.928-1.394.588,1.114Zm-35.246-23.938c-1.766-2.671.2-3.377,1.956-5.36C2946.069,772.67,2944.819,773.593,2943.208,774.715Zm-736.141,16.559c.045.326-.235.7-.371,1.041l-.643-.326a3.559,3.559,0,0,1-.29-1.249c.027-.235.471-.425.724-.643A3.924,3.924,0,0,1,2207.067,791.275ZM3353.111,618.26a5.287,5.287,0,0,1-6.519-.778C3349.434,615.453,3349.434,615.453,3353.111,618.26Zm-13.1,33.942-3.169,2.879C3336.081,652.175,3336.081,652.175,3340.01,652.2Zm-3.331-35.436c-1.3,1.512-2.563,2.3-4.518,1.638C3333.139,615.779,3333.139,615.779,3336.679,616.766ZM3325.09,594.2c.353.6,1.123,1.312.987,1.774-.389,1.394-1.412,1.947-3.866.579Zm-34.694-87.16c.652,1.6,1.151,2.843,1.739,4.31a8.336,8.336,0,0,0,2.336-.706c1.5-1.077,3.16-2.01,4.681-.6,1.548,1.431,3.277,3.06,2.834,5.586a36.389,36.389,0,0,1-1.25,5.5c-.823,2.354-2.643,2.852-4.292,1.032a30.744,30.744,0,0,0-8.719-6.953c-1.593-.833-2.054-3.83-3.421-6.654Zm-36.133-101.5c.661.833,1.4,1.512,1.3,1.684a6.707,6.707,0,0,1-1.739,1.8c-.081.063-1.2-.869-1.132-1.077A13.221,13.221,0,0,1,3254.263,405.545Zm-190.407,91.369a7.226,7.226,0,0,1,1.2.806l-1.077,1.566c-.408-.317-1.186-.724-1.132-.942A3.2,3.2,0,0,1,3063.856,496.914Zm-27.034-30.4c.3.045.534.543.869.932l-.969.915a6.2,6.2,0,0,1-.806-1.24A1.432,1.432,0,0,1,3036.822,466.512Zm-21.249-58.007c3.332-.5,5.677.543,5.894,2.635a3.307,3.307,0,0,1-3.531,3.5C3015.437,414.626,3015.057,413.639,3015.573,408.506Zm-147.04,25.712-.217,2.191-.869-.018-.127-2.164Zm-157.886-.616c-5.676,2.834-9.081,2.282-13.526-2.562C2701.34,432.769,2706.691,428.731,2710.647,433.6Zm-12.069-15.726c.716.091,1.965,1.612,1.8,2.1-.6,1.837-2.191,1.847-4.083,1.222C2695.917,419,2696.515,417.623,2698.579,417.876Zm-1.566,5.686,1.1,1.729a5.493,5.493,0,0,1-1.44.824c-.19.045-.814-.642-.76-.905C2696,424.739,2696.452,424.35,2697.013,423.562Zm-66.68,10.429c2.634.19,5.251.571,7.885.661,2.146.081,4.056.308,5,2.608-5.486,2.761-10.493,1.819-14.667-2.906A6.841,6.841,0,0,1,2630.333,433.991Zm-13.743-10.864a9.425,9.425,0,0,1,.679,1.122l-1.865-.489A9.928,9.928,0,0,1,2616.59,423.127Zm-25.966,2.9c-1.512,2.607-2.815,3-4.455,2.381l-.307-1.34Zm-1.186,10.24c-3.92,3.042-4.383,3.024-7.4,0Zm-25.125-4.111c.933.371,1.793.905,3.6,1.874-1.675.181-2.3.417-2.8.263a12.207,12.207,0,0,1-2.226-1.313C2563.644,432.525,2564.088,432.063,2564.314,432.154Zm-13.182-1.132c1.141.036,2.282.163,3.423.263-1.331,2.218-2.526,2.173-3.559.932C2550.815,431.991,2551.086,431.022,2551.131,431.022ZM2342.717,531.074l1.169.543c-.372.715-.725,1.43-1.132,2.119a2.453,2.453,0,0,1-.733-.3C2342.219,532.64,2342.473,531.852,2342.717,531.074ZM2314.533,499.9c.634.561,1.231.878,1.2,1.114a5.387,5.387,0,0,1-.724,1.494c-.344-.235-.959-.453-.978-.715A6.219,6.219,0,0,1,2314.533,499.9Zm-22.163-57.047c2.58-.86,5.269-.426,6.066,1.259a3.474,3.474,0,0,1-.081,2.988c-1.521,2.046-3.585,2.1-5.985.625Zm-114.917,17.754c.19.127.226.462.335.715l-.552.5-.48-1C2176.991,460.736,2177.326,460.519,2177.453,460.609ZM2142.2,472.361a4.434,4.434,0,0,1,.389,1.213,10.994,10.994,0,0,1-.507,2.037c-.788-1.6-1.223-2.146-1.1-2.336A4.117,4.117,0,0,1,2142.2,472.361Zm-172.073-5.586a5.165,5.165,0,0,1,.861-1.485c.534.58,1.114,1.051,1.05,1.177a2.805,2.805,0,0,1-1.1,1.086C1970.831,467.617,1970.089,467.01,1970.125,466.775Zm14.749,7.7c-4.654,3.3-8.936,2.825-13.209-1.675C1975.892,473.882,1980.836,470.152,1984.873,474.47Zm-13.662-15.138c1.693-.842,2.943.063,4.02,2.644l-4.3,1.3C1969.654,461.487,1969.709,460.084,1971.211,459.333ZM1903.68,477.2c2.852,1.322,5.767.932,8.728.552a4.484,4.484,0,0,1,5.034,2.436c-5.423,2.9-10.159,2.236-15.509-2.345C1902.856,477.485,1903.391,477.069,1903.68,477.2Zm-41.176-5.93.579,1.2-4.155,1.938C1859.472,471.139,1861.02,471.256,1862.5,471.274Zm-5.948,9.687c1.848-.036,3.685-.018,5.858-.018-2.815,3.278-3.667,3.341-7.061.661C1856.022,481.233,1856.285,480.971,1856.556,480.962Zm-20.144-2.725,3.133.615.461.86c-.425.163-.887.534-1.249.444a21.849,21.849,0,0,1-2.661-.978Zm-12.675-.743c1.15-.009,2.3.073,3.45.136-1.3,2.209-2.5,2.363-3.558,1.05C1823.438,478.454,1823.692,477.494,1823.737,477.494ZM1619.026,588.039l1.367.842c-.534.67-1.059,1.349-1.647,1.983a1.964,1.964,0,0,1-.7-.417C1618.328,589.632,1618.682,588.836,1619.026,588.039Zm-29.288-29.379c.226.8.606,1.385.461,1.793-.126.362-.832.534-1.285.788a5.415,5.415,0,0,1-.362-1.584C1588.578,559.375,1589.13,559.149,1589.738,558.66Zm-26.383-55.779c2.091-1.512,3.929-.615,5.423.426a3.626,3.626,0,0,1,1.1,3.1c-.462,1.973-2.3,2.372-4.138,2.318-1.43-.045-2.408-.643-2.381-2.272C1563.373,505.216,1563.355,503.976,1563.355,502.88Zm-148.9,38.65a5.268,5.268,0,0,1,1.141.317,13.32,13.32,0,0,1-.353,1.964l-1.168-.344ZM1245.3,544.536c.3-.263.661-.778.9-.733.452.09.833.516,1.448.932-.652.443-1.114.95-1.3.86C1245.926,545.4,1245.637,544.907,1245.3,544.536Zm14.73,7.361c-4.038,3.649-8.691,3.3-12.946-1.132C1251.268,551.8,1255.948,547.968,1260.031,551.9Zm-12.793-14.621c.733-.018,2.219,1.349,2.128,1.847-.389,2.182-2.137,2.164-4.065,1.892C1244.84,539.032,1244.813,537.338,1247.239,537.275Zm-18.559,149.8c.09-.036.724.833.678.887a18.675,18.675,0,0,1-1.747,1.53,6.626,6.626,0,0,1-.679-1.322A7.016,7.016,0,0,1,1228.679,687.076Zm-48.691-129.032c3.4-.054,6.809-.217,10.195,0,1.395.091,2.725,1.032,4.083,1.594-6.356,3.721-9.887,3.268-14.749-.842C1179.672,558.533,1179.826,558.044,1179.988,558.044Zm-38.206-4.237-4.518,1.666-.443-1.312C1137.88,553.037,1139.048,552.4,1141.782,553.807Zm-.942,8.845c-3.259,3.25-3.3,3.26-7.442,1.114C1135.77,562.128,1138.115,563.006,1140.84,562.652Zm-21.792-1.132c-2.5,1.249-3.676.914-4.328-1.294Zm-16.8-1.5c1.159,0,2.318.1,3.486.172-1.394,2.155-2.59,2.418-3.639,1C1101.91,560.951,1102.181,560.018,1102.245,560.018ZM907.882,763.643c-.851,2.571-2.074,2.281-3.639.824ZM881.21,866.528l-4-2.182C879.481,863.3,880.63,863.359,881.21,866.528Zm-12.231-35.617c-.824.842-1.883,1.458-2.68,1.222-.733-.208-1.223-1.286-1.449-1.539,0-.38.045-.643.064-.959A24.647,24.647,0,0,0,868.979,830.911Zm-2.943,5.143c.372-.073.9.344,1.548.9a5.427,5.427,0,0,1-.769.326c-.471.108-.77,1.1-1.187,2.137a3.681,3.681,0,0,1-.4.1c-.6-.009-1.167-1.05-1.756-1.63C864.316,837.231,865.095,836.226,866.036,836.054Zm.336,8.673a3.306,3.306,0,0,1,1.684-2.671c.126.263.227.534.344.806A4.382,4.382,0,0,1,866.371,844.727Zm4.21-67.277c.2,3.214.2,3.214-4.165,2.8Zm-21.819,33.172c2.59-1,4.445.045,6.419,1.476C852.248,814.3,852.248,814.3,848.762,810.622Zm12.485,53.1-.534-.661,3.422-2.9.752.942C864.18,862.689,862.713,863.205,861.247,863.722Zm6.945,38.858a4.543,4.543,0,0,1,.9.8l-1.086.507a3.829,3.829,0,0,1-.381-.923C867.621,902.842,868.082,902.525,868.191,902.58Zm8.583,20.588-1.521-3.531a14.833,14.833,0,0,0-2.236.8c-3.178,1.739-6.392-.081-6.265-3.7a19.888,19.888,0,0,1,.869-4.989c.588-1.92,2.263-2.381,3.594-.887a18.1,18.1,0,0,0,7.541,5.287c2.209.788,1.621,3.268,2.626,5.568ZM911,1005.737c-.552-1.059-1.14-1.711-1-2a3.957,3.957,0,0,1,1.548-1.376c.1-.063.95.688.887.851A18.229,18.229,0,0,1,911,1005.737Zm152.889-84.669-.688-.217.434-1.856.978.326Zm25.079,22.589c-.272-.19-.743-.353-.77-.57a5.674,5.674,0,0,1,.326-1.557c.5.462.96.706.951.923A3.548,3.548,0,0,1,1088.964,943.656Zm18.415,44.634a2.907,2.907,0,0,1,0-2.77c1-1.466,2.553-1.593,4.246-.606l.588,4.174C1110.3,990.508,1108.664,989.495,1107.379,988.29Zm117.987-36.3a1.137,1.137,0,0,1-.779-.462,4.941,4.941,0,0,1,.58-1.1l.851.688C1225.763,951.487,1225.619,951.922,1225.365,951.995Zm82.94-4.944c-.372-.5-.734-.778-.724-1.05s.407-.516.624-.77c.154.181.435.362.435.553A5.878,5.878,0,0,1,1308.306,947.051Zm37.146-7.894c4.89-2.526,6.763-2.363,10.611.778C1351.238,941.655,1348.06,941.474,1345.452,939.157Zm10.955,12.865c-.851-.915-1.838-1.684-1.719-1.919a3.481,3.481,0,0,1,1.738-1.62c.289-.109,1.431.869,1.385,1.268C1357.738,950.437,1357.041,951.062,1356.407,952.021Zm.571-5.885a4,4,0,0,1-1.167-.752c.244-.271.471-.769.724-.779.39-.018.8.3,2.047.833C1357.648,945.865,1357.268,946.2,1356.978,946.137Zm38.967-1.928c2.055-3.051,2.327-3.124,4.979-1.286C1399.43,944.29,1397.61,943.991,1395.945,944.208Zm11.326-11.163a55.351,55.351,0,0,0-5.749-.045c-1.829.19-3.314.063-4.364-1.639,3.93-2.725,7.08-2.48,12.141,1.231A10.968,10.968,0,0,1,1407.271,933.045Zm32.113,3.06c.932-1.729,1.775-2.345,3.486-1.747C1442.336,935.942,1441.4,936.35,1439.384,936.106Zm.3-8.067c2.209-2.9,2.49-2.924,5.043-.272Zm20.09,1.6-2.417-.978.28-.842,2.571.679Zm9.823-.036c-.815-.036-1.63-.163-2.435-.271l.353-1.494c.779.262,1.566.516,2.318.842A2.322,2.322,0,0,1,1469.6,929.6Zm155.151-98.078-1.022-.235a16.743,16.743,0,0,1,.489-1.91,4.3,4.3,0,0,1,.987.136Zm24.6,22.9c-.181.063-.76-.389-.733-.48a4.739,4.739,0,0,1,.606-1.1l.834.733C1649.781,853.926,1649.618,854.333,1649.346,854.423Zm17.79,45.06a2.883,2.883,0,0,1,.037-2.752c1.131-1.621,2.779-1.549,4.626-.543.09,1.594.163,2.852.235,4.129C1670.025,901.665,1668.386,900.742,1667.136,899.483Zm119-35.318c-.081.036-.652-.5-.607-.688a3.573,3.573,0,0,1,.67-1.069l1,.869A5.837,5.837,0,0,1,1786.137,864.165Zm27.912,3.775a3.776,3.776,0,0,1-.444-.9c-.027-.09.317-.28.488-.416l.526.815Zm89.458-13.707c4.291-2.426,6.51-2.164,9.606,1.367C1910.018,854.9,1906.3,858.154,1903.508,854.233Zm9.868,12.575c-.561,0-1.6-.842-1.566-1.249.054-.688.787-1.322,1.53-2.417.7,1.078,1.4,1.693,1.34,2.2C1914.617,865.912,1913.839,866.818,1913.377,866.809Zm39.492-5.432c1.114-2.227,1.114-2.227,3.133,0Zm11.146-10.013c-2.454-.045-4.916-.036-7.343-.317a13.641,13.641,0,0,1-3.287-1.312c4.926-3,6.582-2.744,11.236.8C1964.421,850.82,1964.214,851.363,1964.014,851.363Zm30.411,4.563c1.014-1.141,1.883-1.874,3.44-.7C1996.8,856.433,1995.928,857.148,1994.425,855.926Zm.624-7.523c2.345-2.544,2.345-2.544,5.016-.724C1998.481,849.027,1996.688,848.258,1995.05,848.4Zm16.795,1.783c1.611-1.186,2.408-.805,2.879.969Zm12.53,1.775-2.626-.326.2-1.43a23,23,0,0,1,2.508.452A5.327,5.327,0,0,1,2024.374,851.961Zm159.877-85.466-.643-.335.607-1.756.959.4Zm-724.407,434.99c1.467,2.426.091,3.422-1.865,4.817C1456.721,1203.522,1458.151,1202.644,1459.845,1201.485ZM909.2,1548.664l.425,1.05-2.136,1.1c-.117-.3-.3-.7-.362-.915a12.1,12.1,0,0,1,1.4-.9C908.76,1548.891,908.978,1548.764,909.2,1548.664Zm-9.9-175.8.471,1-5.812,2.743A6.5,6.5,0,0,1,899.3,1372.861Zm-20.3,82.27v.009c.109.353-.2.842-.534,2.073l-2.535-2.535c-1.739,0-3.377.453-4.608-.081h-.01a4.942,4.942,0,0,1,1.413-2.8,9.1,9.1,0,0,1,2.7.978A25.673,25.673,0,0,0,879,1455.131Zm-4.019-57.6-4.192-1.023c.163-.607.144-1.023.326-1.141C872.772,1394.3,873.976,1394.563,874.981,1397.532ZM853.6,1353.558c1.014,2.137-.352,4.074-5.052,6.256l-.978-6.192C851.234,1351.666,852.718,1351.7,853.6,1353.558Zm-5.712,12.938c1-.869,1.882-2.182,3.033-2.463.733-.19,1.838,1.132,3.758,2.453-2.209.987-3.368,1.847-4.563,1.9C849.4,1368.416,848.626,1367.175,847.884,1366.5Zm3.268,31.95-.851-.7,3.023-3.965,1.114.842C854.113,1396.6,852.456,1397.36,851.152,1398.447Zm2.381-22.073c-1.322-2.092-1.385-3.015.4-6.075,1.756,2.662,3.349,5.07,4.943,7.469C856.847,1378.365,854.936,1378.6,853.533,1376.374Zm5.377-26.328a2.7,2.7,0,0,1-1.892-1.575c-.389-1.63,2.471-4.246,4.952-4.192.317.57,1.141,1.394,1.186,2.263C863.257,1348.443,860.966,1350.326,858.911,1350.046Zm5.985-10.529a3.021,3.021,0,0,1-2.806.407,3.054,3.054,0,0,1-.852-2.725c1.033-3.748,3.468-4.237,6.429-1.349A20.972,20.972,0,0,1,864.9,1339.516Zm4-9.207c-.027-2.146,1.656-2.626,4.065-3.649-.38,2.716-.335,4.527-2.517,4.9C869.984,1331.64,868.9,1330.762,868.9,1330.309Zm-12.965,118.575c-1.322,1.647-2.68,1.684-4.771.308C852.854,1446.82,854.2,1446.5,855.932,1448.884ZM840.505,1485.1c-.435-.028-.842-.607-1.268-.942.316-.4.607-1.059.969-1.114.435-.063.951.407,1.811.833C841.293,1484.492,840.886,1485.108,840.505,1485.1Zm2.381,43.6c-1.892-6.437-1.892-6.437.108-8.13l1.838,4.165h4.192C847.005,1526.456,846.009,1529.543,842.886,1528.7Zm18.542,61.484c-.607-.562-1.439-1.032-1.729-1.729-.182-.435.471-1.214.923-2.227.978.851,1.991,1.331,2.154,2.01C862.895,1588.754,861.917,1589.523,861.428,1590.184Zm2.762,3.612a3.376,3.376,0,0,1-1.358-1.494c-.1-.217.778-1.186.959-1.123a8.971,8.971,0,0,1,1.937,1.394C864.995,1593.172,864.352,1593.9,864.189,1593.8Zm2.335-20.995-.434-1.114,1.883-.615.389,1.014Zm10.231,70.573-.253-.887,2.4-.625.2.724Zm13.155-.942c-.426,0-.842-.625-1.268-.978.371-.426.688-1.123,1.123-1.2.417-.073.942.48,1.811.987C890.779,1641.844,890.345,1642.441,889.911,1642.433Zm2.806-6.256c-2.842-2.408-5.278-1.92-7.723.543-.253.253-.869.154-1.376.235l-2.408-7.814a20.265,20.265,0,0,1,2.934-1.964c1.63-.778,3.4-1.241,5.07-1.937,3.422-1.431,5.188-.19,5.3,3.513.073,2.4.589,4.789.96,7.65C894.6,1636.357,893.314,1636.674,892.717,1636.177Zm15.2-7.153a22.5,22.5,0,0,1-3.983.063,16.627,16.627,0,0,1,2.245-3.1,2.674,2.674,0,0,1,2.381-.453,2.785,2.785,0,0,1,1.295,2.164C909.837,1628.182,908.661,1628.879,907.918,1629.024Zm26.084,12c3.042-2.417,3.042-2.417,4.7,3.45C937.161,1643.347,935.631,1642.224,934,1641.029Zm1.394,29.081c1.847-3.3,1.9-3.314,4.573-.869Zm3.5-20.905c1.458-2.834,2.987-2.454,4.463-2.254l.254,1.276Zm7.532-13.472a2.321,2.321,0,0,1-.308-.661c.543-.317,1.114-.589,1.684-.878l.453,1C947.655,1635.38,947.048,1635.588,946.432,1635.733Zm11.471,32.638h6.038C962.168,1671.024,962.168,1671.024,957.9,1668.371Zm7.189-33.6,3.169-4.02C968.876,1634.085,968.876,1634.085,965.092,1634.773Zm12.973,32.394c-.987,1.612-2.345,1.5-3.838.942.091-.589.036-.987.2-1.141.987-.924,1.937-2.164,3.477-1.023A1.267,1.267,0,0,1,978.065,1667.167Zm11.01,21.494c-2.643-3.015-2.643-3.015.905-4.138Zm8.719-79.4a12.444,12.444,0,0,1-2.771.625c.716-1.1.906-1.748,1.322-1.974a12.724,12.724,0,0,1,2.8-.67C998.4,1608.409,998.21,1609.043,997.793,1609.26Zm7.224,70.219a4.094,4.094,0,0,1-3.385.408c-.833-.453-1.729-2.2-1.458-3.006.742-2.264,2.815-2.553,5.151-2.327C1006.168,1676.338,1007.2,1678.112,1005.018,1679.479Zm-4.318-29.823h6.138C1006.059,1653.55,1004.584,1653.7,1000.7,1649.657Zm13.707,5.686c-.588-4.2,2.245-6.238,7.569-6.084Zm4.97-21.693c-.281.063-.769-.743-1.159-1.15a11.37,11.37,0,0,1,2.246-1.856c.244-.127,1,.751,2.055,1.6A18.133,18.133,0,0,1,1019.377,1633.651Zm8.755,16.016-.906-1.2a10.614,10.614,0,0,1,1.44-.779c.118-.036.6.48.57.534A15.1,15.1,0,0,1,1028.133,1649.666Zm2.01-9.063c-1.078-1.457-2.788-2.462-4.645-4.019.661-.136,1.458-.588,2-.38a9.082,9.082,0,0,0,7.66-.407c.715-.353,1.9.253,2.87.426a7.853,7.853,0,0,1-.579,2.507,9.471,9.471,0,0,1-2.517,2.644C1033.2,1642.55,1031.645,1642.631,1030.142,1640.6Zm6.138,61.375c-2.181-3.332-.679-9.552,2.762-10.865a2.209,2.209,0,0,1,3.242,1.621,29.8,29.8,0,0,1,.353,5.052Zm13.463-41.1c-.425-1.285-.788-1.865-.724-2.381.045-.443.588-1.132.932-1.15a1.642,1.642,0,0,1,1.258.9C1051.318,1658.557,1050.766,1659.1,1049.743,1660.875Zm5.541,28.583,3.965-3.2.833,1.1C1059.439,1688.913,1058.443,1689.927,1055.284,1689.457Zm114.429-23.5c-.29.054-.652-.344-.987-.534.236-.326.407-.806.715-.915.272-.091.688.254,1.24.489C1170.265,1665.438,1170.021,1665.9,1169.713,1665.954ZM1327.6,1469.572c-1.521-2.535-.226-3.558,1.1-4.826C1330.958,1466.946,1329.11,1467.969,1327.6,1469.572Zm531.339-66.933c-.29-.643-.624-1.032-.579-1.385a1.155,1.155,0,0,1,.742-.842,1.089,1.089,0,0,1,.851.679C1860,1401.371,1859.563,1401.724,1858.937,1402.638Zm700.959-195.6c-.3.045-.661-.353-1-.552.226-.326.407-.824.715-.914.281-.091.7.262,1.258.507C2560.458,1206.51,2560.2,1206.981,2559.9,1207.035Zm186.822-169.411c-1.4-2.4.262-3.132,1.838-4.608C2750.031,1035.985,2748.4,1036.655,2746.718,1037.623Zm562.22-82.134-.5-1.2c1.846-.752,3.693-1.512,5.54-2.264l.434,1.059C3312.587,953.887,3310.767,954.692,3308.938,955.489Zm20.724,46.635c-.028-2.064.227-3.667,2.327-4.047.434-.081,1.549.869,1.521,1.267C3333.31,1001.436,3331.753,1001.907,3329.662,1002.124Zm12-8.311c-1.765,3.4-3.838,3.621-6.49.489a22.7,22.7,0,0,1,3.095-3.223,3.225,3.225,0,0,1,2.753-.389C3342.281,991.278,3342.346,992.491,3341.657,993.813Zm-6.952-60.007,3.8,1.448c-.18.516-.19.942-.37,1.032C3336.416,937.146,3335.266,936.793,3334.7,933.806Zm18.8,46.617a2.71,2.71,0,0,1-2.98-2.806c-.1-1.7,2.544-4.554,4.175-4.156.959.227,1.629,1.639,1.946,1.983C3356.7,979.255,3355.782,980.45,3353.509,980.423Zm1.2-11.652c-.76.018-1.557-1.385-2.345-2.155.861-.7,1.647-1.811,2.589-1.974.862-.145,1.9.742,2.861,1.177l.063,1.186C3356.831,967.648,3355.791,968.735,3354.713,968.771Zm2.906-32.665.742.815c-1,.987-2.009,1.973-3.566,3.494C3355,937.427,3355,937.427,3357.619,936.106Zm-4.155,20.914c.525,1.784,1.177,3.54-1.566,5-1.232-2.662-2.363-5.088-3.5-7.515C3350.63,954.195,3352.648,954.294,3353.464,957.019Zm-7.406,24.49c.579.245,1.158.48,2.136.879-1.521,1.711-2.156,2.843-3.123,3.4a7.159,7.159,0,0,1-3.477.733c-.3.009-.9-1.25-.859-1.9C3340.843,982.36,3343.921,980.631,3346.058,981.509Zm1.076-102.894c-.551,2.191-2.272,2.879-3.838,1.377-2.853-2.744-5.84-5.016-9.76-6.075-1.594-.425-1.92-1.874-2.661-6.518l4.8-1.811c.806,1.729,1.313,2.8,1.911,4.092a8.21,8.21,0,0,0,2.263-.906c1.358-1.2,2.905-2.454,4.544-1.286,1.8,1.286,3.848,2.779,3.486,5.577A46.887,46.887,0,0,1,3347.134,878.615Zm11.282,6.673,4.382.235C3360.462,888.429,3360.462,888.429,3358.417,885.287Zm9.7-238.518.861-.643,3.259,4.473C3369.479,652.727,3369,652.337,3368.121,646.77Zm1.494-25.4c2.473-.416,3.993-.67,5.876-1C3373.762,623.366,3373.762,623.366,3369.615,621.365Zm12.086,126.66,4.129-2.363C3385.478,748.614,3384.056,748.206,3381.7,748.025Zm14.947-77.671c-1.3.118-1.937-1.739-1.186-3.513h5.514l.643.923C3399.973,668.688,3398.37,670.191,3396.649,670.355Zm21.059-14.368c.163-.064.86.534.86.815a7.026,7.026,0,0,1-.8,1.928c-.66-.851-1.285-1.313-1.257-1.72C3416.54,656.62,3417.219,656.186,3417.708,655.986Zm-7.224,16.224a37.791,37.791,0,0,0,.814-4.979,46.738,46.738,0,0,0-.525-5.686c.914,0,2.371-.407,2.771.064,2.752,3.314,5.676,2.734,8.835.833.209-.127.607.063.915.109.344,2.571.688,5.151,1.06,7.949C3420.66,673.251,3414.448,674.2,3410.484,672.21Zm14.531,60.813-.272-1,5.7-1.82.352,1.431Zm3.449-74.629-.2-.769,2.7-.7.227.86Zm7.342,51.108c.508.453,1.186.833,1.458,1.395.154.326-.353.96-.76,1.956-.8-.923-1.431-1.395-1.6-1.992C3434.8,710.525,3435.481,709.964,3435.806,709.5Zm2.11,24.237c-.127.036-.39-.362-.589-.561a5.684,5.684,0,0,1,1.042-.725c.108-.054.4.326.715.616A5.989,5.989,0,0,1,3437.916,733.739ZM3439.2,716.8c-1.06-.371-2.109-.743-3.657-1.286,1.811-1.919,2.943-2.725,3.984-1.231C3439.88,714.8,3439.337,715.948,3439.2,716.8Zm3.557,123.98-.724-.932,2.064-1.566.6.652Zm-1.041-16.142c-.009-.371.743-1.077,1.15-1.087a1.778,1.778,0,0,1,1.258,1.032c.136.371-.281.96-.452,1.448l-1.159.7A6.981,6.981,0,0,1,3441.718,824.637Zm3.947-37.808c-.226-1.313-.471-2.662-.723-4.129l-5.288-.905c3.305-1.494,4.979-4.391,8.058-2.788.263,2.128.5,3.938.707,5.74C3448.645,786.721,3447.712,787.327,3445.666,786.829Zm2.065,18.8c-.145-.344-.508-.878-.4-1.014a3.289,3.289,0,0,1,1.132-.589l.317.9ZM3458.4,790.1c-.463.036-.969-.579-1.458-.9.453-.543.842-1.43,1.366-1.521.562-.091,1.259.561,2.508,1.2C3459.618,789.518,3459.02,790.052,3458.4,790.1Zm4.8,4.482c1.285-2.952,3.54-2.182,5.585-1.784C3467.3,794.6,3465.71,795.847,3463.194,794.579Zm9.913.8-1.032-1.946a7.35,7.35,0,0,1,.76-.372c.4.607.743,1.241,1.1,1.874Z" transform="translate(-743.975 -391.014)"></path></svg>